<?xml version="1.0" encoding="UTF-8"?>
<svg width="254px" height="26px" viewBox="0 0 254 26" version="1.1" xmlns="http://www.w3.org/2000/svg" xmlns:xlink="http://www.w3.org/1999/xlink">
    <title>ActiveCampaign Logo_White</title>
    <g id="Page-1" stroke="none" stroke-width="1" fill="none" fill-rule="evenodd">
        <g id="ActiveCampaign-Logo_White" transform="translate(0.52, 0.5087)" fill="#949494" fill-rule="nonzero">
            <path d="M78.48,5.24131531 C74.31,5.24131531 71.22,8.63131531 71.22,13.1413153 C71.1271087,15.2019334 71.8813529,17.210835 73.3074454,18.7011489 C74.733538,20.1914628 76.7072903,21.033408 78.77,21.0313153 C81.2156543,21.0572452 83.5420775,19.9767264 85.1,18.0913153 L84.22,17.3013153 C83.8611957,16.9609943 83.2988043,16.9609943 82.94,17.3013153 C81.8283699,18.3167648 80.3755978,18.8771707 78.87,18.8713153 C76.17,18.8713153 73.77,17.1113153 73.77,13.1413153 C73.77,9.17131531 76.03,7.40131531 78.48,7.40131531 C79.7381024,7.40013075 80.9420329,7.91318308 81.8125621,8.82147926 C82.6830913,9.72977545 83.144582,10.9543969 83.09,12.2113153 L76.78,12.2113153 C76.2277153,12.2113153 75.78,12.6590306 75.78,13.2113153 L75.78,14.1413153 L84.22,14.1413153 C84.5612201,14.1414873 84.8879203,14.003261 85.1254004,13.7582418 C85.3628805,13.5132227 85.4908324,13.1823635 85.48,12.8413153 C85.31,8.19131531 82.37,5.24131531 78.48,5.24131531 Z" id="Path"></path>
            <path d="M115.91,5.34131531 C113.969909,5.35493179 112.05834,5.80974156 110.32,6.67131531 L110.81,7.79131531 C110.878744,8.04171931 111.05229,8.25022924 111.286058,8.36328069 C111.519825,8.47633214 111.791029,8.48290666 112.03,8.38131531 C113.201503,7.91430982 114.44894,7.66685641 115.71,7.65131531 C118.51,7.65131531 120.03,9.02131531 120.03,11.5713153 L120.03,15.1513153 C120.03,17.3513153 117.92,19.0213153 115.17,19.0213153 C113.41,19.0213153 111.54,18.1413153 111.54,16.1813153 C111.54,14.2213153 113.11,13.1813153 115.76,13.1813153 L117.08,13.1813153 C117.632285,13.1813153 118.08,12.7336001 118.08,12.1813153 L118.08,11.2413153 L115.53,11.2413153 C111.47,11.2413153 109.01,13.0613153 109.01,16.2413153 C109.01,19.4213153 111.96,21.0413153 114.7,21.0413153 C116.707268,21.1054184 118.636286,20.260325 119.95,18.7413153 L119.95,19.7413153 C119.95,20.2936001 120.397715,20.7413153 120.95,20.7413153 L122.370032,20.7413153 L122.370032,11.4913153 C122.38,7.49131531 120.08,5.34131531 115.91,5.34131531 Z" id="Path"></path>
            <path d="M51.14,0.241315293 L49.67,0.241315293 L49.67,1.71131531 C49.67,2.26360006 50.1177153,2.71131531 50.67,2.71131531 L52.14,2.71131531 L52.14,1.22131531 C52.1291087,0.676856613 51.6845676,0.241206389 51.14,0.241315293 Z" id="Path"></path>
            <path d="M189.4,0.241315293 L187.93,0.241315293 L187.93,1.71131531 C187.93,2.26360006 188.377715,2.71131531 188.93,2.71131531 L190.4,2.71131531 L190.4,1.22131531 C190.389109,0.676856613 189.944568,0.241206389 189.4,0.241315293 Z" id="Path"></path>
            <path d="M33.54,17.1113153 C32.4948321,18.1485817 31.0920947,18.7461765 29.62,18.7813153 C28.1521697,18.7475787 26.7592666,18.1262434 25.7535297,17.0565905 C24.7477929,15.9869376 24.2133485,14.5584399 24.27,13.0913153 C24.2078275,11.6550478 24.7241435,10.2538232 25.7033774,9.20128783 C26.6826112,8.14875243 28.0429863,7.53280419 29.48,7.49131531 C30.939414,7.51741939 32.3297952,8.11740299 33.35,9.16131531 C33.5328642,9.33133318 33.7758584,9.42161059 34.0253727,9.41223035 C34.2748871,9.40285012 34.5104172,9.29458307 34.68,9.11131531 L35.68,8.03131531 C34.1405213,6.20709224 31.8668648,5.16561088 29.48,5.19131531 C25.1059048,5.19131531 21.56,8.73722009 21.56,13.1113153 C21.56,17.4854105 25.1059048,21.0313153 29.48,21.0313153 C31.9146505,21.0244384 34.2170755,19.9227996 35.75,18.0313153 L34.82,17.1513153 C34.4589472,16.8307009 33.9203672,16.8138703 33.54,17.1113153 Z" id="Path"></path>
            <path d="M66.98,6.81131531 L62.56,17.3513153 L58.15,6.81131531 C57.8341899,6.06557266 57.0998228,5.58389107 56.29,5.59131531 L54.92,5.59131531 L61.04,19.7613153 C61.2727718,20.3884211 61.8710872,20.8045389 62.54,20.8045389 C63.2089128,20.8045389 63.8072282,20.3884211 64.04,19.7613153 L70.21,5.59131531 L68.89,5.59131531 C68.0621183,5.56319971 67.3025827,6.04834806 66.98,6.81131531 Z" id="Path"></path>
            <path d="M45.11,5.59131531 L41.38,5.59131531 L41.38,1.22131531 C41.38,0.669030563 40.9322847,0.221315313 40.38,0.221315313 L38.93,0.221315313 L38.93,16.7213153 C38.9086029,17.8466482 39.3365792,18.9341067 40.1192074,19.7430102 C40.9018356,20.5519137 41.9745741,21.0155537 43.1,21.0313153 C44.142544,21.0615687 45.1754327,20.8240043 46.1,20.3413153 L46.1,18.0913153 C45.3826301,18.4455857 44.5993224,18.6465211 43.8,18.6813153 C43.148529,18.7812768 42.4883941,18.5650229 42.0223432,18.0989721 C41.5562924,17.6329212 41.3400386,16.9727863 41.44,16.3213153 L41.44,7.79131531 L46.15,7.79131531 L46.15,6.57131531 C46.14484,6.30250769 46.0316566,6.04710117 45.8359853,5.86271863 C45.6403141,5.67833609 45.37864,5.58051151 45.11,5.59131531 L45.11,5.59131531 Z" id="Path"></path>
            <path d="M51.14,5.59131529 L49.67,5.59131529 L49.67,19.7613153 C49.6451048,20.0334038 49.7424355,20.3024812 49.9356348,20.4956805 C50.1288341,20.6888798 50.3979115,20.7862106 50.67,20.7613153 L52.14,20.7613153 L52.14,6.57131531 C52.1291087,6.02685661 51.6845676,5.59131529 51.14,5.59131529 L51.14,5.59131529 Z" id="Path"></path>
            <path d="M104.73,16.3713153 C103.165476,17.8892991 101.069905,18.7361396 98.89,18.7313153 C94.58,18.7313153 91.25,15.1013153 91.25,10.4913153 C91.25,5.88131531 94.53,2.35131531 98.89,2.35131531 C100.988396,2.39161016 103.004525,3.17467611 104.58,4.56131531 C104.984072,4.87166931 105.556878,4.82860121 105.91,4.46131531 L106.98,3.33131531 C104.890167,1.16043941 101.992957,-0.045524339 98.98,0.00131531298 C96.1790975,-0.035761067 93.4850469,1.07506902 91.52427,3.07551479 C89.5634931,5.07596056 88.5068385,7.7917171 88.6,10.5913153 C88.504636,13.3644352 89.54427,16.0565215 91.4787642,18.0457477 C93.4132583,20.0349738 96.0752991,21.1492927 98.85,21.1313153 C101.990352,21.1638429 104.991303,19.8365694 107.08,17.4913153 L106.08,16.4913153 C105.72986,16.105966 105.14262,16.0537669 104.73,16.3713153 L104.73,16.3713153 Z" id="Path"></path>
            <path d="M143.48,5.24131531 C141.351383,5.19430236 139.357278,6.27888239 138.24,8.09131531 C137.32533,6.2886305 135.450458,5.17774003 133.43,5.24131531 C131.549344,5.21471656 129.787883,6.15970632 128.77,7.74131531 L128.77,6.57131531 C128.77,6.01903056 128.322285,5.57131531 127.77,5.57131531 L126.3,5.57131531 L126.3,20.7413153 L127.77,20.7413153 C128.322285,20.7413153 128.77,20.2936001 128.77,19.7413153 L128.77,12.1113153 C128.77,9.46131531 130.44,7.55131531 132.77,7.55131531 C135.1,7.55131531 136.48,9.17131531 136.48,11.8613153 L136.48,19.7613153 C136.48,20.3136001 136.927715,20.7613153 137.48,20.7613153 L138.95,20.7613153 L138.95,12.0113153 C138.95,8.92131531 140.95,7.55131531 142.95,7.55131531 C145.31,7.55131531 146.68,9.12131531 146.68,11.9113153 L146.68,19.7613153 C146.68,20.3136001 147.127715,20.7613153 147.68,20.7613153 L149.15,20.7613153 L149.15,11.3713153 C149.1,7.60131531 146.94,5.24131531 143.48,5.24131531 Z" id="Path"></path>
            <path d="M161.21,5.24124198 C158.959015,5.23076259 156.855492,6.35966587 155.62,8.24131531 L155.62,6.57131531 C155.62,6.01903056 155.172285,5.57131531 154.62,5.57131531 L153.15,5.57131531 L153.15,24.4113153 C153.15,24.9636001 153.597715,25.4113153 154.15,25.4113153 L155.62,25.4113153 L155.62,18.1413153 C156.891656,19.9687716 158.983716,21.0503553 161.21,21.0313153 C164.74,21.0313153 168.47,18.2413153 168.47,13.1413153 C168.47,8.04131531 164.69,5.24124198 161.21,5.24124198 Z M160.82,18.7813153 C159.369616,18.7479733 157.99417,18.130286 157.005695,17.0683811 C156.01722,16.0064762 155.499505,14.5903688 155.57,13.1413153 C155.49672,11.6905767 156.013187,10.2718529 157.001963,9.20774118 C157.990739,8.14362943 159.367792,7.52456544 160.82,7.49131531 C163.76,7.49131531 165.92,9.89131531 165.92,13.1313153 C165.92,16.3713153 163.81,18.7813153 160.82,18.7813153 Z" id="Shape"></path>
            <path d="M189.35,5.59131529 L187.88,5.59131529 L187.88,19.7613153 C187.88,20.3136001 188.327715,20.7613153 188.88,20.7613153 L190.35,20.7613153 L190.35,6.57131531 C190.339109,6.02685661 189.894568,5.59131529 189.35,5.59131529 L189.35,5.59131529 Z" id="Path"></path>
            <path d="M206.61,6.57131531 L206.61,7.99131531 C204.55093,5.35778349 200.943535,4.49957541 197.919129,5.92373589 C194.894724,7.34789638 193.258315,10.6753559 193.976724,13.9401914 C194.695132,17.2050269 197.577138,19.5382354 200.92,19.5613153 C203.174573,19.5839786 205.298415,18.5052613 206.61,16.6713153 L206.61,18.0413153 C206.61,21.3313153 204.7,23.1913153 201.32,23.1913153 C199.553955,23.190411 197.822898,22.6987909 196.32,21.7713153 C196.104992,21.6219922 195.835625,21.5736807 195.582125,21.6389761 C195.328625,21.7042716 195.116115,21.8767029 195,22.1113153 L194.36,23.2413153 C196.422048,24.6497384 198.862875,25.399421 201.36,25.3913804 C206.27,25.3913804 209.06,22.7013153 209.06,17.9913153 L209.06,5.59131531 L207.59,5.59131531 C207.053227,5.6019476 206.620632,6.03454197 206.61,6.57131531 Z M201.27,17.3513153 C199.931461,17.3933952 198.635095,16.8801359 197.688137,15.933178 C196.741179,14.9862202 196.22792,13.6898546 196.27,12.3513153 C196.238234,11.0247078 196.758218,9.74436648 197.705969,8.81556982 C198.653721,7.88677317 199.944305,7.39275812 201.27,7.45131531 C203.121293,7.30671706 204.897295,8.21251743 205.867226,9.79600284 C206.837158,11.3794882 206.837158,13.3731424 205.867226,14.9566278 C204.897295,16.5401132 203.121293,17.4459136 201.27,17.3013153 L201.27,17.3513153 Z" id="Shape"></path>
            <path d="M220.53,5.24131531 C218.522858,5.17185301 216.625852,6.15829614 215.53,7.84131531 L215.53,6.57131531 C215.53,6.01903056 215.082285,5.57131531 214.53,5.57131531 L213.06,5.57131531 L213.06,20.7413153 L214.53,20.7413153 C215.082285,20.7413153 215.53,20.2936001 215.53,19.7413153 L215.53,12.0413153 C215.451035,10.855959 215.874165,9.6920324 216.69593,8.83412427 C217.517696,7.97621614 218.662344,7.50341177 219.85,7.53131531 C222.35,7.53131531 223.85,9.15131531 223.85,11.8913153 L223.85,19.7413153 C223.85,20.2936001 224.297715,20.7413153 224.85,20.7413153 L226.32,20.7413153 L226.32,11.3213153 C226.37,7.65131531 224.11,5.24131531 220.53,5.24131531 Z" id="Path"></path>
            <path d="M251.86,10.6913153 L236.479998,0.681315313 L236.479998,2.68131531 C236.478998,3.34656748 236.808842,3.96877443 237.36,4.34131531 L250.06,12.8213153 L237.36,21.2613153 C236.817567,21.6278727 236.488874,22.2367012 236.479998,22.8913153 L236.479998,25.0013153 L251.87,14.9013153 C252.565974,14.422331 252.987044,13.6360865 253.000035,12.7913153 C253.004506,11.9423282 252.574405,11.1500367 251.86,10.6913153 L251.86,10.6913153 Z" id="Path"></path>
            <path d="M242.4,13.4913153 C243.089108,13.93124 243.970892,13.93124 244.66,13.4913153 L245.74,12.7613153 L237.74,7.31131531 C237.5001,7.15035141 237.19147,7.13317452 236.93519,7.26652342 C236.67891,7.39987233 236.515857,7.66247793 236.51,7.95131531 L236.51,9.57131531 L240.68,12.3613153 L242.4,13.4913153 Z" id="Path"></path>
            <path d="M177.59,5.34131531 C175.64974,5.35352959 173.73786,5.80841339 172,6.67131531 L172.48,7.79131531 C172.548744,8.04171931 172.72229,8.25022924 172.956058,8.36328069 C173.189825,8.47633214 173.461029,8.48290666 173.7,8.38131531 C174.871503,7.91430982 176.11894,7.66685641 177.38,7.65131531 C180.17,7.65131531 181.69,9.02131531 181.69,11.5713153 L181.69,15.1513153 C181.69,17.3513153 179.59,19.0213153 176.84,19.0213153 C175.07,19.0213153 173.21,18.1413153 173.21,16.1813153 C173.21,14.2213153 174.78,13.1813153 177.43,13.1813153 L178.75,13.1813153 C179.302285,13.1813153 179.75,12.7336001 179.75,12.1813153 L179.75,11.2413153 L177.2,11.2413153 C173.13,11.2413153 170.68,13.0613153 170.68,16.2413153 C170.68,19.4213153 173.62,21.0413153 176.37,21.0413153 C178.374368,21.1052671 180.30027,20.2599285 181.61,18.7413153 L181.61,19.7413153 C181.61,20.2936001 182.057715,20.7413153 182.61,20.7413153 L184.03,20.7413153 L184.03,11.4913153 C184.06,7.49131531 181.75,5.34131531 177.59,5.34131531 Z" id="Path"></path>
            <path d="M10.48,0.241315313 C9.76793014,0.132728755 9.08206871,0.55610001 8.86,1.24131531 L-1.42108547e-14,20.7413153 L1.33,20.7413153 C2.12104369,20.7239806 2.8372923,20.2695864 3.19,19.5613153 L5.05,15.4913153 L12.05,15.4913153 C12.6022847,15.4913153 13.05,15.0436001 13.05,14.4913153 L13.05,13.1413153 L6.05,13.1413153 L10.48,3.33131531 L17.65,19.4913153 C17.9522854,20.2387534 18.6738079,20.7315966 19.48,20.7413153 L20.9,20.7413153 L12.11,1.27131531 C11.8663224,0.595482312 11.1949985,0.171271525 10.48,0.241315313 Z" id="Path"></path>
        </g>
    </g>
</svg>