<svg xmlns="http://www.w3.org/2000/svg" viewBox="0 0 1200 1600" width="1200" height="1600">
  <defs>
    <linearGradient id="bgGrad" x1="0" y1="0" x2="0" y2="1">
      <stop offset="0%" stop-color="#0a0e14"/>
      <stop offset="100%" stop-color="#0d1117"/>
    </linearGradient>
    <linearGradient id="topBar" x1="0" y1="0" x2="0" y2="1">
      <stop offset="0%" stop-color="#161b22"/>
      <stop offset="100%" stop-color="#13171e"/>
    </linearGradient>
    <linearGradient id="saveBtn" x1="0" y1="0" x2="0" y2="1">
      <stop offset="0%" stop-color="#1ab759"/>
      <stop offset="100%" stop-color="#15a04d"/>
    </linearGradient>
    <linearGradient id="cancelBtn" x1="0" y1="0" x2="0" y2="1">
      <stop offset="0%" stop-color="#e85d3a"/>
      <stop offset="100%" stop-color="#d14b2a"/>
    </linearGradient>
    <linearGradient id="nodeGlow" x1="0" y1="0" x2="0" y2="1">
      <stop offset="0%" stop-color="rgba(26,183,89,0.12)"/>
      <stop offset="100%" stop-color="rgba(26,183,89,0)"/>
    </linearGradient>
    <filter id="glow">
      <feGaussianBlur stdDeviation="3" result="blur"/>
      <feMerge><feMergeNode in="blur"/><feMergeNode in="SourceGraphic"/></feMerge>
    </filter>
    <filter id="softShadow">
      <feDropShadow dx="0" dy="2" stdDeviation="6" flood-color="#000" flood-opacity="0.4"/>
    </filter>
    <filter id="nodeShadow">
      <feDropShadow dx="0" dy="1" stdDeviation="4" flood-color="#000" flood-opacity="0.5"/>
    </filter>
  </defs>

  <!-- Background -->
  <rect width="1200" height="1600" fill="url(#bgGrad)"/>

  <!-- Subtle grid -->
  <pattern id="grid" width="40" height="40" patternUnits="userSpaceOnUse">
    <path d="M 40 0 L 0 0 0 40" fill="none" stroke="rgba(255,255,255,0.02)" stroke-width="0.5"/>
  </pattern>
  <rect width="1200" height="1600" fill="url(#grid)"/>

  <!-- Top nav -->
  <rect x="0" y="0" width="1200" height="44" fill="#0d1117" opacity="0.9"/>
  <line x1="0" y1="44" x2="1200" y2="44" stroke="rgba(255,255,255,0.06)" stroke-width="1"/>
  <text x="870" y="28" fill="rgba(255,255,255,0.5)" font-family="Inter, system-ui, sans-serif" font-size="13" font-weight="400">Create an Automation</text>
  <text x="1070" y="28" fill="rgba(255,255,255,0.5)" font-family="Inter, system-ui, sans-serif" font-size="13" font-weight="400">Connections</text>

  <!-- Subroutine name bar -->
  <rect x="0" y="44" width="1200" height="56" fill="url(#topBar)" filter="url(#softShadow)"/>
  <line x1="0" y1="100" x2="1200" y2="100" stroke="rgba(255,255,255,0.06)" stroke-width="1"/>
  <text x="60" y="78" fill="rgba(255,255,255,0.6)" font-family="Inter, system-ui, sans-serif" font-size="13" font-weight="500" letter-spacing="0.3">Subroutine name:</text>
  <rect x="200" y="58" width="560" height="32" rx="6" fill="rgba(255,255,255,0.05)" stroke="rgba(255,255,255,0.1)" stroke-width="1"/>
  <text x="216" y="79" fill="rgba(255,255,255,0.85)" font-family="Inter, system-ui, sans-serif" font-size="13">Check if Mindbody item id is sellable online</text>
  <rect x="790" y="58" width="80" height="32" rx="6" fill="url(#saveBtn)"/>
  <text x="814" y="79" fill="#fff" font-family="Inter, system-ui, sans-serif" font-size="13" font-weight="600">Save</text>
  <rect x="885" y="58" width="80" height="32" rx="6" fill="url(#cancelBtn)"/>
  <text x="903" y="79" fill="#fff" font-family="Inter, system-ui, sans-serif" font-size="13" font-weight="600">Cancel</text>

  <!-- Search bar area -->
  <rect x="140" y="120" width="340" height="34" rx="8" fill="rgba(255,255,255,0.04)" stroke="rgba(255,255,255,0.08)" stroke-width="1"/>
  <circle cx="158" cy="137" r="8" fill="none" stroke="rgba(255,255,255,0.3)" stroke-width="1.5"/>
  <line x1="164" y1="143" x2="168" y2="147" stroke="rgba(255,255,255,0.3)" stroke-width="1.5" stroke-linecap="round"/>
  <text x="178" y="142" fill="rgba(255,255,255,0.3)" font-family="Inter, system-ui, sans-serif" font-size="13">Search...</text>

  <!-- Dropdown -->
  <text x="530" y="142" fill="rgba(255,255,255,0.6)" font-family="Inter, system-ui, sans-serif" font-size="13">action names</text>
  <rect x="650" y="124" width="64" height="28" rx="6" fill="rgba(232,93,58,0.15)" stroke="rgba(232,93,58,0.3)" stroke-width="1"/>
  <text x="664" y="143" fill="#e85d3a" font-family="Inter, system-ui, sans-serif" font-size="12" font-weight="500">Hide</text>

  <!-- Dropdown menu -->
  <rect x="500" y="158" width="180" height="140" rx="8" fill="#1a1f28" stroke="rgba(255,255,255,0.08)" stroke-width="1" filter="url(#softShadow)"/>
  <rect x="504" y="164" width="172" height="30" rx="4" fill="rgba(26,183,89,0.15)"/>
  <text x="520" y="184" fill="#1ab759" font-family="Inter, system-ui, sans-serif" font-size="13" font-weight="500">action names</text>
  <text x="520" y="214" fill="rgba(255,255,255,0.7)" font-family="Inter, system-ui, sans-serif" font-size="13">action settings</text>
  <text x="520" y="244" fill="rgba(255,255,255,0.7)" font-family="Inter, system-ui, sans-serif" font-size="13">field mappings</text>
  <text x="520" y="274" fill="rgba(255,255,255,0.7)" font-family="Inter, system-ui, sans-serif" font-size="13">field names</text>

  <!-- === FLOW DIAGRAM === -->

  <!-- Connector line: full vertical spine -->
  <line x1="600" y1="380" x2="600" y2="440" stroke="rgba(255,255,255,0.1)" stroke-width="1.5" stroke-dasharray="4,4"/>

  <!-- Subroutine Input node -->
  <g filter="url(#nodeShadow)">
    <circle cx="600" cy="350" r="36" fill="#141a22" stroke="rgba(26,183,89,0.4)" stroke-width="2"/>
    <circle cx="600" cy="350" r="24" fill="none" stroke="rgba(26,183,89,0.2)" stroke-width="1"/>
    <!-- Gear icon -->
    <g transform="translate(600,350)" fill="none" stroke="#1ab759" stroke-width="1.8" stroke-linecap="round">
      <circle r="7"/>
      <path d="M0-13v4M0 9v4M-13 0h4M9 0h4M-9.2-9.2l2.8 2.8M6.4 6.4l2.8 2.8M9.2-9.2l-2.8 2.8M-6.4 6.4l-2.8 2.8"/>
    </g>
  </g>
  <text x="600" y="405" fill="rgba(255,255,255,0.6)" font-family="Inter, system-ui, sans-serif" font-size="12" text-anchor="middle">Subroutine input</text>

  <!-- ACTIONS label -->
  <text x="600" y="445" fill="rgba(255,255,255,0.25)" font-family="Inter, system-ui, sans-serif" font-size="11" text-anchor="middle" letter-spacing="3" font-weight="600">ACTIONS</text>
  <text x="600" y="465" fill="rgba(255,255,255,0.4)" font-family="Inter, system-ui, sans-serif" font-size="12" text-anchor="middle">Execute the following actions</text>

  <!-- Connector -->
  <line x1="600" y1="478" x2="600" y2="500" stroke="rgba(255,255,255,0.1)" stroke-width="1.5"/>
  <polygon points="596,498 604,498 600,504" fill="rgba(255,255,255,0.15)"/>

  <!-- Plus button -->
  <circle cx="600" cy="520" r="14" fill="rgba(255,255,255,0.04)" stroke="rgba(255,255,255,0.12)" stroke-width="1"/>
  <line x1="594" y1="520" x2="606" y2="520" stroke="rgba(255,255,255,0.3)" stroke-width="1.5" stroke-linecap="round"/>
  <line x1="600" y1="514" x2="600" y2="526" stroke="rgba(255,255,255,0.3)" stroke-width="1.5" stroke-linecap="round"/>

  <!-- Connector -->
  <line x1="600" y1="534" x2="600" y2="560" stroke="rgba(255,255,255,0.1)" stroke-width="1.5"/>

  <!-- Node 1: Get Version_number -->
  <g filter="url(#nodeShadow)">
    <circle cx="600" cy="596" r="36" fill="#141a22" stroke="rgba(26,183,89,0.4)" stroke-width="2"/>
    <!-- Query icon -->
    <g transform="translate(586,584)">
      <rect x="0" y="0" width="16" height="12" rx="2" fill="none" stroke="#e85d3a" stroke-width="1.5"/>
      <line x1="2" y1="4" x2="10" y2="4" stroke="#e85d3a" stroke-width="1.2"/>
      <line x1="2" y1="8" x2="8" y2="8" stroke="#e85d3a" stroke-width="1.2"/>
      <circle cx="22" cy="14" r="6" fill="none" stroke="#e85d3a" stroke-width="1.5"/>
      <line x1="26" y1="18" x2="30" y2="22" stroke="#e85d3a" stroke-width="1.5" stroke-linecap="round"/>
    </g>
  </g>
  <text x="600" y="648" fill="rgba(255,255,255,0.7)" font-family="Inter, system-ui, sans-serif" font-size="12" text-anchor="middle" font-weight="500">Get</text>
  <text x="600" y="664" fill="rgba(255,255,255,0.45)" font-family="Inter, system-ui, sans-serif" font-size="11" text-anchor="middle">Version_number</text>

  <!-- Connector + plus -->
  <line x1="600" y1="632" x2="600" y2="690" stroke="rgba(255,255,255,0.1)" stroke-width="1.5"/>
  <circle cx="600" cy="700" r="14" fill="rgba(255,255,255,0.04)" stroke="rgba(255,255,255,0.12)" stroke-width="1"/>
  <line x1="594" y1="700" x2="606" y2="700" stroke="rgba(255,255,255,0.3)" stroke-width="1.5" stroke-linecap="round"/>
  <line x1="600" y1="694" x2="600" y2="706" stroke="rgba(255,255,255,0.3)" stroke-width="1.5" stroke-linecap="round"/>

  <!-- Connector -->
  <line x1="600" y1="714" x2="600" y2="740" stroke="rgba(255,255,255,0.1)" stroke-width="1.5"/>

  <!-- Node 2: Get Stored_sell_online_product_array -->
  <g filter="url(#nodeShadow)">
    <circle cx="600" cy="776" r="36" fill="#141a22" stroke="rgba(26,183,89,0.4)" stroke-width="2"/>
    <g transform="translate(586,764)">
      <rect x="0" y="0" width="16" height="12" rx="2" fill="none" stroke="#e85d3a" stroke-width="1.5"/>
      <line x1="2" y1="4" x2="10" y2="4" stroke="#e85d3a" stroke-width="1.2"/>
      <line x1="2" y1="8" x2="8" y2="8" stroke="#e85d3a" stroke-width="1.2"/>
      <circle cx="22" cy="14" r="6" fill="none" stroke="#e85d3a" stroke-width="1.5"/>
      <line x1="26" y1="18" x2="30" y2="22" stroke="#e85d3a" stroke-width="1.5" stroke-linecap="round"/>
    </g>
  </g>
  <text x="600" y="828" fill="rgba(255,255,255,0.7)" font-family="Inter, system-ui, sans-serif" font-size="12" text-anchor="middle" font-weight="500">Get</text>
  <text x="600" y="844" fill="rgba(255,255,255,0.45)" font-family="Inter, system-ui, sans-serif" font-size="11" text-anchor="middle">Stored_sell_online_product_array</text>

  <!-- Connector + plus -->
  <line x1="600" y1="812" x2="600" y2="870" stroke="rgba(255,255,255,0.1)" stroke-width="1.5"/>
  <circle cx="600" cy="880" r="14" fill="rgba(255,255,255,0.04)" stroke="rgba(255,255,255,0.12)" stroke-width="1"/>
  <line x1="594" y1="880" x2="606" y2="880" stroke="rgba(255,255,255,0.3)" stroke-width="1.5" stroke-linecap="round"/>
  <line x1="600" y1="874" x2="600" y2="886" stroke="rgba(255,255,255,0.3)" stroke-width="1.5" stroke-linecap="round"/>

  <!-- Connector -->
  <line x1="600" y1="894" x2="600" y2="920" stroke="rgba(255,255,255,0.1)" stroke-width="1.5"/>

  <!-- Node 3: Find item id -->
  <g filter="url(#nodeShadow)">
    <circle cx="600" cy="956" r="36" fill="#141a22" stroke="rgba(26,183,89,0.4)" stroke-width="2"/>
    <!-- Binary/data icon -->
    <g transform="translate(588,944)">
      <rect x="0" y="0" width="24" height="18" rx="3" fill="none" stroke="#e85d3a" stroke-width="1.5"/>
      <text x="4" y="13" fill="#e85d3a" font-family="monospace" font-size="9" font-weight="700">0101</text>
    </g>
  </g>
  <text x="600" y="1008" fill="rgba(255,255,255,0.7)" font-family="Inter, system-ui, sans-serif" font-size="12" text-anchor="middle" font-weight="500">Find item id in</text>
  <text x="600" y="1024" fill="rgba(255,255,255,0.45)" font-family="Inter, system-ui, sans-serif" font-size="11" text-anchor="middle">stored sell online product array</text>

  <!-- Connector + plus -->
  <line x1="600" y1="992" x2="600" y2="1050" stroke="rgba(255,255,255,0.1)" stroke-width="1.5"/>
  <circle cx="600" cy="1060" r="14" fill="rgba(255,255,255,0.04)" stroke="rgba(255,255,255,0.12)" stroke-width="1"/>
  <line x1="594" y1="1060" x2="606" y2="1060" stroke="rgba(255,255,255,0.3)" stroke-width="1.5" stroke-linecap="round"/>
  <line x1="600" y1="1054" x2="600" y2="1066" stroke="rgba(255,255,255,0.3)" stroke-width="1.5" stroke-linecap="round"/>

  <!-- Connector to condition -->
  <line x1="600" y1="1074" x2="600" y2="1100" stroke="rgba(255,255,255,0.1)" stroke-width="1.5"/>

  <!-- Condition diamond -->
  <g filter="url(#nodeShadow)">
    <polygon points="600,1100 650,1140 600,1180 550,1140" fill="#141a22" stroke="rgba(232,93,58,0.5)" stroke-width="2"/>
    <text x="600" y="1144" fill="rgba(255,255,255,0.75)" font-family="Inter, system-ui, sans-serif" font-size="11" text-anchor="middle" font-weight="500">Condition</text>
  </g>
  <text x="600" y="1204" fill="rgba(255,255,255,0.45)" font-family="Inter, system-ui, sans-serif" font-size="11" text-anchor="middle">Found item id in array</text>

  <!-- False branch (left) -->
  <text x="480" y="1134" fill="#e85d3a" font-family="Inter, system-ui, sans-serif" font-size="12" font-weight="600" text-anchor="middle">False</text>
  <line x1="550" y1="1140" x2="380" y2="1140" stroke="rgba(232,93,58,0.3)" stroke-width="1.5"/>
  <line x1="380" y1="1140" x2="380" y2="1230" stroke="rgba(232,93,58,0.3)" stroke-width="1.5"/>
  <polygon points="376,1228 384,1228 380,1234" fill="rgba(232,93,58,0.4)"/>

  <!-- Plus on false branch -->
  <circle cx="380" cy="1248" r="14" fill="rgba(255,255,255,0.04)" stroke="rgba(255,255,255,0.12)" stroke-width="1"/>
  <line x1="374" y1="1248" x2="386" y2="1248" stroke="rgba(255,255,255,0.3)" stroke-width="1.5" stroke-linecap="round"/>
  <line x1="380" y1="1242" x2="380" y2="1254" stroke="rgba(255,255,255,0.3)" stroke-width="1.5" stroke-linecap="round"/>

  <line x1="380" y1="1262" x2="380" y2="1290" stroke="rgba(255,255,255,0.1)" stroke-width="1.5"/>

  <!-- False: Execute ADMIN 11 -->
  <g filter="url(#nodeShadow)">
    <circle cx="380" cy="1326" r="36" fill="#141a22" stroke="rgba(26,183,89,0.4)" stroke-width="2"/>
    <g transform="translate(380,1326)" fill="none" stroke="#1ab759" stroke-width="1.8" stroke-linecap="round">
      <circle r="7"/>
      <path d="M0-13v4M0 9v4M-13 0h4M9 0h4M-9.2-9.2l2.8 2.8M6.4 6.4l2.8 2.8M9.2-9.2l-2.8 2.8M-6.4 6.4l-2.8 2.8"/>
    </g>
  </g>
  <text x="380" y="1378" fill="rgba(255,255,255,0.7)" font-family="Inter, system-ui, sans-serif" font-size="11" text-anchor="middle" font-weight="500">Execute ADMIN 11</text>
  <text x="380" y="1394" fill="rgba(255,255,255,0.4)" font-family="Inter, system-ui, sans-serif" font-size="10" text-anchor="middle">Sync Mindbody products</text>
  <text x="380" y="1408" fill="rgba(255,255,255,0.4)" font-family="Inter, system-ui, sans-serif" font-size="10" text-anchor="middle">tagged "Sold Online"</text>

  <!-- Plus + Get below false branch -->
  <line x1="380" y1="1362" x2="380" y2="1430" stroke="rgba(255,255,255,0.1)" stroke-width="1.5"/>
  <circle cx="380" cy="1440" r="14" fill="rgba(255,255,255,0.04)" stroke="rgba(255,255,255,0.12)" stroke-width="1"/>
  <line x1="374" y1="1440" x2="386" y2="1440" stroke="rgba(255,255,255,0.3)" stroke-width="1.5" stroke-linecap="round"/>
  <line x1="380" y1="1434" x2="380" y2="1446" stroke="rgba(255,255,255,0.3)" stroke-width="1.5" stroke-linecap="round"/>

  <line x1="380" y1="1454" x2="380" y2="1480" stroke="rgba(255,255,255,0.1)" stroke-width="1.5"/>

  <g filter="url(#nodeShadow)">
    <circle cx="380" cy="1516" r="36" fill="#141a22" stroke="rgba(26,183,89,0.4)" stroke-width="2"/>
    <g transform="translate(366,1504)">
      <rect x="0" y="0" width="16" height="12" rx="2" fill="none" stroke="#e85d3a" stroke-width="1.5"/>
      <line x1="2" y1="4" x2="10" y2="4" stroke="#e85d3a" stroke-width="1.2"/>
      <line x1="2" y1="8" x2="8" y2="8" stroke="#e85d3a" stroke-width="1.2"/>
      <circle cx="22" cy="14" r="6" fill="none" stroke="#e85d3a" stroke-width="1.5"/>
      <line x1="26" y1="18" x2="30" y2="22" stroke="#e85d3a" stroke-width="1.5" stroke-linecap="round"/>
    </g>
  </g>
  <text x="380" y="1566" fill="rgba(255,255,255,0.7)" font-family="Inter, system-ui, sans-serif" font-size="12" text-anchor="middle" font-weight="500">Get</text>

  <!-- True branch (right) -->
  <text x="720" y="1134" fill="#1ab759" font-family="Inter, system-ui, sans-serif" font-size="12" font-weight="600" text-anchor="middle">True</text>
  <line x1="650" y1="1140" x2="820" y2="1140" stroke="rgba(26,183,89,0.3)" stroke-width="1.5"/>
  <line x1="820" y1="1140" x2="820" y2="1230" stroke="rgba(26,183,89,0.3)" stroke-width="1.5"/>
  <polygon points="816,1228 824,1228 820,1234" fill="rgba(26,183,89,0.4)"/>

  <!-- Plus on true branch -->
  <circle cx="820" cy="1248" r="14" fill="rgba(255,255,255,0.04)" stroke="rgba(255,255,255,0.12)" stroke-width="1"/>
  <line x1="814" y1="1248" x2="826" y2="1248" stroke="rgba(255,255,255,0.3)" stroke-width="1.5" stroke-linecap="round"/>
  <line x1="820" y1="1242" x2="820" y2="1254" stroke="rgba(255,255,255,0.3)" stroke-width="1.5" stroke-linecap="round"/>

  <line x1="820" y1="1262" x2="820" y2="1290" stroke="rgba(255,255,255,0.1)" stroke-width="1.5"/>

  <!-- True: Post_item_to_shopify -->
  <g filter="url(#nodeShadow)">
    <circle cx="820" cy="1326" r="36" fill="#141a22" stroke="rgba(26,183,89,0.4)" stroke-width="2"/>
    <g transform="translate(806,1314)">
      <rect x="0" y="0" width="16" height="12" rx="2" fill="none" stroke="#e85d3a" stroke-width="1.5"/>
      <line x1="2" y1="4" x2="10" y2="4" stroke="#e85d3a" stroke-width="1.2"/>
      <line x1="2" y1="8" x2="8" y2="8" stroke="#e85d3a" stroke-width="1.2"/>
      <circle cx="22" cy="14" r="6" fill="none" stroke="#e85d3a" stroke-width="1.5"/>
      <line x1="26" y1="18" x2="30" y2="22" stroke="#e85d3a" stroke-width="1.5" stroke-linecap="round"/>
    </g>
  </g>
  <text x="820" y="1378" fill="rgba(255,255,255,0.7)" font-family="Inter, system-ui, sans-serif" font-size="12" text-anchor="middle" font-weight="500">Post_item_to_shopify</text>
  <text x="820" y="1394" fill="rgba(255,255,255,0.4)" font-family="Inter, system-ui, sans-serif" font-size="10" text-anchor="middle">= true</text>

  <!-- Plus + Create below true branch -->
  <line x1="820" y1="1362" x2="820" y2="1430" stroke="rgba(255,255,255,0.1)" stroke-width="1.5"/>
  <circle cx="820" cy="1440" r="14" fill="rgba(255,255,255,0.04)" stroke="rgba(255,255,255,0.12)" stroke-width="1"/>
  <line x1="814" y1="1440" x2="826" y2="1440" stroke="rgba(255,255,255,0.3)" stroke-width="1.5" stroke-linecap="round"/>
  <line x1="820" y1="1434" x2="820" y2="1446" stroke="rgba(255,255,255,0.3)" stroke-width="1.5" stroke-linecap="round"/>

  <line x1="820" y1="1454" x2="820" y2="1480" stroke="rgba(255,255,255,0.1)" stroke-width="1.5"/>

  <g filter="url(#nodeShadow)">
    <circle cx="820" cy="1516" r="36" fill="#141a22" stroke="rgba(26,183,89,0.4)" stroke-width="2"/>
    <g transform="translate(806,1504)">
      <rect x="0" y="0" width="16" height="12" rx="2" fill="none" stroke="#e85d3a" stroke-width="1.5"/>
      <line x1="2" y1="4" x2="10" y2="4" stroke="#e85d3a" stroke-width="1.2"/>
      <line x1="2" y1="8" x2="8" y2="8" stroke="#e85d3a" stroke-width="1.2"/>
      <circle cx="22" cy="14" r="6" fill="none" stroke="#e85d3a" stroke-width="1.5"/>
      <line x1="26" y1="18" x2="30" y2="22" stroke="#e85d3a" stroke-width="1.5" stroke-linecap="round"/>
    </g>
  </g>
  <text x="820" y="1566" fill="rgba(255,255,255,0.7)" font-family="Inter, system-ui, sans-serif" font-size="12" text-anchor="middle" font-weight="500">Create_item_in_shopify</text>
  <text x="820" y="1582" fill="rgba(255,255,255,0.4)" font-family="Inter, system-ui, sans-serif" font-size="10" text-anchor="middle">= true</text>

</svg>