<?xml version="1.0" encoding="UTF-8"?>
<svg width="82px" height="23px" viewBox="0 0 82 23" version="1.1" xmlns="http://www.w3.org/2000/svg" xmlns:xlink="http://www.w3.org/1999/xlink">
    <title>calendly_workmark_white</title>
    <g id="Page-1" stroke="none" stroke-width="1" fill="none" fill-rule="evenodd">
        <g id="calendly_workmark_white" fill="#949494" fill-rule="nonzero">
            <path d="M39.6856845,13.5247148 C39.0866238,14.4306717 37.9286832,15.1292776 36.3433641,15.1292776 C34.159506,15.1292776 32.4922595,13.9657795 32.0930597,11.9125475 L41.929553,11.9125475 C41.9763446,11.6181477 42,11.3207026 42,11.0228137 C42,7.82889734 39.6982084,5 36.1523743,5 C32.4891285,5 30,7.62357414 30,11 C30,14.4220532 32.5126109,17 36.2932684,17 C38.6415029,17 40.4261611,15.973384 41.4593842,14.4220532 L41.4593842,14.4220532 L39.6856845,13.5247148 Z M36.1539398,6.87072243 C37.9151157,6.87072243 39.5823621,7.92015209 39.9345973,10.1787072 L32.0914942,10.1787072 C32.420247,8.19391635 33.9455557,6.87072243 36.1539398,6.87072243 Z" id="Shape"></path>
            <polygon id="Path" points="27 0 29 0 29 17 27 17"></polygon>
            <path d="M53,9.81871345 L53,17 L51.0361174,17 L51.0361174,9.93567251 C51.0361174,8.01754386 49.9751693,6.94152047 48.2370203,6.94152047 C46.4311512,6.94152047 44.9638826,8.04093567 44.9638826,10.8011696 L44.9638826,17 L43,17 L43,5.30409357 L44.963381,5.30409357 L44.963381,6.98830409 C45.7985954,5.60818713 47.0401304,5 48.6202659,5 C51.261851,5 53,6.8245614 53,9.81871345 Z" id="Path"></path>
            <path d="M66,0 L66,16.7025572 L64.0256292,16.7025572 L64.0256292,14.7348587 C63.1181043,16.1305518 61.6660645,17 59.740095,17 C56.5864459,17 54,14.3687752 54,10.9825034 C54,7.59623149 56.583925,4.96500673 59.7355573,4.96500673 C61.6640477,4.96500673 63.1135667,5.83445491 64.0210916,7.23014805 L64.0210916,0 L66,0 Z M64.0256292,10.9825034 C64.0256292,8.6487214 62.2786438,6.88694482 59.9871434,6.88694482 C57.7183312,6.88694482 55.9713457,8.6487214 55.9713457,10.9825034 C55.9713457,13.3162853 57.7188353,15.0780619 59.9876476,15.0780619 C62.2786438,15.0780619 64.0256292,13.3162853 64.0256292,10.9825034 Z" id="Shape"></path>
            <polygon id="Path" points="68 0 70 0 70 17 68 17"></polygon>
            <path d="M25,5.29657795 L25,16.7034221 L23.0260439,16.7034221 L23.0260439,14.7414449 C22.1187096,16.1330798 20.6669747,17 18.7388894,17 C15.5859027,17 13,14.3764259 13,11 C13,7.62357414 15.5864068,5 18.7414097,5 C20.6694951,5 22.1212299,5.86692015 23.0285642,7.25855513 L23.0285642,5.29657795 L25,5.29657795 Z M23.0260439,11 C23.0260439,8.6730038 21.2794254,6.91634981 18.9884063,6.91634981 C16.7200706,6.91634981 14.9734521,8.6730038 14.9734521,11 C14.9734521,13.3269962 16.7200706,15.0836502 18.9884063,15.0836502 C21.2799294,15.0836502 23.0260439,13.3269962 23.0260439,11 Z" id="Shape"></path>
            <path d="M10.5212777,15.4318088 C7.6919485,16.4924604 4.52130604,15.3392113 2.9973127,12.6951374 C1.47331936,10.0510636 2.03466244,6.67727188 4.32938521,4.68909729 C6.62410798,2.7009227 9.99166573,2.6706689 12.3206321,4.61730473 C12.6724816,4.91168259 12.9909393,5.24499085 13.2701069,5.61105594 L15,4.32514706 C12.9744427,1.64289484 9.57661098,0.435802014 6.34736637,1.25126556 C3.11812176,2.06672911 0.671857293,4.74959969 0.117914123,8.08323912 C-0.651267747,12.704312 2.4239275,17.0996503 6.97262188,17.8811591 C7.43436041,17.960167 7.90177932,18 8.37002002,18 C9.35912903,18.0011848 10.3405072,17.8229922 11.2679868,17.4737989 C12.06051,17.1735483 12.8039865,16.753692 13.4733834,16.2283666 L12.3221643,14.375786 C11.7837209,14.8269151 11.1751028,15.183803 10.5212777,15.4318088 Z" id="Path"></path>
            <path d="M79.8563269,5 L79.8563269,11.5874269 C79.8563269,13.7180616 78.5564746,15.0660878 76.5693255,15.0660878 C74.5821763,15.0660878 73.1447563,13.7180616 73.1447563,11.5874269 L73.1447563,5 L71,5 L71,11.3919038 C71,14.7400439 73.1913343,16.9119499 76.5693255,16.9119499 C79.4907435,16.9119499 79.9473166,15.15121 79.9473166,15.1063273 L79.9473166,17.4794313 C79.9473166,19.8272565 78.8743968,21.1536152 76.6381093,21.1536152 C74.9548006,21.1536152 73.5639586,19.9711904 73.3559823,18.4415701 L71.4387001,19.0792128 C72.0037152,21.3788411 74.1586318,23.0038248 76.6381093,23 C80.1043821,23 82,20.8260237 82,17.4799472 L82,5 L79.8563269,5 Z" id="Path"></path>
        </g>
    </g>
</svg>