<svg width="12" height="9" viewBox="0 0 12 9" fill="none" xmlns="http://www.w3.org/2000/svg">
<path d="M11.7076 1.70757L4.70757 8.70757C4.6147 8.80054 4.50441 8.8743 4.38301 8.92463C4.26161 8.97495 4.13148 9.00085 4.00007 9.00085C3.86865 9.00085 3.73853 8.97495 3.61713 8.92463C3.49573 8.8743 3.38544 8.80054 3.29257 8.70757L0.292567 5.70757C0.104927 5.51993 -0.000488281 5.26543 -0.000488281 5.00007C-0.000488281 4.7347 0.104927 4.48021 0.292567 4.29257C0.480208 4.10493 0.734704 3.99951 1.00007 3.99951C1.26543 3.99951 1.51993 4.10493 1.70757 4.29257L4.00007 6.58632L10.2926 0.292567C10.3855 0.199657 10.4958 0.125957 10.6172 0.0756741C10.7386 0.0253914 10.8687 -0.000488281 11.0001 -0.000488281C11.1315 -0.000488281 11.2616 0.0253914 11.383 0.0756741C11.5044 0.125957 11.6147 0.199657 11.7076 0.292567C11.8005 0.385477 11.8742 0.495778 11.9245 0.617171C11.9747 0.738564 12.0006 0.868673 12.0006 1.00007C12.0006 1.13146 11.9747 1.26157 11.9245 1.38296C11.8742 1.50436 11.8005 1.61466 11.7076 1.70757Z" fill="white"/>
</svg>
