<?xml version="1.0" encoding="UTF-8"?>
<svg width="80px" height="20px" viewBox="0 0 80 20" version="1.1" xmlns="http://www.w3.org/2000/svg" xmlns:xlink="http://www.w3.org/1999/xlink">
    <title>cliniko_logo--light</title>
    <g id="Page-1" stroke="none" stroke-width="1" fill="none" fill-rule="evenodd">
        <g id="cliniko_logo--light" transform="translate(0, 0)" fill-rule="nonzero">
            <g id="Group" transform="translate(0, 4.5378)" fill="#949494">
                <path d="M50.7404115,4.42337457 C48.0039506,4.42337457 45.8027984,6.3786009 45.8027984,9.7112758 C45.8027984,16.5902881 55.5341564,16.5797532 55.5341564,9.52559679 C55.5341564,6.50172848 53.6006584,4.42337457 50.7404115,4.42337457 L50.7404115,4.42337457 Z M50.658107,13.4762141 C46.6854321,13.4762141 46.5958848,5.78139926 50.6995885,5.78139926 C54.7213169,5.78139926 54.6380247,13.4762141 50.658107,13.4762141 Z M11.6385185,11.8854322 L11.2200823,11.5091359 C10.9902881,11.3721812 10.7206584,11.4031277 10.4826337,11.5881482 C9.4436214,12.3957202 8.50469136,12.9873252 6.94288066,12.9873252 C4.10897119,12.9873252 1.80312757,10.6120165 1.80312757,7.69283959 C1.80312757,4.76279843 4.10897119,2.3786009 6.94288066,2.3786009 C8.14650206,2.3786009 9.46469136,2.89744864 10.4559671,3.75407415 C10.6870782,3.98518527 10.9349794,4.02798362 11.1325103,3.93185193 L11.6293004,3.43440337 C11.8571193,3.20724288 11.8804938,2.83094658 11.5963786,2.5494651 C10.149465,1.31522642 8.71539095,0.765102961 6.94617284,0.765102961 C3.11539095,0.765102961 0,3.88082313 0,7.71061736 C0,11.5203293 3.11539095,14.6189301 6.94584362,14.6189301 C8.74798354,14.6189301 10.3756379,13.9822223 11.6293004,12.7466667 C11.8818107,12.4987655 11.8735802,12.0605762 11.6385185,11.8854322 Z M15.0725926,-2.33923534e-15 L14.6162963,-2.33923534e-15 C14.4367215,-2.33923534e-15 14.2645065,0.0713583896 14.1375588,0.198367806 C14.0106111,0.325377223 13.9393365,0.497626963 13.9394238,0.677201726 L13.9394238,13.9311935 C13.9394238,14.304856 14.2423045,14.6077367 14.6162963,14.6077367 L15.0725926,14.6077367 C15.4469136,14.6077367 15.7501235,14.304856 15.7501235,13.9311935 L15.7501235,0.677201726 C15.7501235,0.497539628 15.6787305,0.325240828 15.5516593,0.198231416 C15.4245881,0.0712220042 15.2522547,-2.33923534e-15 15.0725926,-2.33923534e-15 L15.0725926,-2.33923534e-15 Z M19.2302881,4.65020552 L18.7739918,4.65020552 C18.4,4.65020552 18.0971193,4.9530865 18.0971193,5.32707827 L18.0971193,13.9311935 C18.0971193,14.304856 18.4,14.6077367 18.7739918,14.6077367 L19.2302881,14.6077367 C19.6046091,14.6077367 19.9078189,14.304856 19.9078189,13.9311935 L19.9078189,5.32707827 C19.9078189,5.1474464 19.8364155,4.97518139 19.7093349,4.84822424 C19.5822542,4.72126709 19.4099198,4.6500311 19.2302881,4.65020552 Z M34.0684774,4.65020584 L33.6118519,4.65020584 C33.2378601,4.65020584 32.9346502,4.9530865 32.9346502,5.32707827 L32.9346502,13.9311935 C32.9346502,14.304856 33.2378601,14.6077367 33.6118519,14.6077367 L34.0684774,14.6077367 C34.4421399,14.6077367 34.7453498,14.304856 34.7453498,13.9311935 L34.7453498,5.32707827 C34.7453498,4.95325195 34.4423037,4.65020584 34.0684774,4.65020584 Z M41.0604115,8.7058437 C41.1920988,8.57448568 43.803786,5.78864206 43.8156379,5.77547333 C44.2199177,5.31588485 43.8748971,4.62716057 43.2931687,4.65053506 C42.9975309,4.65053506 42.760823,4.61629638 42.5310288,4.83786016 L38.8628807,8.67654329 C38.8628807,-2.33942379 38.8651852,1.52724288 38.8651852,0.677201726 C38.8651852,0.318024771 38.5708642,0.000329298247 38.1883128,0.000329298247 L37.7283951,0.000329298247 C37.3545155,0.000511057902 37.0515226,0.303651333 37.0515226,0.677530944 L37.0515226,13.9311935 C37.0515226,14.304856 37.3547325,14.6077367 37.7283951,14.6077367 L38.1876543,14.6077367 C38.5728395,14.6077367 38.8645267,14.2864198 38.8645267,13.9318519 C38.8645267,13.6167902 38.8622222,15.0515227 38.8622222,10.8641976 C38.8622222,10.8641976 39.6319342,9.99176963 39.8492181,9.77481489 C42.7433745,10.4431277 43.2220576,12.7390947 43.3066667,13.9242799 C43.2882305,14.1906174 43.5242798,14.6103705 43.9828807,14.6103705 L44.3160494,14.6103705 C44.7144033,14.6103705 45.0149794,14.2660083 44.9909465,13.9114404 C44.898107,12.5550618 44.4730864,9.56378609 41.0604115,8.7058437 L41.0604115,8.7058437 Z M26.66107,4.42337457 C25.3764609,4.42337457 24.3361317,5.12559679 23.8423045,6.0513581 L23.8423045,5.35901243 C23.8534979,4.94320996 23.530535,4.64954741 23.1680658,4.64954741 L22.882963,4.64954741 C22.5112757,4.64954741 22.2064198,4.94913588 22.2064198,5.32641983 C22.2064198,6.19818938 22.206749,2.16790131 22.214321,13.853498 C22.1920843,14.0445473 22.2524189,14.2360081 22.3801708,14.3797919 C22.5079227,14.5235756 22.6909535,14.6060207 22.8832922,14.6064198 L23.3497942,14.6064198 C23.5293352,14.6066823 23.701603,14.5354986 23.8285887,14.4085747 C23.9555743,14.2816508 24.0268418,14.1094177 24.0266667,13.9298766 C24.0266667,13.46107 24.0246914,15.670782 24.0246914,9.07588485 C24.0246914,6.81876551 25.4034568,5.90452683 26.5761317,5.90452683 C28.2841152,5.90452683 28.8806584,7.26255152 28.8806584,8.86683136 C28.8806584,15.761317 28.8790123,13.435391 28.8790123,13.9305351 C28.8790123,14.310782 29.1871605,14.6070783 29.5555556,14.6070783 L30.0144856,14.6070783 C30.3881481,14.6070783 30.691358,14.3041976 30.691358,13.9305351 L30.691358,8.66139926 C30.6906996,5.24641983 28.4434568,4.42337457 26.66107,4.42337457 L26.66107,4.42337457 Z M19.0024691,0.720329298 C17.49893,0.720329298 17.5038683,2.96296304 18.9609877,2.96296304 C20.5185185,2.96296304 20.461893,0.720329298 19.0024691,0.720329298 Z M33.84,0.720329298 C32.3279012,0.720329298 32.3499588,2.96296304 33.7988477,2.96296304 C35.3557202,2.96296304 35.3000823,0.720329298 33.84,0.720329298 Z" id="Shape"></path>
            </g>
            <path d="M61.5496296,18.4475568 L61.5496296,18.4528243 C61.5499355,18.448094 61.5503746,18.4433734 61.5509465,18.4386679 L61.5496296,18.4475568 L61.5496296,18.4475568 Z" id="Path" fill="#03ABD5"></path>
            <path d="M67.5206584,7.96821522 C67.4298853,7.89170976 67.3873308,7.7722593 67.4092862,7.65559397 C67.4312417,7.53892863 67.5143066,7.44311874 67.6266804,7.40484391 C67.7390543,7.36656908 67.8633315,7.39175771 67.9519342,7.47076666 C68.5346502,7.9751288 69.3017284,7.92442921 69.8106996,7.47307118 C69.9468844,7.35252311 70.1550075,7.36519916 70.2755556,7.50138394 C70.3961036,7.63756872 70.3834276,7.84569183 70.2472428,7.96623991 C69.494321,8.63389423 68.3542387,8.6915074 67.5206584,7.96821522 L67.5206584,7.96821522 Z" id="Path" fill="#949494"></path>
            <path d="M63.4544856,1.58928518 C63.5512757,1.48986131 63.5005761,1.3769395 63.7060082,1.21134279 C64.3473251,0.694141143 66.5017284,0.75372962 66.7163786,1.51554032 C66.77893,1.73842098 66.8480658,1.61990246 67.9387654,1.87109588 C68.002963,1.88591069 68.2241975,1.96459382 68.2426337,1.85562262 C68.2558025,1.77661028 68.0082305,1.45891481 67.9585185,1.39669258 C66.5349794,-0.388657211 63.8251852,-0.487422643 62.280823,1.24492304 C62.2090535,1.32525225 61.762963,1.81019053 61.9140741,1.89183662 C62.0082305,1.94286542 62.077037,1.87537571 63.2796708,1.67422345 C63.3544033,1.66105472 63.411358,1.63372962 63.4544856,1.58928518 L63.4544856,1.58928518 Z" id="Path" fill="#63CFE3"></path>
            <path d="M65.1015638,2.98056163 C65.5460082,2.98154855 66.1135802,1.98401769 66.087572,1.79899711 C66.0098765,1.2442646 64.1833745,1.23471727 64.1455144,1.79768024 C64.1330041,1.98204238 64.6597531,2.97990246 65.1015638,2.98056163 Z" id="Path" fill="#949494"></path>
            <path d="M68.6423045,2.73265966 C68.6018107,2.59142509 68.5777778,2.5443469 68.4342387,2.49298888 C68.2939918,2.44294773 67.7534156,2.27241275 66.9471605,2.18747448 C66.7400823,2.16574608 66.5632922,2.10089011 66.4372016,2.29019053 C66.309465,2.48212468 66.1985185,2.67998476 66.0526749,2.86072551 C65.3102881,3.78089011 64.7384362,3.85068435 63.8699588,2.43208353 C63.6144856,2.01496419 63.2204115,2.17298888 62.8092181,2.24706295 C62.531358,2.29710411 61.7102881,2.48903826 61.6042798,2.55093127 C61.4716049,2.6279683 61.4327572,2.84689834 61.3902881,3.09743332 C61.1093626,4.74352685 61.9614095,6.3747534 63.4729218,7.08459382 C63.5651029,7.12805061 63.7040329,7.17051974 63.6852675,7.29726872 C63.6582716,7.47965555 63.302716,7.60442921 63.1611523,7.67586954 C61.9255967,8.30105472 60.7236214,9.31570493 59.7738272,10.684923 C58.1784362,12.9848407 57.6526749,15.6399848 57.5315226,18.4472276 C57.5213944,18.6311558 57.5873693,18.8111521 57.7139615,18.9449676 C57.8405538,19.078783 58.0166162,19.1547173 58.200823,19.1547173 L59.6958025,19.1547173 C60.0158025,19.1547173 60.2818107,18.930849 60.3506173,18.6325774 C60.5122634,17.0750465 60.8569547,15.2814662 61.5568724,13.8816309 C62.6577778,11.6801494 64.3074897,10.1298613 65.9074897,9.35751563 C66.2103704,9.21134279 66.5659259,9.09940863 66.2778601,8.73825637 C64.5784362,6.60755678 65.9111111,3.73051974 68.32,3.37364732 C68.7193416,3.31471727 68.8026337,3.29134279 68.6423045,2.73265966 L68.6423045,2.73265966 Z" id="Path" fill="#63CFE3"></path>
            <path d="M75.2451029,8.90352386 C75.1417284,8.83175431 74.962963,8.74516995 74.9590123,8.61809176 C74.9553909,8.49858559 75.130535,8.44327695 75.2246914,8.38500534 C78.0921811,6.60525225 76.7914403,2.21249505 73.4693004,2.21249505 C72.5813992,2.21249505 71.73893,2.58944979 71.2131687,3.09578723 C71.0337449,3.26862674 70.5165432,3.7061576 70.7644444,3.98105472 C70.8576132,4.08442921 70.9935802,4.16311234 71.0953086,4.26089011 C71.7393708,4.88100136 72.1033118,5.73653601 72.1033745,6.63060205 C72.1033745,7.31833867 71.8959671,7.88163085 71.5446914,8.46698065 C71.4301235,8.65759793 71.2111934,8.82879135 71.4367078,9.02072551 C71.9193416,9.43126048 73.9417284,10.4123304 75.5041975,12.8959518 C76.3078189,14.1729889 76.9451852,15.7107667 77.2500412,18.4979272 C77.2500412,18.8271453 77.5338272,19.1540588 77.9206584,19.1540588 L79.3316872,19.1540588 C79.6882305,19.1540588 79.9769547,18.8755403 80,18.5255815 C79.917037,14.8185856 78.283786,11.0085444 75.2451029,8.90352386 L75.2451029,8.90352386 Z" id="Path" fill="#00C1DE"></path>
            <path d="M68.9484774,17.4483798 C68.9425514,17.4510136 68.9379424,17.4549642 68.9316872,17.4572687 C68.9376132,17.454635 68.941893,17.4510136 68.9484774,17.4483798 Z" id="Path" fill="#03ABD5"></path>
            <path d="M76.0260082,18.4975979 C75.9117695,17.5580095 75.7662551,16.7181741 75.4712757,15.7700259 C74.7822222,13.5530712 73.4103704,11.3407255 71.3106173,10.3751288 C70.8938272,10.1835239 69.6322634,9.74335925 69.3474897,10.0712605 C69.1904527,10.2523304 69.2592593,10.527886 69.3794239,11.7545527 C69.7626337,15.6715897 69.8139918,16.0755403 69.8149794,16.2628654 C69.817284,16.6223716 69.1025514,17.2877214 68.9636214,17.4144704 C68.8622222,17.5224539 68.6521811,17.5221247 68.5415638,17.4022893 C68.4312757,17.2831123 67.7069959,16.6029477 67.7063374,16.269779 C67.7050206,15.4770218 68.2653498,10.5018778 68.2679835,10.3326597 C68.2778601,9.71636337 67.5407407,9.96294773 67.2111934,10.0363634 C64.6031276,10.6167749 62.8506996,13.201137 62.0533333,15.7723304 C61.7395885,16.7836885 61.5259259,18.0574333 61.5045267,18.4524951 C61.4958059,18.6355946 61.5623421,18.8142962 61.6886863,18.9471068 C61.8150305,19.0799174 61.9901913,19.1552832 62.1734979,19.1557049 L75.357037,19.1557049 C75.7336626,19.1553757 76.0260082,18.8432769 76.0260082,18.4975979 L76.0260082,18.4975979 Z" id="Path" fill="#949494"></path>
        </g>
    </g>
</svg>