<svg width="154" height="68" viewBox="0 0 154 68" fill="none" xmlns="http://www.w3.org/2000/svg">
<path d="M152.591 13.1658L142.398 23.4139C142.16 23.653 141.857 23.8159 141.528 23.8819C141.198 23.9479 140.856 23.9141 140.545 23.7847C140.235 23.6553 139.969 23.4362 139.783 23.1551C139.596 22.874 139.497 22.5435 139.497 22.2055V13.6654L22.0864 13.5038C17.1316 13.5095 12.3814 15.4908 8.87784 19.013C5.37429 22.5352 3.40353 27.3108 3.39791 32.2919C3.39791 32.7449 3.21891 33.1794 2.90029 33.4997C2.58168 33.82 2.14954 34 1.69895 34C1.24836 34 0.816227 33.82 0.497612 33.4997C0.178996 33.1794 0 32.7449 0 32.2919C0.0061838 26.4049 2.33512 20.7609 6.47578 16.5981C10.6164 12.4354 16.2306 10.094 22.0864 10.0878L139.497 10.2494V1.70935C139.497 1.37135 139.596 1.04086 139.783 0.759732C139.969 0.478604 140.235 0.259476 140.545 0.130091C140.856 0.000704557 141.198 -0.0331219 141.528 0.0328933C141.857 0.0989086 142.16 0.261797 142.398 0.500938L152.591 10.749C152.749 10.9076 152.875 11.096 152.96 11.3033C153.046 11.5107 153.09 11.733 153.09 11.9574C153.09 12.1819 153.046 12.4041 152.96 12.6115C152.875 12.8188 152.749 13.0072 152.591 13.1658Z" fill="#B8B8B8"/>
<path d="M0.498383 54.8342L10.6921 44.5861C10.9297 44.347 11.2325 44.1841 11.5623 44.1181C11.892 44.0521 12.2339 44.0859 12.5445 44.2153C12.8551 44.3447 13.1205 44.5638 13.3072 44.8449C13.4938 45.126 13.5933 45.4565 13.5931 45.7945V54.3346L131.003 54.4962C135.958 54.4905 140.708 52.5092 144.212 48.987C147.716 45.4648 149.686 40.6892 149.692 35.7081C149.692 35.2551 149.871 34.8206 150.19 34.5003C150.508 34.18 150.94 34 151.391 34C151.841 34 152.274 34.18 152.592 34.5003C152.911 34.8206 153.09 35.2551 153.09 35.7081C153.084 41.5951 150.755 47.2391 146.614 51.4019C142.473 55.5646 136.859 57.906 131.003 57.9122L13.5931 57.7506V66.2906C13.5933 66.6287 13.4938 66.9591 13.3072 67.2403C13.1205 67.5214 12.8551 67.7405 12.5445 67.8699C12.2339 67.9993 11.892 68.0331 11.5623 67.9671C11.2325 67.9011 10.9297 67.7382 10.6921 67.4991L0.498383 57.251C0.340424 57.0924 0.215103 56.904 0.129608 56.6967C0.0441132 56.4893 0.00012207 56.267 0.00012207 56.0426C0.00012207 55.8181 0.0441132 55.5959 0.129608 55.3885C0.215103 55.1812 0.340424 54.9928 0.498383 54.8342Z" fill="#B8B8B8"/>
</svg>
