<svg width="24" height="24" viewBox="0 0 24 24" fill="none" xmlns="http://www.w3.org/2000/svg">
<path d="M24 1.99999V7.99999C24 8.2652 23.8946 8.51956 23.7071 8.70709C23.5196 8.89463 23.2652 8.99999 23 8.99999H17C16.8021 9.00014 16.6086 8.94158 16.444 8.83171C16.2794 8.72184 16.1511 8.5656 16.0754 8.38278C15.9996 8.19995 15.9798 7.99876 16.0185 7.80468C16.0571 7.6106 16.1525 7.43234 16.2925 7.29249L18.5812 4.99999C16.7401 3.23591 14.2911 2.24728 11.7413 2.23874H11.685C9.07219 2.23361 6.56242 3.25746 4.69875 5.08874C4.50778 5.26701 4.25462 5.36347 3.99343 5.35748C3.73225 5.35149 3.48378 5.24352 3.30118 5.05668C3.11858 4.86983 3.01635 4.61895 3.01636 4.35769C3.01638 4.09644 3.11863 3.84556 3.30125 3.65874C5.53047 1.48071 8.51962 0.255412 11.6362 0.242114C14.7528 0.228816 17.7523 1.42856 20 3.58749L22.295 1.29249C22.435 1.15333 22.613 1.05872 22.8067 1.02056C23.0003 0.982399 23.201 1.0024 23.3833 1.07806C23.5656 1.15371 23.7214 1.28162 23.8312 1.44568C23.9409 1.60974 23.9997 1.8026 24 1.99999ZM19.3013 18.9112C17.4489 20.7204 14.9671 21.7406 12.3779 21.7571C9.78872 21.7737 7.29404 20.7853 5.41875 19L7.7075 16.7112C7.84881 16.5716 7.94532 16.393 7.98471 16.1983C8.02411 16.0036 8.00461 15.8015 7.9287 15.6179C7.8528 15.4343 7.72392 15.2775 7.55852 15.1674C7.39311 15.0574 7.19867 14.9991 7 15H1C0.734784 15 0.48043 15.1053 0.292894 15.2929C0.105357 15.4804 3.09801e-07 15.7348 3.09801e-07 16V22C-0.000155428 22.1979 0.0584092 22.3914 0.16828 22.556C0.278151 22.7206 0.434387 22.8489 0.61721 22.9246C0.800033 23.0004 1.00122 23.0202 1.19531 22.9815C1.38939 22.9429 1.56764 22.8475 1.7075 22.7075L4 20.4125C6.21525 22.5504 9.17136 23.749 12.25 23.7575H12.3162C15.4514 23.7656 18.4634 22.5382 20.7 20.3412C20.8826 20.1544 20.9849 19.9035 20.9849 19.6423C20.9849 19.381 20.8827 19.1301 20.7001 18.9433C20.5175 18.7564 20.269 18.6485 20.0078 18.6425C19.7466 18.6365 19.4935 18.733 19.3025 18.9112H19.3013Z" fill="black"/>
</svg>
