<svg width="26" height="28" viewBox="0 0 26 28" fill="none" xmlns="http://www.w3.org/2000/svg">
<path d="M24.96 6.26874L13.96 0.249992C13.6661 0.0875948 13.3358 0.00241089 13 0.00241089C12.6642 0.00241089 12.3339 0.0875948 12.04 0.249992L1.04 6.27124C0.725861 6.44312 0.463629 6.69619 0.28069 7.00402C0.0977502 7.31185 0.000812822 7.66316 0 8.02124V19.9762C0.000812822 20.3343 0.0977502 20.6856 0.28069 20.9935C0.463629 21.3013 0.725861 21.5544 1.04 21.7262L12.04 27.7475C12.3339 27.9099 12.6642 27.9951 13 27.9951C13.3358 27.9951 13.6661 27.9099 13.96 27.7475L24.96 21.7262C25.2741 21.5544 25.5364 21.3013 25.7193 20.9935C25.9023 20.6856 25.9992 20.3343 26 19.9762V8.02249C25.9999 7.66377 25.9032 7.31169 25.7203 7.00314C25.5373 6.69459 25.2747 6.44093 24.96 6.26874ZM13 1.99999L23.0438 7.49999L19.3213 9.53624L9.2775 4.03624L13 1.99999ZM13 13L2.95625 7.49999L7.195 5.17874L17.2388 10.6787L13 13ZM24 19.9812L14 25.455V14.7287L18 12.54V17C18 17.2652 18.1054 17.5196 18.2929 17.7071C18.4804 17.8946 18.7348 18 19 18C19.2652 18 19.5196 17.8946 19.7071 17.7071C19.8946 17.5196 20 17.2652 20 17V11.445L24 9.25624V19.9762V19.9812Z" fill="black"/>
</svg>
