<svg width="28" height="26" viewBox="0 0 28 26" fill="none" xmlns="http://www.w3.org/2000/svg">
<path d="M27.7427 10.4012C27.7149 10.2604 27.657 10.1272 27.5731 10.0108C27.4892 9.8943 27.3812 9.79726 27.2565 9.72624L23.5277 7.60124L23.5127 3.39874C23.5123 3.254 23.4804 3.11109 23.4193 2.97988C23.3583 2.84866 23.2694 2.73227 23.159 2.63874C21.8064 1.49461 20.2488 0.617819 18.569 0.0549863C18.4367 0.0102111 18.2965 -0.00635903 18.1574 0.00634318C18.0184 0.0190454 17.8835 0.0607383 17.7615 0.128736L14.0002 2.23124L10.2352 0.124986C10.1132 0.0566053 9.97813 0.0145975 9.83882 0.00167852C9.69951 -0.0112405 9.55904 0.00521665 9.42649 0.0499862C7.7477 0.616433 6.19179 1.49662 4.84149 2.64374C4.7312 2.73713 4.64246 2.85333 4.58139 2.98431C4.52032 3.1153 4.48837 3.25796 4.48774 3.40249L4.46899 7.60874L0.740238 9.73374C0.61549 9.80476 0.507494 9.9018 0.42359 10.0183C0.339686 10.1347 0.281842 10.2679 0.253988 10.4087C-0.0872668 12.1236 -0.0872668 13.8889 0.253988 15.6037C0.281842 15.7446 0.339686 15.8777 0.42359 15.9942C0.507494 16.1107 0.61549 16.2077 0.740238 16.2787L4.46899 18.4037L4.48399 22.6075C4.48444 22.7522 4.51631 22.8951 4.57738 23.0263C4.63846 23.1576 4.72729 23.274 4.83774 23.3675C6.19033 24.5116 7.74793 25.3884 9.42774 25.9512C9.56002 25.996 9.70022 26.0126 9.8393 25.9999C9.97838 25.9872 10.1133 25.9455 10.2352 25.8775L14.0002 23.7687L17.7652 25.875C17.9142 25.958 18.0822 26.0011 18.2527 26C18.362 25.9999 18.4704 25.9822 18.574 25.9475C20.2524 25.3813 21.8082 24.502 23.159 23.3562C23.2693 23.2628 23.358 23.1466 23.4191 23.0157C23.4802 22.8847 23.5121 22.742 23.5127 22.5975L23.5315 18.3912L27.2602 16.2662C27.385 16.1952 27.493 16.0982 27.5769 15.9817C27.6608 15.8652 27.7186 15.7321 27.7465 15.5912C28.0858 13.8778 28.0846 12.1142 27.7427 10.4012ZM14.0002 18C13.0113 18 12.0446 17.7067 11.2224 17.1573C10.4001 16.6079 9.75928 15.827 9.38084 14.9134C9.0024 13.9998 8.90338 12.9944 9.09631 12.0245C9.28924 11.0546 9.76544 10.1637 10.4647 9.46445C11.164 8.76519 12.0549 8.28899 13.0248 8.09606C13.9947 7.90313 15 8.00215 15.9137 8.38059C16.8273 8.75903 17.6082 9.39989 18.1576 10.2221C18.707 11.0444 19.0002 12.0111 19.0002 13C19.0002 14.3261 18.4735 15.5978 17.5358 16.5355C16.5981 17.4732 15.3263 18 14.0002 18Z" fill="black"/>
</svg>
