<?xml version="1.0" standalone="no"?>
<!DOCTYPE svg PUBLIC "-//W3C//DTD SVG 1.1//EN" "http://www.w3.org/Graphics/SVG/1.1/DTD/svg11.dtd">
<svg xmlns="http://www.w3.org/2000/svg" id="Layer_1" viewBox="0 0 432 432" width="432" height="432"><defs><style>.cls-1{fill:#231f20;}</style></defs><path class="cls-1" d="m286.36,121.99h-138.22v24.01h138.22c6.69,0,12.02-5.31,12.02-12.01s-5.33-12-12.02-12"/><path class="cls-1" d="m148.14,194.05h68.3c23.48,0,44.77-9.2,60.33-24.04h-128.63v24.04"/><path class="cls-1" d="m148.21,85.96c0,6.69,5.29,12,11.96,12h141.63c-1.28-8.48-3.83-16.54-7.51-24.01h-134.11c-6.67,0-11.96,5.31-11.96,12.01"/><path class="cls-1" d="m216.44,26.18h-68.3v23.75h128.36c-15.54-14.68-36.73-23.75-60.06-23.75"/><path class="cls-1" d="m22.6,268.12h11.1c9.14,0,14.23,4.36,14.56,16.07v14.24c-.33,11.72-5.42,16.06-14.56,16.06h-11.1v-46.37m7.97,38.54h2.77c4.4,0,6.94-2.29,6.94-9.24v-12.22c0-6.52-1.96-9.23-6.94-9.23h-2.77v30.69Z"/><rect class="cls-1" x="76.79" y="268.12" width="7.99" height="46.37"/><path class="cls-1" d="m131.63,281.04c-1.34-4.37-3.05-6.26-5.84-6.26s-4.4,1.95-4.4,5.09c0,7,17.81,7.53,17.81,22.06,0,7.96-4.91,13.21-13.28,13.21-6.5,0-11.52-3.91-13.66-13.03l7.86-1.87c.93,5.59,3.81,7.58,6.18,7.58,2.77,0,4.92-2.06,4.92-5.52,0-8.76-17.8-8.89-17.8-21.84,0-7.99,4.27-12.99,12.54-12.99,7.11,0,11.44,4.7,12.84,11.25l-7.17,2.31"/><path class="cls-1" d="m175.02,300.77c0,5.12,2.02,6.54,5.19,6.54s5.21-1.41,5.21-6.54v-3.1h7.98v1.94c0,11.43-5.45,15.54-13.2,15.54s-13.18-4.11-13.18-15.54v-16.57c0-11.43,5.45-15.56,13.18-15.56s13.2,4.12,13.2,15.56v.12h-7.98v-1.29c0-5.12-2.03-6.54-5.21-6.54s-5.19,1.42-5.19,6.54v18.91"/><path class="cls-1" d="m220.78,283.03c0-11.43,5.43-15.56,13.18-15.56s13.19,4.12,13.19,15.56v16.57c0,11.43-5.44,15.54-13.19,15.54s-13.18-4.11-13.18-15.54v-16.57m7.97,17.74c0,5.12,2.03,6.54,5.2,6.54s5.22-1.41,5.22-6.54v-18.91c0-5.12-2.04-6.54-5.22-6.54s-5.2,1.42-5.2,6.54v18.91Z"/><polyline class="cls-1" points="272.49 268.12 280.35 268.12 287.7 301.27 287.81 301.27 295.09 268.12 302.91 268.12 292.28 314.5 283.19 314.5 272.49 268.12"/><polyline class="cls-1" points="328.95 314.5 328.95 268.12 350.81 268.12 350.81 275.97 336.93 275.97 336.93 286.63 347.51 286.63 347.51 294.48 336.93 294.48 336.93 306.67 351.39 306.67 351.39 314.5 328.95 314.5"/><path class="cls-1" d="m398.19,314.5l-6.95-18.89h-3.83v18.89h-7.96v-46.37h11.56c9.59,0,14.15,5.14,14.15,13.89,0,5.77-1.85,9.95-6.29,11.81l7.87,20.68h-8.56m-10.78-26.2h4.13c3.52,0,5.66-1.92,5.66-6.43s-2.14-6.42-5.66-6.42h-4.13v12.85Z"/><path class="cls-1" d="m40.97,355.22c-1.33-4.27-3.02-6.12-5.74-6.12s-4.28,1.91-4.28,4.98c0,6.85,17.41,7.36,17.41,21.57,0,7.78-4.8,12.91-13.02,12.91-6.32,0-11.25-3.82-13.34-12.74l7.7-1.82c.9,5.47,3.72,7.41,6.06,7.41,2.69,0,4.78-2.01,4.78-5.4,0-8.57-17.4-8.69-17.4-21.36,0-7.81,4.16-12.7,12.25-12.7,6.96,0,11.2,4.59,12.55,11l-7,2.26"/><polyline class="cls-1" points="99.9 342.58 99.9 350.26 90.79 350.26 90.79 387.93 82.98 387.93 82.98 350.26 73.87 350.26 73.87 342.58 99.9 342.58"/><path class="cls-1" d="m143.95,387.93l-6.78-18.47h-3.73v18.47h-7.81v-45.35h11.31c9.39,0,13.87,5.03,13.87,13.58,0,5.64-1.82,9.73-6.17,11.55l7.7,20.22h-8.39m-10.51-25.62h4.02c3.44,0,5.54-1.88,5.54-6.29s-2.1-6.27-5.54-6.27h-4.02v12.57Z"/><polyline class="cls-1" points="178.19 387.93 178.19 342.58 199.55 342.58 199.55 350.26 185.98 350.26 185.98 360.68 196.34 360.68 196.34 368.36 185.98 368.36 185.98 380.27 200.14 380.27 200.14 387.93 178.19 387.93"/><polyline class="cls-1" points="228.01 387.93 228.01 342.58 236.54 342.58 247.41 369.46 247.52 369.46 247.52 342.58 254.65 342.58 254.65 387.93 247.17 387.93 235.26 358.67 235.14 358.67 235.14 387.93 228.01 387.93"/><path class="cls-1" d="m305,384.43c-2.27,3.01-6.62,4.13-9.56,4.13-7.59,0-12.92-4.01-12.92-15.19v-16.21c0-11.18,5.33-15.21,12.92-15.21,7.96,0,12.27,5.08,12.53,15.4h-7.81c0-5.85-1.92-7.73-4.72-7.73-3.12,0-5.1,1.39-5.1,6.4v18.49c0,5.01,1.98,6.39,5.1,6.39,2.94,0,4.72-2.36,4.72-6.27v-2.77h-5.47v-7.15h13.28v10.01c0,2.47-.71,6.67-2.97,9.7"/><polyline class="cls-1" points="356.94 342.58 356.94 350.26 347.86 350.26 347.86 387.93 340.03 387.93 340.03 350.26 330.93 350.26 330.93 342.58 356.94 342.58"/><polyline class="cls-1" points="380.71 387.93 380.71 342.58 388.49 342.58 388.49 360.68 399.53 360.68 399.53 342.58 407.34 342.58 407.34 387.93 399.53 387.93 399.53 368.36 388.49 368.36 388.49 387.93 380.71 387.93"/></svg>