<svg xmlns="http://www.w3.org/2000/svg" viewBox="0 0 1120 200" width="1120" height="200">
  <defs>
    <marker id="arrowhead" markerWidth="10" markerHeight="7" refX="10" refY="3.5" orient="auto">
      <polygon points="0 0, 10 3.5, 0 7" fill="#1ab759"/>
    </marker>
  </defs>

  <!-- Step 01 Card -->
  <rect x="20" y="40" width="210" height="140" rx="12" ry="12" fill="rgba(255,255,255,0.03)" stroke="rgba(255,255,255,0.07)" stroke-width="1"/>
  <!-- Step number -->
  <text x="125" y="30" text-anchor="middle" font-family="'Inter', sans-serif" font-size="13" font-weight="700" fill="#1ab759">01</text>
  <!-- Icon circle -->
  <circle cx="125" cy="90" r="24" fill="rgba(26,183,89,0.12)"/>
  <!-- Person/architect icon -->
  <circle cx="125" cy="83" r="6" fill="none" stroke="#1ab759" stroke-width="1.8"/>
  <path d="M113 101 C113 93, 125 89, 125 89 C125 89, 137 93, 137 101" fill="none" stroke="#1ab759" stroke-width="1.8" stroke-linecap="round"/>
  <!-- Title -->
  <text x="125" y="134" text-anchor="middle" font-family="'Inter', sans-serif" font-size="14" font-weight="600" fill="#f7f8f8">Assign Architect</text>
  <!-- Subtitle -->
  <text x="125" y="154" text-anchor="middle" font-family="'Inter', sans-serif" font-size="11" fill="#94a3b8">Your workflow expert</text>

  <!-- Arrow 1→2 -->
  <line x1="234" y1="110" x2="286" y2="110" stroke="#1ab759" stroke-width="2" marker-end="url(#arrowhead)"/>

  <!-- Step 02 Card -->
  <rect x="290" y="40" width="210" height="140" rx="12" ry="12" fill="rgba(255,255,255,0.03)" stroke="rgba(255,255,255,0.07)" stroke-width="1"/>
  <!-- Step number -->
  <text x="395" y="30" text-anchor="middle" font-family="'Inter', sans-serif" font-size="13" font-weight="700" fill="#1ab759">02</text>
  <!-- Icon circle -->
  <circle cx="395" cy="90" r="24" fill="rgba(26,183,89,0.12)"/>
  <!-- Brain/AI icon with sparkle -->
  <path d="M385 94 C385 94, 383 88, 387 84 C391 80, 395 82, 395 82 C395 82, 399 80, 403 84 C407 88, 405 94, 405 94" fill="none" stroke="#1ab759" stroke-width="1.8" stroke-linecap="round" stroke-linejoin="round"/>
  <path d="M385 94 C382 94, 381 90, 383 87" fill="none" stroke="#1ab759" stroke-width="1.5" stroke-linecap="round"/>
  <path d="M405 94 C408 94, 409 90, 407 87" fill="none" stroke="#1ab759" stroke-width="1.5" stroke-linecap="round"/>
  <line x1="389" y1="88" x2="401" y2="88" stroke="#1ab759" stroke-width="1.2" stroke-linecap="round"/>
  <line x1="388" y1="92" x2="402" y2="92" stroke="#1ab759" stroke-width="1.2" stroke-linecap="round"/>
  <!-- Sparkle -->
  <path d="M410 76 L411 79 L414 80 L411 81 L410 84 L409 81 L406 80 L409 79 Z" fill="#1ab759"/>
  <!-- Title -->
  <text x="395" y="134" text-anchor="middle" font-family="'Inter', sans-serif" font-size="14" font-weight="600" fill="#f7f8f8">AI Builds Connectors</text>
  <!-- Subtitle -->
  <text x="395" y="154" text-anchor="middle" font-family="'Inter', sans-serif" font-size="11" fill="#94a3b8">Reads API docs automatically</text>

  <!-- Arrow 2→3 -->
  <line x1="504" y1="110" x2="556" y2="110" stroke="#1ab759" stroke-width="2" marker-end="url(#arrowhead)"/>

  <!-- Step 03 Card -->
  <rect x="560" y="40" width="210" height="140" rx="12" ry="12" fill="rgba(255,255,255,0.03)" stroke="rgba(255,255,255,0.07)" stroke-width="1"/>
  <!-- Step number -->
  <text x="665" y="30" text-anchor="middle" font-family="'Inter', sans-serif" font-size="13" font-weight="700" fill="#1ab759">03</text>
  <!-- Icon circle -->
  <circle cx="665" cy="90" r="24" fill="rgba(26,183,89,0.12)"/>
  <!-- Gear/settings icon -->
  <circle cx="665" cy="90" r="7" fill="none" stroke="#1ab759" stroke-width="1.8"/>
  <line x1="665" y1="79" x2="665" y2="82" stroke="#1ab759" stroke-width="2.2" stroke-linecap="round"/>
  <line x1="665" y1="98" x2="665" y2="101" stroke="#1ab759" stroke-width="2.2" stroke-linecap="round"/>
  <line x1="654" y1="90" x2="657" y2="90" stroke="#1ab759" stroke-width="2.2" stroke-linecap="round"/>
  <line x1="673" y1="90" x2="676" y2="90" stroke="#1ab759" stroke-width="2.2" stroke-linecap="round"/>
  <line x1="657.2" y1="82.2" x2="659.3" y2="84.3" stroke="#1ab759" stroke-width="2.2" stroke-linecap="round"/>
  <line x1="670.7" y1="95.7" x2="672.8" y2="97.8" stroke="#1ab759" stroke-width="2.2" stroke-linecap="round"/>
  <line x1="672.8" y1="82.2" x2="670.7" y2="84.3" stroke="#1ab759" stroke-width="2.2" stroke-linecap="round"/>
  <line x1="659.3" y1="95.7" x2="657.2" y2="97.8" stroke="#1ab759" stroke-width="2.2" stroke-linecap="round"/>
  <!-- Title -->
  <text x="665" y="134" text-anchor="middle" font-family="'Inter', sans-serif" font-size="14" font-weight="600" fill="#f7f8f8">Configure per Customer</text>
  <!-- Subtitle -->
  <text x="665" y="154" text-anchor="middle" font-family="'Inter', sans-serif" font-size="11" fill="#94a3b8">Per-location settings</text>

  <!-- Arrow 3→4 -->
  <line x1="774" y1="110" x2="826" y2="110" stroke="#1ab759" stroke-width="2" marker-end="url(#arrowhead)"/>

  <!-- Step 04 Card -->
  <rect x="830" y="40" width="210" height="140" rx="12" ry="12" fill="rgba(255,255,255,0.03)" stroke="rgba(255,255,255,0.07)" stroke-width="1"/>
  <!-- Step number -->
  <text x="935" y="30" text-anchor="middle" font-family="'Inter', sans-serif" font-size="13" font-weight="700" fill="#1ab759">04</text>
  <!-- Icon circle -->
  <circle cx="935" cy="90" r="24" fill="rgba(26,183,89,0.12)"/>
  <!-- Rocket/launch icon -->
  <path d="M930 98 L935 80 L940 98" fill="none" stroke="#1ab759" stroke-width="1.8" stroke-linecap="round" stroke-linejoin="round"/>
  <path d="M931 95 L935 98 L939 95" fill="none" stroke="#1ab759" stroke-width="1.5" stroke-linecap="round" stroke-linejoin="round"/>
  <circle cx="935" cy="89" r="2.5" fill="none" stroke="#1ab759" stroke-width="1.5"/>
  <!-- Exhaust lines -->
  <line x1="933" y1="100" x2="932" y2="103" stroke="#1ab759" stroke-width="1.2" stroke-linecap="round" opacity="0.7"/>
  <line x1="935" y1="101" x2="935" y2="104" stroke="#1ab759" stroke-width="1.2" stroke-linecap="round" opacity="0.7"/>
  <line x1="937" y1="100" x2="938" y2="103" stroke="#1ab759" stroke-width="1.2" stroke-linecap="round" opacity="0.7"/>
  <!-- Title -->
  <text x="935" y="134" text-anchor="middle" font-family="'Inter', sans-serif" font-size="14" font-weight="600" fill="#f7f8f8">Embed &amp; Go Live</text>
  <!-- Subtitle -->
  <text x="935" y="154" text-anchor="middle" font-family="'Inter', sans-serif" font-size="11" fill="#94a3b8">White-label ready</text>
</svg>