<svg xmlns="http://www.w3.org/2000/svg" viewBox="0 0 48 48" fill="none" stroke="#1ab759" stroke-width="2" stroke-linecap="round" stroke-linejoin="round">
  <!-- Form/document outline -->
  <rect x="8" y="4" width="28" height="40" rx="3" ry="3"/>
  <!-- Form field lines -->
  <line x1="13" y1="13" x2="31" y2="13"/>
  <line x1="13" y1="19" x2="31" y2="19"/>
  <line x1="13" y1="25" x2="25" y2="25"/>
  <!-- Checkbox squares -->
  <rect x="13" y="30" width="4" height="4" rx="0.5"/>
  <line x1="14" y1="32.5" x2="15.5" y2="34" stroke-width="1.5"/>
  <line x1="15.5" y1="34" x2="18" y2="30.5" stroke-width="1.5"/>
  <rect x="13" y="36" width="4" height="4" rx="0.5"/>
  <!-- Checkbox labels -->
  <line x1="20" y1="32" x2="31" y2="32"/>
  <line x1="20" y1="38" x2="28" y2="38"/>
  <!-- AI Sparkle in top-right corner -->
  <path d="M38 6 L38 14" stroke-width="1.5"/>
  <path d="M34 10 L42 10" stroke-width="1.5"/>
  <path d="M35 7 L41 13" stroke-width="1.5"/>
  <path d="M41 7 L35 13" stroke-width="1.5"/>
  <!-- Small sparkle -->
  <path d="M41 2 L41 5" stroke-width="1"/>
  <path d="M39.5 3.5 L42.5 3.5" stroke-width="1"/>
</svg>