<svg xmlns="http://www.w3.org/2000/svg" viewBox="0 0 48 48" fill="none" stroke="#1ab759" stroke-width="2" stroke-linecap="round" stroke-linejoin="round">
  <!-- Dashboard grid layout -->
  <!-- Top-left large block -->
  <rect x="4" y="4" width="18" height="16" rx="2" ry="2"/>
  <!-- Top-right tall block -->
  <rect x="26" y="4" width="14" height="24" rx="2" ry="2"/>
  <!-- Bottom-left wide block -->
  <rect x="4" y="24" width="18" height="10" rx="2" ry="2"/>
  <!-- Bottom-right small block -->
  <rect x="26" y="32" width="14" height="10" rx="2" ry="2"/>
  <!-- Bottom-left small block -->
  <rect x="4" y="38" width="18" height="6" rx="2" ry="2"/>
  <!-- Wrench overlay in corner -->
  <path d="M40 40 C39 38.5 36.5 38.5 35.5 39.5 L33 42" stroke-width="2"/>
  <path d="M33 42 L35 44" stroke-width="2"/>
  <path d="M35 44 L37.5 41.5 C38.5 40.5 38.5 38 40 37" stroke-width="2"/>
  <circle cx="39.5" cy="38" r="1" fill="#1ab759" stroke="none"/>
  <!-- Wrench alternative: simple wrench shape -->
  <path d="M43 35 C42 33 39.5 33 38.5 34.5 L34.5 41 L36.5 43 L42.5 39 C44 38 44 35.5 43 35Z" fill="none"/>
</svg>