<svg xmlns="http://www.w3.org/2000/svg" viewBox="0 0 48 48" fill="none" stroke="#1ab759" stroke-width="2" stroke-linecap="round" stroke-linejoin="round">
  <!-- Server body -->
  <rect x="8" y="6" width="22" height="28" rx="3" ry="3"/>
  <!-- Server section dividers -->
  <line x1="8" y1="15" x2="30" y2="15"/>
  <line x1="8" y1="24" x2="30" y2="24"/>
  <!-- Status dots - top section -->
  <circle cx="26" cy="10.5" r="1.2" fill="#1ab759" stroke="none"/>
  <!-- Status dots - middle section -->
  <circle cx="26" cy="19.5" r="1.2" fill="#1ab759" stroke="none"/>
  <!-- Status dots - bottom section -->
  <circle cx="26" cy="28.5" r="1.2" fill="#1ab759" stroke="none"/>
  <!-- Drive lines - top section -->
  <line x1="12" y1="10.5" x2="21" y2="10.5"/>
  <!-- Drive lines - middle section -->
  <line x1="12" y1="19.5" x2="21" y2="19.5"/>
  <!-- Drive lines - bottom section -->
  <line x1="12" y1="28.5" x2="21" y2="28.5"/>
  <!-- Shield overlapping bottom-right -->
  <path d="M35 22 L42 25 L42 33 C42 37 35 42 35 42 C35 42 28 37 28 33 L28 25 Z" fill="none"/>
  <!-- Shield checkmark -->
  <polyline points="31.5,32 34,35 39,29"/>
</svg>
