<?xml version="1.0" encoding="UTF-8"?>
<svg width="81px" height="23px" viewBox="0 0 81 23" version="1.1" xmlns="http://www.w3.org/2000/svg" xmlns:xlink="http://www.w3.org/1999/xlink">
    <title>HubSpot_Logo</title>
    <g id="Page-1" stroke="none" stroke-width="1" fill="none" fill-rule="evenodd">
        <g id="HubSpot_Logo" fill-rule="nonzero">
            <path d="M8.77245283,4 L8.77245283,10.4199426 L2.82277358,10.4199426 L2.82277358,4 L0,4 L0,19.325293 L2.82353774,19.325293 L2.82353774,13.1136672 L8.77168868,13.1136672 L8.77168868,19.325293 L11.5959906,19.325293 L11.5959906,4 L8.77245283,4 Z M20.6336038,14.3719002 C20.6336038,15.6510486 19.5875657,16.6880033 18.2972123,16.6880033 C17.0068589,16.6880033 15.9608208,15.6510486 15.9608208,14.3719002 L15.9608208,7.80727215 L13.2824717,7.80727215 L13.2824717,14.3719002 C13.2824717,17.1146957 15.5254238,19.3381707 18.2922453,19.3381707 C21.0590668,19.3381707 23.3020189,17.1146957 23.3020189,14.3719002 L23.3020189,7.80727215 L20.6336038,7.80727215 L20.6336038,14.3719002 L20.6336038,14.3719002 Z M40.4793679,8.48373335 C40.4793679,7.13762858 41.3772453,6.71114744 42.3607075,6.71114744 C43.1538962,6.71114744 44.200783,7.30958456 44.8862264,8.03528427 L46.6399528,5.98544773 C45.7642358,4.81129894 43.9883491,4 42.5341698,4 C39.6281038,4 37.5266887,5.68698668 37.5266887,8.48373335 C37.5266887,13.6727135 43.9241604,12.0258751 43.9241604,14.930189 C43.9241604,15.8255721 43.0469151,16.6164181 42.0428208,16.6164181 C40.4587358,16.6164181 39.9452264,15.8490551 39.2177547,15.0369986 L37.2706981,17.0436568 C38.5162642,18.5586875 40.0522075,19.3283231 41.8915189,19.3283231 C44.6523962,19.3283231 46.8730189,17.6208835 46.8730189,14.9513994 C46.8730189,9.19125269 40.474783,10.9812615 40.474783,8.48373335 M80.0578019,16.8770034 C78.4752453,16.8770034 78.0251604,16.1982697 78.0251604,15.1589586 L78.0251604,10.5570529 L80.4857264,10.5570529 L80.4857264,8.22542062 L78.0251604,8.22542062 L78.0251604,5.14915079 L75.3093679,6.35738777 L75.3093679,15.7308827 C75.3093679,18.1284188 76.9782736,19.3366558 79.2661415,19.3366558 C79.6252925,19.3427159 79.9844434,19.3139303 80.3374811,19.251814 L81,16.8338251 C80.701217,16.854278 80.3581132,16.8747309 80.0578019,16.8747309 M30.8289057,7.8837812 C29.5023396,7.8837812 28.5761887,8.26556893 27.6806038,9.13595407 L27.6806038,4.09165936 L24.998434,4.09165936 L24.998434,13.4416713 C24.998434,16.9413922 27.5506981,19.3396858 30.4193208,19.3396858 C33.6012453,19.3396858 36.4003302,16.8989714 36.4003302,13.6128698 C36.4003302,10.367674 33.8243774,7.88605374 30.8289057,7.88605374 M30.8120943,16.6633841 C29.7245796,16.6633841 28.7196744,16.08824 28.175917,15.1546029 C27.6321596,14.2209659 27.6321596,13.0706776 28.175917,12.1370405 C28.7196744,11.2034034 29.7245796,10.6282593 30.8120943,10.6282593 C32.4932465,10.6282593 33.8560896,11.979268 33.8560896,13.6458217 C33.8560896,15.3123754 32.4932465,16.6633841 30.8120943,16.6633841 M59.9583396,13.473487 C59.9583396,10.1813253 57.1653679,7.74667092 53.9773302,7.74667092 C51.1094717,7.74667092 48.5564434,10.144207 48.5564434,13.6446854 L48.5564434,23 L51.2386132,23 L51.2386132,17.9488876 C52.1326698,18.8177578 53.0603491,19.2010605 54.3853868,19.2010605 C57.3808585,19.2010605 59.9575755,16.7194402 59.9575755,13.473487 M57.4183019,13.4401563 C57.4183019,15.10671 56.0554588,16.4577187 54.3743066,16.4577187 C52.6931544,16.4577187 51.3303113,15.10671 51.3303113,13.4401563 C51.3303113,11.7736026 52.6931544,10.4225939 54.3743066,10.4225939 C56.0554588,10.4225939 57.4183019,11.7736026 57.4183019,13.4401563" id="Shape" fill="#949494"></path>
            <path d="M68.8919187,7.57300722 L68.8919187,4.83410631 C69.6317338,4.48882398 70.1059315,3.74858421 70.1096998,2.93310562 L70.1096998,2.87020486 C70.1096998,1.70537601 69.164092,0.761088082 67.9976349,0.761088082 L67.9346463,0.761088082 C66.7681851,0.761088082 65.8225814,1.70537183 65.8225814,2.87020486 L65.8225814,2.93310562 C65.8263498,3.74858421 66.3005474,4.48882398 67.0403626,4.83410631 L67.0403626,7.57300722 C65.9986747,7.73228585 65.0176244,8.1635919 64.1965404,8.82325685 L56.6744479,2.9727098 C56.7281049,2.77934821 56.7560999,2.58055075 56.7592105,2.38097674 C56.7610971,1.41973409 56.1828672,0.552035597 55.2942152,0.182587781 C54.4055633,-0.186860034 53.3815477,0.014721582 52.6997835,0.693312187 C52.0180193,1.37190279 51.8128095,2.39382457 52.1798667,3.28243914 C52.5469239,4.1710537 53.4139403,4.75130991 54.3765276,4.75256829 C54.7883249,4.75063175 55.1924083,4.64084878 55.5484281,4.43418173 L62.9554301,10.1899894 C61.5937011,12.2442915 61.6301067,14.9216094 63.0471914,16.9382312 L60.7943741,19.1886805 C60.6122688,19.1305248 60.4225371,19.0996449 60.2313642,19.0970473 C59.1524923,19.0979051 58.2784295,19.971675 58.2787158,21.0490412 C58.2790021,22.1264075 59.1535293,22.9997139 60.2324014,23 C61.3112736,23.0002858 62.1862648,22.127443 62.1871237,21.050077 C62.1846144,20.8591629 62.1536891,20.6696826 62.0953625,20.487853 L64.324073,18.2614768 C66.3154124,19.792406 69.0504092,19.9242977 71.1802052,18.5921048 C73.3100012,17.259912 74.3847811,14.7449952 73.8744799,12.2876727 C73.3641788,9.83035015 71.3765728,7.94961117 68.8919187,7.57300722 M67.9680847,16.581017 C66.8467137,16.611828 65.7970639,16.0320219 65.227282,15.0670512 C64.6575001,14.1020804 64.6575001,12.9042214 65.227282,11.9392507 C65.7970639,10.9742799 66.8467137,10.3944739 67.9680847,10.4252848 C69.6273445,10.4833091 70.9426722,11.8429162 70.9435106,13.5008754 C70.9443482,15.1588347 69.6303956,16.519767 67.9711953,16.5794639" id="Shape" fill="#FF7A59"></path>
        </g>
    </g>
</svg>