<svg width="29" height="29" viewBox="0 0 29 29" fill="none" xmlns="http://www.w3.org/2000/svg">
<path opacity="0.5" d="M2 2H5.94737L9.5 18.3158C9.62303 18.9191 9.95375 19.4603 10.4346 19.8449C10.9154 20.2296 11.5159 20.4335 12.1316 20.4211H22.2632C22.8788 20.4335 23.4793 20.2296 23.9601 19.8449C24.441 19.4603 24.7717 18.9191 24.8947 18.3158L27 7.26316H8.05263M13.1842 25.6842C13.1842 26.4109 12.5951 27 11.8684 27C11.1417 27 10.5526 26.4109 10.5526 25.6842C10.5526 24.9575 11.1417 24.3684 11.8684 24.3684C12.5951 24.3684 13.1842 24.9575 13.1842 25.6842ZM23.7105 25.6842C23.7105 26.4109 23.1214 27 22.3947 27C21.668 27 21.0789 26.4109 21.0789 25.6842C21.0789 24.9575 21.668 24.3684 22.3947 24.3684C23.1214 24.3684 23.7105 24.9575 23.7105 25.6842Z" stroke="white" stroke-width="2.5" stroke-linecap="round" stroke-linejoin="round"/>
</svg>
