<svg width="51" height="43" viewBox="0 0 51 43" fill="none" xmlns="http://www.w3.org/2000/svg">
<path d="M43.9652 10.5305V9.65292C43.9628 7.7514 43.3978 5.89292 42.341 4.31068C41.2841 2.72845 39.7825 1.49296 38.0246 0.759238C36.2668 0.0255218 34.3309 -0.173732 32.4599 0.186482C30.589 0.546696 28.8663 1.45033 27.5081 2.78399C27.4278 2.8648 27.3642 2.96069 27.3212 3.06612C27.2782 3.17155 27.2566 3.28444 27.2575 3.39827V22.8621C27.2579 23.0203 27.3012 23.1754 27.3827 23.3111C27.4643 23.4468 27.5811 23.558 27.7207 23.6328C27.8604 23.7077 28.0178 23.7435 28.1762 23.7364C28.3345 23.7293 28.4881 23.6796 28.6205 23.5926C30.2928 22.5226 32.2354 21.9489 34.2219 21.9385C34.6818 21.9299 35.1274 22.0976 35.4672 22.4069C35.807 22.7162 36.0151 23.1436 36.0488 23.6014C36.0613 23.8395 36.0251 24.0777 35.9424 24.3014C35.8596 24.525 35.7321 24.7296 35.5675 24.9024C35.4029 25.0753 35.2048 25.2129 34.9851 25.3068C34.7655 25.4007 34.529 25.4489 34.2901 25.4486C32.4243 25.4486 30.635 26.1882 29.3157 27.5048C27.9964 28.8214 27.2553 30.607 27.2553 32.4689V39.9017C27.2551 40.0329 27.2844 40.1626 27.3411 40.281C27.3978 40.3995 27.4804 40.5038 27.5828 40.5861C28.8308 41.6168 30.3002 42.3464 31.8767 42.7182C33.4533 43.09 35.0945 43.0939 36.6728 42.7297C38.2511 42.3655 39.724 41.643 40.9769 40.6183C42.2298 39.5936 43.2291 38.2943 43.897 36.8215C43.9642 36.6734 43.9889 36.5095 43.9683 36.3483C43.9476 36.187 43.8825 36.0346 43.7801 35.9081C43.6778 35.7816 43.5422 35.6859 43.3885 35.6318C43.2349 35.5777 43.0692 35.5673 42.9099 35.6017C41.8138 35.8524 40.6929 35.979 39.5684 35.9791H37.8691C37.4153 35.9846 36.9763 35.8188 36.6399 35.5149C36.3035 35.211 36.0947 34.7914 36.0554 34.3403C36.0394 34.1002 36.0731 33.8594 36.1543 33.6329C36.2355 33.4063 36.3625 33.1989 36.5274 33.0234C36.6924 32.8479 36.8917 32.7081 37.113 32.6127C37.3344 32.5173 37.573 32.4684 37.8141 32.4689H39.5728C41.4102 32.4717 43.2208 32.029 44.8489 31.1789C46.7769 30.1769 48.3787 28.647 49.4663 26.7687C50.5539 24.8903 51.0823 22.7415 50.9896 20.5741C50.8968 18.4067 50.1867 16.3107 48.9426 14.5318C47.6984 12.7528 45.9718 11.3648 43.9652 10.5305ZM41.3271 18.4283H40.4477C38.3488 18.4283 36.3358 17.5962 34.8516 16.1151C33.3674 14.6339 32.5336 12.6251 32.5336 10.5305V9.65292C32.5336 9.18745 32.7189 8.74104 33.0487 8.41189C33.3785 8.08275 33.8259 7.89784 34.2923 7.89784C34.7587 7.89784 35.2061 8.08275 35.5359 8.41189C35.8657 8.74104 36.051 9.18745 36.051 9.65292V10.5305C36.051 11.1067 36.1647 11.6772 36.3857 12.2096C36.6066 12.7419 36.9305 13.2256 37.3388 13.633C38.1633 14.4559 39.2817 14.9181 40.4477 14.9181H41.3271C41.7935 14.9181 42.2409 15.1031 42.5707 15.4322C42.9005 15.7613 43.0858 16.2078 43.0858 16.6732C43.0858 17.1387 42.9005 17.5851 42.5707 17.9143C42.2409 18.2434 41.7935 18.4283 41.3271 18.4283ZM16.7053 7.75708e-07C14.1408 0.00290404 11.6821 1.02084 9.86874 2.83048C8.05535 4.64013 7.03532 7.0937 7.03241 9.65292V10.5305C5.02601 11.3653 3.29972 12.7537 2.05598 14.5328C0.812243 16.312 0.102613 18.4082 0.0103122 20.5755C-0.0819887 22.7429 0.446866 24.8916 1.53486 26.7696C2.62285 28.6477 4.22487 30.1773 6.15306 31.1789C7.78111 32.029 9.59172 32.4717 11.4292 32.4689H13.1285C13.583 32.4622 14.0231 32.6275 14.3604 32.9316C14.6977 33.2356 14.9072 33.6558 14.9466 34.1077C14.9625 34.3478 14.9289 34.5886 14.8477 34.8151C14.7665 35.0417 14.6395 35.2491 14.4745 35.4246C14.3096 35.6001 14.1103 35.7399 13.8889 35.8353C13.6676 35.9306 13.429 35.9796 13.1879 35.9791H11.4292C10.3038 35.9795 9.18197 35.8522 8.08543 35.5995C7.9263 35.5649 7.76065 35.575 7.60695 35.6288C7.45326 35.6826 7.31755 35.778 7.21497 35.9042C7.11239 36.0305 7.04697 36.1827 7.02599 36.3439C7.00501 36.5051 7.0293 36.6689 7.09616 36.8171C7.76388 38.2903 8.76305 39.59 10.016 40.6152C11.269 41.6403 12.7419 42.3633 14.3204 42.7279C15.8989 43.0926 17.5404 43.089 19.1173 42.7175C20.6942 42.3461 22.164 41.6167 23.4125 40.5861C23.5149 40.5038 23.5975 40.3995 23.6542 40.281C23.7109 40.1626 23.7403 40.0329 23.7401 39.9017V32.4689C23.7401 30.607 22.9989 28.8214 21.6796 27.5048C20.3603 26.1882 18.571 25.4486 16.7053 25.4486C16.4663 25.4489 16.2298 25.4007 16.0102 25.3068C15.7906 25.2129 15.5924 25.0753 15.4279 24.9024C15.2633 24.7296 15.1357 24.525 15.053 24.3014C14.9702 24.0777 14.934 23.8395 14.9466 23.6014C14.9802 23.1433 15.1887 22.7155 15.5289 22.4061C15.8692 22.0967 16.3154 21.9294 16.7756 21.9385C18.7621 21.9489 20.7048 22.5226 22.3771 23.5926C22.5095 23.6796 22.663 23.7293 22.8214 23.7364C22.9798 23.7435 23.1371 23.7077 23.2768 23.6328C23.4165 23.558 23.5333 23.4468 23.6148 23.3111C23.6964 23.1754 23.7397 23.0203 23.7401 22.8621V3.39827C23.7409 3.16792 23.6508 2.9465 23.4895 2.7818C21.6837 0.998693 19.2456 -0.00101657 16.7053 7.75708e-07ZM18.464 10.5305C18.464 12.6251 17.6302 14.6339 16.146 16.1151C14.6618 17.5962 12.6488 18.4283 10.5498 18.4283H9.67046C9.20402 18.4283 8.75669 18.2434 8.42687 17.9143C8.09705 17.5851 7.91176 17.1387 7.91176 16.6732C7.91176 16.2078 8.09705 15.7613 8.42687 15.4322C8.75669 15.1031 9.20402 14.9181 9.67046 14.9181H10.5498C11.1272 14.9181 11.6989 14.8047 12.2324 14.5842C12.7658 14.3637 13.2505 14.0405 13.6588 13.633C14.0671 13.2256 14.3909 12.7419 14.6119 12.2096C14.8328 11.6772 14.9466 11.1067 14.9466 10.5305V9.65292C14.9466 9.18745 15.1319 8.74104 15.4617 8.41189C15.7915 8.08275 16.2388 7.89784 16.7053 7.89784C17.1717 7.89784 17.619 8.08275 17.9489 8.41189C18.2787 8.74104 18.464 9.18745 18.464 9.65292V10.5305Z" fill="white"/>
</svg>
