<svg width="26" height="33" viewBox="0 0 26 33" fill="none" xmlns="http://www.w3.org/2000/svg">
<g opacity="0.5">
<path d="M13.0029 31C13.0029 31 1.40292 24.475 1.40292 13.89C1.36422 12.3424 1.63566 10.8028 2.20127 9.36176C2.76687 7.92074 3.61518 6.60751 4.69622 5.49944C5.77726 4.39138 7.06915 3.5109 8.49577 2.9099C9.92239 2.30889 11.4549 1.99952 13.0029 2C14.551 1.99952 16.0834 2.30889 17.5101 2.9099C18.9367 3.5109 20.2286 4.39138 21.3096 5.49944C22.3907 6.60751 23.239 7.92074 23.8046 9.36176C24.3702 10.8028 24.6416 12.3424 24.6029 13.89C24.6029 24.475 13.0029 31 13.0029 31Z" stroke="white" stroke-width="2.5" stroke-linecap="round" stroke-linejoin="round"/>
<path d="M13.0029 17.95C15.4054 17.95 17.3529 16.0024 17.3529 13.6C17.3529 11.1976 15.4054 9.25 13.0029 9.25C10.6005 9.25 8.65291 11.1976 8.65291 13.6C8.65291 16.0024 10.6005 17.95 13.0029 17.95Z" stroke="white" stroke-width="2.5" stroke-linecap="round" stroke-linejoin="round"/>
</g>
</svg>
