<svg width="36" height="43" viewBox="0 0 36 43" fill="none" xmlns="http://www.w3.org/2000/svg">
<path d="M32.7273 3.18492H25.3105C24.391 2.18302 23.2645 1.38141 22.0047 0.83256C20.7449 0.283711 19.3803 0 18 0C16.6197 0 15.2551 0.283711 13.9953 0.83256C12.7355 1.38141 11.609 2.18302 10.6895 3.18492H3.27273C2.40475 3.18492 1.57231 3.5205 0.958559 4.11784C0.344804 4.71519 0 5.52536 0 6.37013V39.8148C0 40.6596 0.344804 41.4697 0.958559 42.0671C1.57231 42.6644 2.40475 43 3.27273 43H32.7273C33.5953 43 34.4277 42.6644 35.0414 42.0671C35.6552 41.4697 36 40.6596 36 39.8148V6.37013C36 5.52536 35.6552 4.71519 35.0414 4.11784C34.4277 3.5205 33.5953 3.18492 32.7273 3.18492ZM18 3.18492C19.736 3.18492 21.4008 3.85608 22.6283 5.05077C23.8558 6.24545 24.5455 7.86579 24.5455 9.55533H11.4545C11.4545 7.86579 12.1442 6.24545 13.3717 5.05077C14.5992 3.85608 16.264 3.18492 18 3.18492ZM24.5455 28.6666H11.4545C11.0206 28.6666 10.6043 28.4988 10.2975 28.2001C9.99058 27.9014 9.81818 27.4964 9.81818 27.074C9.81818 26.6516 9.99058 26.2465 10.2975 25.9478C10.6043 25.6492 11.0206 25.4814 11.4545 25.4814H24.5455C24.9794 25.4814 25.3957 25.6492 25.7025 25.9478C26.0094 26.2465 26.1818 26.6516 26.1818 27.074C26.1818 27.4964 26.0094 27.9014 25.7025 28.2001C25.3957 28.4988 24.9794 28.6666 24.5455 28.6666ZM24.5455 22.2962H11.4545C11.0206 22.2962 10.6043 22.1284 10.2975 21.8297C9.99058 21.531 9.81818 21.1259 9.81818 20.7036C9.81818 20.2812 9.99058 19.8761 10.2975 19.5774C10.6043 19.2787 11.0206 19.111 11.4545 19.111H24.5455C24.9794 19.111 25.3957 19.2787 25.7025 19.5774C26.0094 19.8761 26.1818 20.2812 26.1818 20.7036C26.1818 21.1259 26.0094 21.531 25.7025 21.8297C25.3957 22.1284 24.9794 22.2962 24.5455 22.2962Z" fill="white"/>
</svg>
