<svg width="27" height="31" viewBox="0 0 27 31" fill="none" xmlns="http://www.w3.org/2000/svg">
<path opacity="0.5" d="M8.89648 17.5385L18.117 22.9115M18.1035 8.08849L8.89648 13.4615M25.65 6.05C25.65 8.28675 23.8367 10.1 21.6 10.1C19.3632 10.1 17.55 8.28675 17.55 6.05C17.55 3.81325 19.3632 2 21.6 2C23.8367 2 25.65 3.81325 25.65 6.05ZM9.44998 15.5C9.44998 17.7368 7.63673 19.55 5.39998 19.55C3.16322 19.55 1.34998 17.7368 1.34998 15.5C1.34998 13.2632 3.16322 11.45 5.39998 11.45C7.63673 11.45 9.44998 13.2632 9.44998 15.5ZM25.65 24.95C25.65 27.1868 23.8367 29 21.6 29C19.3632 29 17.55 27.1868 17.55 24.95C17.55 22.7132 19.3632 20.9 21.6 20.9C23.8367 20.9 25.65 22.7132 25.65 24.95Z" stroke="white" stroke-width="2.5" stroke-linecap="round" stroke-linejoin="round"/>
</svg>
