<svg width="46" height="34" viewBox="0 0 46 34" fill="none" xmlns="http://www.w3.org/2000/svg">
<path d="M33.7333 9.57602V8.5C33.7333 3.655 26.4826 0 16.8667 0C7.25075 0 0 3.655 0 8.5V16.2273C0 20.2628 5.03125 23.4697 12.2667 24.4298V25.5C12.2667 30.345 19.5174 34 29.1333 34C38.7492 34 46 30.345 46 25.5V17.7727C46 13.7739 41.1278 10.5632 33.7333 9.57602ZM9.2 20.6453C5.44525 19.5886 3.06667 17.8481 3.06667 16.2273V13.5092C4.63067 14.6258 6.72558 15.526 9.2 16.1307V20.6453ZM24.5333 16.1307C27.0077 15.526 29.1027 14.6258 30.6667 13.5092V16.2273C30.6667 17.8481 28.2881 19.5886 24.5333 20.6453V16.1307ZM21.4667 29.9181C17.7119 28.8614 15.3333 27.1208 15.3333 25.5V24.6944C15.8374 24.7137 16.3472 24.7273 16.8667 24.7273C17.6103 24.7273 18.3368 24.7022 19.0497 24.6597C19.8418 24.9455 20.6486 25.1879 21.4667 25.386V29.9181ZM21.4667 21.2983C19.9437 21.5251 18.4062 21.6381 16.8667 21.6364C15.3272 21.6381 13.7896 21.5251 12.2667 21.2983V16.7025C13.7919 16.9028 15.3285 17.0022 16.8667 17C18.4048 17.0022 19.9414 16.9028 21.4667 16.7025V21.2983ZM33.7333 30.571C30.683 31.0218 27.5837 31.0218 24.5333 30.571V25.9636C26.0581 26.1702 27.5949 26.2735 29.1333 26.2727C30.6715 26.2749 32.2081 26.1755 33.7333 25.9752V30.571ZM42.9333 25.5C42.9333 27.1208 40.5547 28.8614 36.8 29.9181V25.4034C39.2744 24.7987 41.3693 23.8985 42.9333 22.7819V25.5Z" fill="white"/>
</svg>
