<svg width="29" height="29" viewBox="0 0 29 29" fill="none" xmlns="http://www.w3.org/2000/svg">
<path opacity="0.5" d="M26.1667 17.9722L20.0556 11.7222L3.38889 25.6111M4.77778 2H24.2222C25.7563 2 27 3.24365 27 4.77778V24.2222C27 25.7563 25.7563 27 24.2222 27H4.77778C3.24365 27 2 25.7563 2 24.2222V4.77778C2 3.24365 3.24365 2 4.77778 2ZM11.7222 9.63889C11.7222 10.7895 10.7895 11.7222 9.63889 11.7222C8.4883 11.7222 7.55556 10.7895 7.55556 9.63889C7.55556 8.4883 8.4883 7.55556 9.63889 7.55556C10.7895 7.55556 11.7222 8.4883 11.7222 9.63889Z" stroke="white" stroke-width="2.5" stroke-linecap="round" stroke-linejoin="round"/>
</svg>
