<svg width="26" height="30" viewBox="0 0 26 30" fill="none" xmlns="http://www.w3.org/2000/svg">
<path d="M17.3333 18.8889L19.5 18.8889L19.5 16.6667C19.5 16.372 19.3859 16.0894 19.1827 15.881C18.9795 15.6726 18.704 15.5556 18.4167 15.5556L7.58333 15.5556C7.29602 15.5556 7.02047 15.6726 6.8173 15.881C6.61414 16.0894 6.5 16.372 6.5 16.6667L6.5 18.8889L8.66667 18.8889C9.2413 18.8889 9.7924 19.123 10.1987 19.5398C10.6051 19.9565 10.8333 20.5217 10.8333 21.1111L10.8333 27.7778C10.8333 28.3671 10.6051 28.9324 10.1987 29.3491C9.7924 29.7659 9.2413 30 8.66667 30L2.16667 30C1.59203 30 1.04093 29.7659 0.634602 29.3491C0.228274 28.9324 6.67381e-07 28.3671 6.93143e-07 27.7778L9.84553e-07 21.1111C1.01031e-06 20.5217 0.228274 19.9565 0.634603 19.5398C1.04093 19.123 1.59203 18.8889 2.16667 18.8889L4.33334 18.8889L4.33334 16.6667C4.33334 15.7826 4.67574 14.9348 5.28524 14.3096C5.89473 13.6845 6.72138 13.3333 7.58333 13.3333L11.9167 13.3333L11.9167 8.88889L10.8333 8.88889C10.2587 8.88889 9.7076 8.65476 9.30127 8.23801C8.89494 7.82127 8.66667 7.25604 8.66667 6.66667L8.66667 2.22222C8.66667 1.63285 8.89494 1.06762 9.30127 0.650873C9.7076 0.234126 10.2587 -6.88074e-07 10.8333 -6.62956e-07L15.1667 -4.7354e-07C15.7413 -4.48422e-07 16.2924 0.234126 16.6987 0.650873C17.1051 1.06762 17.3333 1.63285 17.3333 2.22222L17.3333 6.66667C17.3333 7.25604 17.1051 7.82127 16.6987 8.23801C16.2924 8.65476 15.7413 8.88889 15.1667 8.88889L14.0833 8.88889L14.0833 13.3333L18.4167 13.3333C19.2786 13.3333 20.1053 13.6845 20.7148 14.3096C21.3243 14.9348 21.6667 15.7826 21.6667 16.6667L21.6667 18.8889L23.8333 18.8889C24.408 18.8889 24.9591 19.123 25.3654 19.5398C25.7717 19.9565 26 20.5217 26 21.1111L26 27.7778C26 28.3671 25.7717 28.9324 25.3654 29.3491C24.9591 29.7659 24.408 30 23.8333 30L17.3333 30C16.7587 30 16.2076 29.7659 15.8013 29.3491C15.3949 28.9324 15.1667 28.3671 15.1667 27.7778L15.1667 21.1111C15.1667 20.5217 15.3949 19.9565 15.8013 19.5398C16.2076 19.123 16.7587 18.8889 17.3333 18.8889Z" fill="white"/>
</svg>
