<svg width="29" height="29" viewBox="0 0 29 29" fill="none" xmlns="http://www.w3.org/2000/svg">
<path opacity="0.5" d="M26.9999 13.8056C27.0047 15.6387 26.5764 17.4471 25.7499 19.0833C24.77 21.0441 23.2635 22.6933 21.3992 23.8462C19.5349 24.9991 17.3864 25.6102 15.1944 25.6111C13.3613 25.6159 11.5529 25.1876 9.91665 24.3611L2 27L4.63888 19.0833C3.8124 17.4471 3.38411 15.6387 3.38889 13.8056C3.38973 11.6136 4.00084 9.46509 5.15377 7.60079C6.30669 5.73649 7.95589 4.22999 9.91665 3.25004C11.5529 2.42355 13.3613 1.99526 15.1944 2.00004H15.8889C18.7838 2.15975 21.5181 3.38165 23.5682 5.43178C25.6183 7.48191 26.8402 10.2162 26.9999 13.1111V13.8056Z" stroke="white" stroke-width="2.15517" stroke-linecap="round" stroke-linejoin="round"/>
</svg>
