<svg width="29" height="29" viewBox="0 0 29 29" fill="none" xmlns="http://www.w3.org/2000/svg">
<path opacity="0.5" d="M16.6625 25.7502C16.4427 26.1291 16.1273 26.4436 15.7478 26.6622C15.3683 26.8808 14.938 26.9958 14.5 26.9958C14.062 26.9958 13.6317 26.8808 13.2522 26.6622C12.8727 26.4436 12.5573 26.1291 12.3375 25.7502M27 20.7502H2C2.99456 20.7502 3.94839 20.3552 4.65165 19.6519C5.35491 18.9486 5.75 17.9948 5.75 17.0002V10.7502C5.75 8.4296 6.67187 6.204 8.31282 4.56306C9.95376 2.92212 12.1794 2.00024 14.5 2.00024C16.8206 2.00024 19.0462 2.92212 20.6872 4.56306C22.3281 6.204 23.25 8.4296 23.25 10.7502V17.0002C23.25 17.9948 23.6451 18.9486 24.3483 19.6519C25.0516 20.3552 26.0054 20.7502 27 20.7502Z" stroke="white" stroke-width="2.5" stroke-linecap="round" stroke-linejoin="round"/>
</svg>
