<svg width="32" height="33" viewBox="0 0 32 33" fill="none" xmlns="http://www.w3.org/2000/svg">
<path opacity="0.5" d="M9.29759 15.05L15.0976 2C16.2513 2 17.3577 2.4583 18.1735 3.27408C18.9893 4.08986 19.4476 5.1963 19.4476 6.34999V12.15H27.6546C28.0749 12.1452 28.4913 12.2319 28.8748 12.404C29.2584 12.5762 29.5999 12.8296 29.8757 13.1469C30.1516 13.4641 30.3552 13.8375 30.4724 14.2412C30.5896 14.645 30.6176 15.0693 30.5546 15.485L28.5536 28.5349C28.4487 29.2265 28.0974 29.8568 27.5645 30.3098C27.0316 30.7627 26.3529 31.0078 25.6536 30.9999H9.29759M9.29759 15.05V30.9999M9.29759 15.05H4.9476C4.17848 15.05 3.44085 15.3555 2.897 15.8994C2.35314 16.4432 2.04761 17.1808 2.04761 17.95V28.0999C2.04761 28.8691 2.35314 29.6067 2.897 30.1506C3.44085 30.6944 4.17848 30.9999 4.9476 30.9999H9.29759" stroke="white" stroke-width="2.5" stroke-linecap="round" stroke-linejoin="round"/>
</svg>
