<svg width="79" height="79" viewBox="0 0 79 79" fill="none" xmlns="http://www.w3.org/2000/svg">
<rect width="79" height="79" fill="#00C1DE"/>
<path d="M37.2773 36.0545C37.1983 36.0035 37.1333 35.941 37.0861 35.8705C37.0389 35.8001 37.0104 35.7232 37.0024 35.6442C36.9943 35.5653 37.0068 35.4859 37.0391 35.4107C37.0714 35.3355 37.1229 35.266 37.1906 35.2061C37.2583 35.1463 37.3409 35.0974 37.4335 35.0622C37.526 35.027 37.6268 35.0063 37.73 35.0012C37.8331 34.9962 37.9365 35.0068 38.0342 35.0326C38.1319 35.0585 38.2219 35.0989 38.2991 35.1516C39.6796 36.0671 41.4969 35.9751 42.7027 35.1558C42.8576 35.0507 43.0607 34.9971 43.2672 35.0067C43.4738 35.0163 43.6669 35.0884 43.804 35.2072C43.9412 35.3259 44.0111 35.4815 43.9986 35.6397C43.986 35.7979 43.8919 35.9459 43.7369 36.051C41.9532 37.2629 39.2522 37.3675 37.2773 36.0545Z" fill="white"/>
<path d="M27.7062 21.1552C27.9345 20.8952 27.8149 20.6 28.2994 20.167C29.8119 18.8148 34.893 18.9706 35.3992 20.9624C35.5467 21.5451 35.7098 21.2352 38.2822 21.892C38.4336 21.9307 38.9553 22.1364 38.9988 21.8515C39.0299 21.6449 38.446 20.8143 38.3287 20.6516C34.9714 15.9839 28.5805 15.7256 24.9381 20.2548C24.7689 20.4649 23.7168 21.7327 24.0732 21.9462C24.2952 22.0796 24.4575 21.9032 27.2939 21.3772C27.4701 21.3428 27.6045 21.2714 27.7062 21.1552Z" fill="white"/>
<path d="M31.4606 24C32.6042 24.0018 34.0647 22.1331 33.9978 21.7865C33.7979 20.7472 29.098 20.7293 29.0006 21.784C28.9684 22.1294 30.3238 23.9988 31.4606 24Z" fill="white"/>
<path d="M39.8217 23.3587C39.7276 23.0264 39.6718 22.9156 39.3382 22.7947C39.0123 22.677 37.7561 22.2757 35.8825 22.0759C35.4013 22.0247 34.9905 21.8721 34.6975 22.3176C34.4006 22.7692 34.1428 23.2347 33.8039 23.66C32.0787 25.8252 30.7499 25.9894 28.7317 22.6514C28.138 21.6699 27.2222 22.0418 26.2667 22.2161C25.621 22.3338 23.713 22.7854 23.4667 22.9311C23.1584 23.1123 23.0681 23.6275 22.9694 24.217C22.6518 26.1015 22.9531 28.0395 23.8272 29.7341C24.7014 31.4286 26.1001 32.7862 27.809 33.5988C28.0233 33.7011 28.3461 33.801 28.3025 34.0993C28.2398 34.5284 27.4135 34.822 27.0845 34.9901C24.2133 36.4612 21.4202 38.8487 19.213 42.0705C15.5057 47.4822 14.2839 53.7298 14.0024 60.3353C13.9907 60.5494 14.0223 60.7637 14.0952 60.9651C14.1681 61.1664 14.2807 61.3507 14.4263 61.5065C14.5719 61.6623 14.7473 61.7864 14.9418 61.8712C15.1363 61.9561 15.3459 61.9999 15.5577 62H19.0317C19.7753 62 20.3935 61.4732 20.5534 60.7714C20.929 57.1065 21.73 52.8862 23.3565 49.5924C25.9148 44.4122 29.7484 40.7644 33.4665 38.9471C34.1704 38.6031 34.9966 38.3397 34.3272 37.4899C30.378 32.4764 33.4749 25.7067 39.0727 24.8669C40.0007 24.7283 40.1943 24.6733 39.8217 23.3587Z" fill="white"/>
<path d="M54.7538 38.403C54.5093 38.2377 54.0864 38.0384 54.0771 37.7459C54.0685 37.4708 54.4828 37.3435 54.7055 37.2093C61.4876 33.1123 58.4111 23 50.5537 23C48.4536 23 46.461 23.8678 45.2175 25.0334C44.7931 25.4312 43.5698 26.4385 44.1561 27.0713C44.3765 27.3092 44.6981 27.4904 44.9387 27.7155C45.6926 28.422 46.2924 29.2692 46.702 30.2065C47.1117 31.1439 47.3229 32.152 47.323 33.1706C47.323 34.7538 46.8324 36.0505 46.0016 37.398C45.7306 37.8368 45.2128 38.2309 45.7462 38.6728C46.8877 39.6178 51.671 41.8763 55.3666 47.5936C57.2673 50.5334 58.7748 54.0734 59.4958 60.4896C59.4958 61.2474 60.167 62 61.082 62H64.4193C65.2626 62 65.9455 61.3588 66 60.5532C65.8038 52.0196 61.9408 43.2488 54.7538 38.403Z" fill="white"/>
<path d="M57 60.4314C56.7325 58.1919 56.3919 56.1902 55.7012 53.9303C54.088 48.6462 50.8762 43.3731 45.9602 41.0716C44.9844 40.6149 42.0307 39.5658 41.364 40.3474C40.9964 40.7789 41.1574 41.4357 41.4388 44.3595C42.336 53.6957 42.4562 54.6585 42.4585 55.105C42.4639 55.9618 40.7906 57.5477 40.4653 57.8498C40.2279 58.1072 39.7361 58.1064 39.4771 57.8208C39.2189 57.5367 37.5232 55.9155 37.5217 55.1214C37.5186 53.2319 38.8305 41.3737 38.8366 40.9704C38.8598 39.5015 37.134 40.0892 36.3624 40.2642C30.2563 41.6476 26.1535 47.8074 24.2867 53.9358C23.5521 56.3463 23.0519 59.3823 23.0018 60.3239C22.9917 60.5399 23.0247 60.7557 23.0988 60.9583C23.1729 61.1609 23.2866 61.3462 23.4329 61.5028C23.5793 61.6595 23.7554 61.7843 23.9505 61.8697C24.1455 61.9552 24.3556 61.9995 24.568 62H55.4338C56.3156 61.9992 57 61.2553 57 60.4314Z" fill="white"/>
</svg>
