<svg width="27" height="27" viewBox="0 0 27 27" fill="none" xmlns="http://www.w3.org/2000/svg">
<path opacity="0.5" d="M1.41663 1.41669L25.3416 25.3417M17.125 17.9709V19.5417C17.125 20.1826 16.8703 20.7973 16.4171 21.2505C15.9639 21.7037 15.3492 21.9584 14.7083 21.9584H3.83329C3.19235 21.9584 2.57766 21.7037 2.12445 21.2505C1.67124 20.7973 1.41663 20.1826 1.41663 19.5417V7.45835C1.41663 6.12919 2.50413 5.04169 3.83329 5.04169H4.19579M10.7208 5.04169H14.7083C15.3492 5.04169 15.9639 5.2963 16.4171 5.74951C16.8703 6.20273 17.125 6.81741 17.125 7.45835V11.4459L18.3333 12.6542L25.5833 7.45835V19.5417" stroke="white" stroke-width="2.5" stroke-linecap="round" stroke-linejoin="round"/>
</svg>
