<svg width="48" height="43" viewBox="0 0 48 43" fill="none" xmlns="http://www.w3.org/2000/svg">
<path d="M48 20.64C48 21.0962 47.8194 21.5337 47.4979 21.8562C47.1764 22.1788 46.7404 22.36 46.2857 22.36H39.4286V29.24H41.1429C42.0522 29.24 42.9242 29.6024 43.5672 30.2476C44.2102 30.8927 44.5714 31.7677 44.5714 32.68V39.56C44.5714 40.4723 44.2102 41.3473 43.5672 41.9924C42.9242 42.6376 42.0522 43 41.1429 43H34.2857C33.3764 43 32.5043 42.6376 31.8613 41.9924C31.2184 41.3473 30.8571 40.4723 30.8571 39.56V32.68C30.8571 31.7677 31.2184 30.8927 31.8613 30.2476C32.5043 29.6024 33.3764 29.24 34.2857 29.24H36V22.36H12V29.24H13.7143C14.6236 29.24 15.4957 29.6024 16.1387 30.2476C16.7816 30.8927 17.1429 31.7677 17.1429 32.68V39.56C17.1429 40.4723 16.7816 41.3473 16.1387 41.9924C15.4957 42.6376 14.6236 43 13.7143 43H6.85714C5.94783 43 5.07576 42.6376 4.43278 41.9924C3.78979 41.3473 3.42857 40.4723 3.42857 39.56V32.68C3.42857 31.7677 3.78979 30.8927 4.43278 30.2476C5.07576 29.6024 5.94783 29.24 6.85714 29.24H8.57143V22.36H1.71429C1.25963 22.36 0.823593 22.1788 0.502103 21.8562C0.180612 21.5337 0 21.0962 0 20.64C0 20.1838 0.180612 19.7463 0.502103 19.4238C0.823593 19.1012 1.25963 18.92 1.71429 18.92H22.2857V13.76H20.5714C19.6621 13.76 18.79 13.3976 18.1471 12.7524C17.5041 12.1073 17.1429 11.2323 17.1429 10.32V3.44C17.1429 2.52766 17.5041 1.65268 18.1471 1.00755C18.79 0.362427 19.6621 0 20.5714 0H27.4286C28.3379 0 29.21 0.362427 29.8529 1.00755C30.4959 1.65268 30.8571 2.52766 30.8571 3.44V10.32C30.8571 11.2323 30.4959 12.1073 29.8529 12.7524C29.21 13.3976 28.3379 13.76 27.4286 13.76H25.7143V18.92H46.2857C46.7404 18.92 47.1764 19.1012 47.4979 19.4238C47.8194 19.7463 48 20.1838 48 20.64Z" fill="white"/>
</svg>
