<svg width="28" height="30" viewBox="0 0 28 30" fill="none" xmlns="http://www.w3.org/2000/svg">
<path opacity="0.5" d="M2.19995 7.3H4.84995M4.84995 7.3H26.05M4.84995 7.3V25.85C4.84995 26.5528 5.12915 27.2269 5.62612 27.7238C6.12309 28.2208 6.79713 28.5 7.49995 28.5H20.75C21.4528 28.5 22.1268 28.2208 22.6238 27.7238C23.1208 27.2269 23.4 26.5528 23.4 25.85V7.3M8.82495 7.3V4.65C8.82495 3.94718 9.10415 3.27314 9.60112 2.77617C10.0981 2.2792 10.7721 2 11.475 2H16.775C17.4778 2 18.1518 2.2792 18.6488 2.77617C19.1458 3.27314 19.425 3.94718 19.425 4.65V7.3M11.475 13.925V21.875M16.775 13.925V21.875" stroke="white" stroke-width="2.5" stroke-linecap="round" stroke-linejoin="round"/>
</svg>
