<?xml version="1.0" encoding="UTF-8"?>
<svg width="56px" height="26px" viewBox="0 0 56 26" version="1.1" xmlns="http://www.w3.org/2000/svg" xmlns:xlink="http://www.w3.org/1999/xlink">
    <title>Logo_of_Keap_Company</title>
    <g id="Page-1" stroke="none" stroke-width="1" fill="none" fill-rule="evenodd">
        <g id="Logo_of_Keap_Company" fill="#949494" fill-rule="nonzero">
            <path d="M13.7961165,18.8298526 L11.893204,20.7731473 C11.6213593,21.1081973 11.2135929,21.0411879 10.8737868,20.7731473 L4.1456311,14.0051218 L4.1456311,20.3040755 C4.1456311,20.7061369 3.87378645,20.9741775 3.39805857,20.9741775 L0.679612108,20.9741775 C0.271845632,20.9741775 0,20.7061369 0,20.3040755 L0,0.670101022 C0,0.268039631 0.271845632,0 0.679612108,0 L3.39805857,0 C3.87378645,0 4.1456311,0.268039631 4.1456311,0.670101022 L4.1456311,7.1030758 L13.3203886,7.1030758 C13.7281561,7.1030758 14,7.3711164 14,7.77317731 L14,10.5205939 C14,10.9226543 13.7281561,11.190695 13.3203886,11.190695 L7.06796178,11.190695 L13.7961165,17.89171 C14.0679612,18.1597506 14.0679612,18.4948016 13.7961165,18.8298526 L13.7961165,18.8298526 Z" id="path2"></path>
            <path d="M28,13 C28,13.2592594 27.9323669,13.5833328 27.9323669,13.842593 C27.8647338,14.2314814 27.5942024,14.4259256 27.1884058,14.4259256 L18.1256039,14.4259256 C18.5990336,15.5925927 19.7487922,16.3703705 21.3043484,16.3703705 C22.3188409,16.3703705 23.1980681,15.9814811 23.806763,15.3333335 C24.0772944,15.0092592 24.3478258,14.9444441 24.7536234,15.1388893 L26.8502414,16.3703705 C27.1884058,16.6296297 27.323671,16.953704 27.0531397,17.2777774 C25.7681158,18.962963 23.6714978,20 21.2367153,20 C17.0434783,20 14,17.0185181 14,13.0648143 C14,9.04629636 16.9082131,6 20.9661839,6 C25.1594199,6 28,8.98148131 28,13 Z M23.9420292,11.5740738 C23.5362316,10.3425926 22.4541061,9.62962991 21.0338161,9.62962991 C19.4782608,9.62962991 18.3961353,10.3425926 18.0579708,11.5740738 L23.9420292,11.5740738 Z" id="path4"></path>
            <path d="M40,11.3148146 L40,19.0925921 C40,19.4814815 39.8115185,19.7407407 39.3717282,19.7407407 L36.9214666,19.7407407 C36.5445037,19.7407407 36.2931939,19.4814815 36.2931939,19.0925921 L36.2931939,18.3148144 C35.2879583,19.4814815 34.1570677,20 32.7120427,20 C29.8848172,20 28,18.3796294 28,15.851852 C28,13.1944444 29.8848172,11.5092588 32.6492152,11.5092588 L36.2931939,11.5092588 L36.2931939,11.1851854 C36.2931939,10.2777776 35.4136132,9.62962991 34.1570677,9.62962991 C33.3403145,9.62962991 32.5235603,9.95370327 32.1465974,10.4074077 C31.8952885,10.6666669 31.7696336,10.8611111 31.3926707,10.8611111 L29.0052356,10.8611111 C28.5654453,10.8611111 28.3141364,10.6018519 28.3769638,10.2129625 C28.8795816,7.68518514 30.9528803,6 34.0942412,6 C37.6753924,6 40,8.13888888 40,11.3148146 L40,11.3148146 Z M36.2931939,14.7499999 L36.2931939,14.2962964 L33.2146605,14.2962964 C32.2094248,14.2962964 31.7696336,14.87963 31.7696336,15.5925927 C31.7696336,16.3055554 32.3350788,16.888889 33.6544508,16.888889 C35.2251308,16.888889 36.2931939,15.9814811 36.2931939,14.7499999 Z" id="path6"></path>
            <path d="M56,13.926421 C56,17.739131 53.2523363,20.7257528 49.5887852,20.7257528 C48.0841118,20.7257528 46.7757007,20.2173916 45.990654,19.2642146 L45.990654,25.364549 C45.990654,25.7458203 45.7289728,26 45.2710282,26 L42.654206,26 C42.2616832,26 42,25.7458203 42,25.364549 L42,7.9531772 C42,7.5719063 42.2616832,7.3177257 42.654206,7.3177257 L45.2056074,7.3177257 C45.663551,7.3177257 45.8598134,7.5719063 45.8598134,7.9531772 L45.8598134,8.715719 C46.7102808,7.6354515 48.0186919,7 49.5233644,7 C53.1869155,7 56,10.0501676 56,13.926421 L56,13.926421 Z M52.009346,13.926421 C52.009346,12.1471568 50.7663547,10.8127094 49.0000009,10.8127094 C47.1028037,10.8127094 45.7943936,12.1471568 45.7943936,13.926421 C45.7943936,15.6421408 47.1028037,16.9765892 49.0000009,16.9765892 C50.7663547,16.9765892 52.009346,15.6421408 52.009346,13.926421 Z" id="path8"></path>
        </g>
    </g>
</svg>