<?xml version="1.0" encoding="UTF-8"?>
<svg width="89px" height="26px" viewBox="0 0 89 26" version="1.1" xmlns="http://www.w3.org/2000/svg" xmlns:xlink="http://www.w3.org/1999/xlink">
    <title>Klaviyo_primary_logo</title>
    <g id="Page-1" stroke="none" stroke-width="1" fill="none" fill-rule="evenodd">
        <g id="Klaviyo_primary_logo" fill="#949494" fill-rule="nonzero">
            <path d="M47.8891906,3.46837728 C47.8867949,3.00427487 48.066564,2.55770381 48.3900073,2.22441688 C48.7134505,1.89114002 49.1546562,1.69767087 49.6192529,1.68548653 C50.0910082,1.69098459 50.5417921,1.88058697 50.8754186,2.21376314 C51.2090451,2.5469393 51.3988966,2.99723615 51.4043411,3.46837728 C51.3932504,3.93269115 51.1998701,4.37403603 50.8659412,4.69726333 C50.5320122,5.02048056 50.084253,5.19968095 49.6192529,5.19621697 C49.1618147,5.19179637 48.7243395,5.00834658 48.4007954,4.68526025 C48.0773522,4.36218399 47.893651,3.92525971 47.8891906,3.46837728 L47.8891906,3.46837728 Z M61.7377883,7.22896718 C62.5858186,7.22896718 63.1286547,7.69904092 63.1286547,8.72388464 C63.032872,9.72378572 62.7855508,10.7033863 62.3950596,11.6289931 C61.7123806,13.4626855 61.004294,15.5589956 60.2410567,17.9432992 C59.9017841,16.7913255 59.2445127,14.9787795 58.4304601,12.8614237 L57.7222726,10.9217981 C57.3948972,10.1378719 57.1918378,9.30772585 57.1201519,8.46131721 C57.0979707,8.30562958 57.1090613,8.14702173 57.1526173,7.99591582 C57.196274,7.84479983 57.2713879,7.7046296 57.3731192,7.58460885 C57.4748506,7.46459816 57.6008806,7.36745577 57.7429415,7.29958599 C57.8850025,7.23171621 58.0397672,7.19465971 58.1972543,7.19085337 L58.1972543,6.84782903 L52.2608406,6.84782903 L52.2608406,7.19085337 C53.0707594,7.267081 53.7280308,8.03782591 54.5929995,10.3331234 L58.3710748,20.3148143 C58.6200091,20.8807314 58.7353517,21.4962922 58.7082301,22.1138669 C58.6810076,22.7313409 58.5119258,23.3344152 58.2141927,23.8763665 C57.7901271,24.820703 57.1625988,25.2907566 56.4290037,25.2907566 C55.5131189,25.2907566 55.0382381,24.8969306 55.0382381,24.0881323 C55.0382381,23.7704333 55.6445934,23.1436951 55.6445934,22.5423326 C55.6445934,21.6953702 54.987322,21.3100027 54.2538277,21.3100027 C54.0212268,21.301947 53.7895334,21.3432327 53.5741734,21.4312419 C53.3587126,21.5192511 53.1644249,21.6518691 53.0041148,21.8203351 C52.8439055,21.9889019 52.7212028,22.1893896 52.6441733,22.4088084 C52.5672446,22.6281265 52.537804,22.8613407 52.5576663,23.0928431 C52.5919465,23.8938878 52.9419064,24.6488132 53.5313232,25.1930805 C54.1207401,25.7373478 54.9017224,26.0267509 55.7039787,25.9980523 C56.0947723,26.011445 56.4843561,25.9477038 56.850347,25.8103531 C57.216338,25.6730024 57.5515776,25.464761 57.8368086,25.1976118 C58.1505728,24.9646997 58.5448953,24.1515714 58.756928,23.7577454 C58.9148183,23.4458868 59.0467969,23.1215418 59.1512505,22.7879326 C59.3336411,22.3433554 59.439607,21.9791343 59.5159308,21.7419929 C59.5922545,21.5047507 59.7533712,21.1109248 59.9399963,20.5095623 L60.3639611,19.1756291 C61.4918787,15.6648282 62.5688801,12.5988059 63.5908318,10.0070564 C64.1929524,8.51213899 64.9815974,7.62281329 65.3759199,7.44071283 C65.5878518,7.32567658 65.8169239,7.24560233 66.0543643,7.20356133 L66.0543643,6.86052693 L61.7377883,6.86052693 L61.7377883,7.22896718 Z M20.3276757,19.6203071 C19.5644384,19.4889982 18.9114016,18.8071788 18.9114016,17.3673124 L18.9114016,0.00423479222 L14.5864573,0.940146469 L14.5864573,1.30857766 C15.3199515,1.22812076 16.0577812,1.88452423 16.0577812,3.27356886 L16.0577812,17.3673124 C16.0577812,18.7309512 15.3199515,19.5143738 14.5864573,19.6203071 L14.3786591,19.6456827 C14.0033923,19.6724681 13.6274198,19.6056053 13.2846183,19.450834 C12.6605181,19.1644517 12.1425854,18.6887591 11.8048251,18.0914245 L9.79918461,14.872947 C9.37712545,14.1990827 8.74795372,13.6797882 8.0057785,13.3927011 C7.26360328,13.1057146 6.44833069,13.0663421 5.6819174,13.2806253 L7.93772233,10.7904892 C9.63381316,8.9059851 11.2196429,7.69904092 12.7122407,7.20356133 L12.7122407,6.86052693 L7.76387158,6.86052693 L7.76387158,7.20356133 C9.03593718,7.69904092 8.97233743,8.80011227 7.50097312,10.5279721 L4.32928337,14.2250625 L4.32928337,0 L0,0.940146469 L0,1.30857766 C0.733560336,1.30857766 1.47135778,2.04121883 1.47135778,3.32439064 L1.47135778,17.3673124 C1.47135778,18.9130113 0.7632419,19.5143738 0,19.6203071 L0,19.9590518 L5.74551715,19.9590518 L5.74551715,19.6203071 C4.79994976,19.4889982 4.32928337,18.7732439 4.32928337,17.3673124 L4.32928337,14.775573 L5.56318711,13.4330806 L8.55255689,18.3328959 C9.26067378,19.5101446 9.91367021,19.9801981 10.9652641,19.9801981 L20.9467348,19.9801981 L20.9467348,19.7134518 C20.9467348,19.7134518 20.6583783,19.6752876 20.3276757,19.6203071 L20.3276757,19.6203071 Z M33.6419832,19.6583705 L33.6419832,20.0014452 C33.6419832,20.0014452 30.6993352,21.0559442 29.8088581,19.2645446 C29.5715185,18.7918728 29.4412539,18.2727798 29.4272394,17.7442213 C29.0227337,18.5254286 28.4089174,19.1790528 27.6542501,19.6321893 C26.899482,20.0853258 26.0336059,20.3201512 25.1531103,20.310585 C23.0329841,20.310585 21.5065017,19.3153966 21.5065017,17.1386295 C21.5051987,16.5873134 21.6707517,16.0485845 21.9813903,15.5929305 C22.6089186,14.6527226 23.3425137,14.1530641 24.7078717,13.6279293 C25.3905507,13.3695408 25.9799675,13.1832513 26.4039323,13.0519424 C26.8279978,12.9206335 27.4258839,12.7894253 28.0999928,12.6623457 L29.4272394,12.3447474 L29.4272394,10.7735721 C29.4272394,8.1564067 28.2993218,6.96217048 26.7261656,6.96217048 C25.492282,6.96217048 24.7841954,7.77526855 24.7841954,8.7196453 C24.7841954,9.24054081 25.1531103,9.99011921 25.1531103,10.5533477 C25.1531103,11.2860191 24.4958389,11.8238418 23.5799541,11.8238418 C22.6640693,11.8238418 22.2188307,11.1166468 22.2188307,10.1722096 C22.2188307,9.22783285 22.6894769,8.363913 23.6605124,7.63128191 C24.5824467,6.91702801 25.7163129,6.52963658 26.8830477,6.53020992 C30.5678608,6.53020992 32.1748938,8.27498748 32.2342791,12.107606 L32.2342791,17.8755301 L32.2342791,17.955987 C32.2469829,18.3328959 32.3529489,19.8659071 33.6419832,19.6583705 L33.6419832,19.6583705 Z M29.4272394,12.7385734 C29.2703573,12.8190303 28.9056771,12.9503391 28.2993218,13.1620042 L27.0950805,13.6066822 C26.7897855,13.7506789 26.5692835,13.8693 26.124045,14.1064414 C25.7812435,14.2696712 25.4697983,14.4918088 25.2039255,14.7628852 C24.7600985,15.2627451 24.5011826,15.8994522 24.4704313,16.5668719 C24.4704313,18.1126716 25.3184615,18.9511755 26.5905574,18.9511755 C27.2906789,18.9293243 27.9605533,18.6607654 28.4816115,18.1931285 C28.7867048,17.9473271 29.0307996,17.6343608 29.1947393,17.2789004 C29.3587799,16.9233393 29.43833,16.5347496 29.4272394,16.143441 L29.4272394,12.7385734 Z M77.9990791,13.4330806 C78.0112788,14.3365341 77.8436086,15.2334422 77.5058483,16.0716441 C77.1680881,16.9098459 76.666993,17.6727264 76.0316005,18.3158781 C75.428774,18.9536929 74.7019341,19.46181 73.8954433,19.8090132 C73.0890533,20.1563172 72.2201525,20.3354572 71.3419758,20.3354572 C70.4637992,20.3354572 69.5947975,20.1563172 68.7884075,19.8090132 C67.9820175,19.46181 67.2550768,18.9536929 66.6522503,18.3158781 C65.3830784,17.0090325 64.6833601,15.2535816 64.7059447,13.4330806 C64.6924343,12.5356689 64.8574831,11.6446011 65.1916137,10.8114342 C65.5256435,9.97833767 66.0222014,9.2198073 66.6522503,8.579898 C67.2508422,7.93489343 67.9763714,7.42031162 68.7833663,7.06840581 C69.5903612,6.71651008 70.4613794,6.53486276 71.3419758,6.53486276 C72.2224714,6.53486276 73.0935904,6.71651008 73.9005853,7.06840581 C74.7075803,7.42031162 75.4331095,7.93489343 76.0316005,8.579898 C76.6688078,9.21563844 77.1714153,9.97295038 77.5093772,10.8067014 C77.8474399,11.6404726 78.0140011,12.533655 77.9990791,13.4330806 L77.9990791,13.4330806 Z M73.7122462,8.77470642 C73.1906839,7.75833131 72.5080049,7.16543744 71.7108907,7.00451357 C70.0868184,6.67842647 68.6536059,8.34274649 68.1193397,10.9937964 C67.8888562,12.182021 67.8332013,13.3975345 67.9539884,14.6018707 C68.0691294,15.8152695 68.4038649,16.9976537 68.9419624,18.0914245 C69.4635247,19.1036308 70.1462037,19.6965347 70.9475525,19.8574485 C72.5673902,20.1835054 74.0429488,18.447187 74.5814495,15.7707614 C75.0351573,13.5135375 74.7977169,10.7904892 73.7122462,8.77470642 Z M51.141493,17.3673124 L51.141493,6.86052693 L41.910455,6.86052693 L41.910455,7.1781454 C43.1443385,7.36024586 43.7295208,8.28768537 43.1825508,9.7953108 C40.2822489,17.6298295 40.4518348,17.2783969 40.2822489,17.9051351 C40.0998584,17.3037726 39.6801282,15.8216134 39.0101531,13.9624447 C38.3401779,12.1033767 37.8822355,10.8709461 37.6999458,10.3204356 C36.9917583,8.14793808 37.2292995,7.35601659 38.3826248,7.20356133 L38.3826248,6.86052693 L32.3953958,6.86052693 L32.3953958,7.20356133 C33.2901076,7.38566178 34.0914564,8.40626616 34.7317893,10.2399787 L35.6476741,12.6241816 C36.6568211,15.1990039 37.844124,18.7563268 38.2384465,19.9590518 L40.2270982,19.9590518 C40.8674311,18.0999838 43.4369296,10.6422632 43.7804369,9.90118362 C44.0681884,9.16760597 44.500824,8.49935047 45.0525327,7.93619242 C45.5324547,7.47551372 46.1678473,7.21110353 46.8333862,7.19508264 C47.021927,7.18125694 47.2112744,7.20729719 47.3890271,7.27152173 C47.5667797,7.33573621 47.7290054,7.43669502 47.8651178,7.56778238 C48.0011293,7.69886973 48.1080027,7.85714528 48.1786803,8.0322775 C48.249257,8.20740973 48.2821257,8.3954513 48.275068,8.58412727 L48.275068,9.76143633 L48.275068,9.7953108 L48.275068,17.3673124 C48.275068,18.8325544 47.5669813,19.5143738 46.8291516,19.6203071 L46.8291516,19.9590518 L52.5491971,19.9590518 L52.5491971,19.6203071 C51.7690213,19.5143738 51.141493,18.8325544 51.141493,17.3673124 L51.141493,17.3673124 Z" id="Shape"></path>
            <polygon id="Path" points="87 0 77 0 77 7 87 7 85.02621 3.5"></polygon>
            <polygon id="Path" points="88.0089872 6.08801598 88.0089872 7 87.9970043 7 87.9970043 6.08801598 87.95 6.08801598 87.95 6 88.05 6 88.05 6.08801598"></polygon>
            <polygon id="Path" points="87.9957678 7 87.9593108 6.13600913 87.9593108 7 87.95 7 87.95 6 87.9635631 6 88 6.87199924 88.0364571 6 88.05 6 88.05 7 88.0398428 7 88.0398428 6.13600913 88.0042322 7"></polygon>
        </g>
    </g>
</svg>