<svg xmlns="http://www.w3.org/2000/svg" viewBox="0 0 1120 350" fill="none">
  <defs>
    <filter id="greenGlow" x="-5%" y="-20%" width="110%" height="140%">
      <feGaussianBlur in="SourceGraphic" stdDeviation="6" result="blur"/>
      <feColorMatrix in="blur" type="matrix" values="0 0 0 0 0.102  0 0 0 0 0.718  0 0 0 0 0.349  0 0 0 0.35 0" result="greenBlur"/>
      <feMerge>
        <feMergeNode in="greenBlur"/>
        <feMergeNode in="SourceGraphic"/>
      </feMerge>
    </filter>
    <filter id="subtleGlow" x="-2%" y="-10%" width="104%" height="120%">
      <feGaussianBlur in="SourceGraphic" stdDeviation="3" result="blur"/>
      <feColorMatrix in="blur" type="matrix" values="0 0 0 0 0.102  0 0 0 0 0.718  0 0 0 0 0.349  0 0 0 0.2 0" result="greenBlur"/>
      <feMerge>
        <feMergeNode in="greenBlur"/>
        <feMergeNode in="SourceGraphic"/>
      </feMerge>
    </filter>
    <marker id="arrowDown" markerWidth="8" markerHeight="6" refX="4" refY="3" orient="auto">
      <path d="M0,0 L8,0 L4,6 Z" fill="#1ab759" opacity="0.7"/>
    </marker>
    <marker id="arrowUp" markerWidth="8" markerHeight="6" refX="4" refY="3" orient="auto-start-reverse">
      <path d="M0,6 L8,6 L4,0 Z" fill="#1ab759" opacity="0.7"/>
    </marker>
  </defs>

  <!-- ============================================ -->
  <!-- TOP LAYER: AI APPLICATIONS                   -->
  <!-- ============================================ -->

  <!-- Layer label -->
  <text x="40" y="18" fill="#94a3b8" font-family="'Inter', sans-serif" font-size="11" font-weight="600" letter-spacing="1.5" text-anchor="start">AI APPLICATIONS</text>

  <!-- Background band -->
  <rect x="40" y="28" width="1040" height="70" rx="10" fill="rgba(255,255,255,0.02)" stroke="rgba(255,255,255,0.06)" stroke-width="1"/>

  <!-- App card 1: Chatbot -->
  <rect x="95" y="35.5" width="130" height="55" rx="8" fill="rgba(255,255,255,0.04)" stroke="rgba(255,255,255,0.1)" stroke-width="1"/>
  <!-- Chat bubble icon -->
  <g transform="translate(120, 52)">
    <rect x="0" y="0" width="18" height="14" rx="3" fill="none" stroke="#94a3b8" stroke-width="1.5"/>
    <path d="M4,14 L4,19 L9,14" fill="none" stroke="#94a3b8" stroke-width="1.5" stroke-linejoin="round"/>
    <circle cx="5" cy="7" r="1.2" fill="#94a3b8"/>
    <circle cx="9" cy="7" r="1.2" fill="#94a3b8"/>
    <circle cx="13" cy="7" r="1.2" fill="#94a3b8"/>
  </g>
  <text x="146" y="69" fill="#f7f8f8" font-family="'Inter', sans-serif" font-size="13" font-weight="500" text-anchor="start">Chatbot</text>

  <!-- App card 2: AI Agent -->
  <rect x="335" y="35.5" width="130" height="55" rx="8" fill="rgba(255,255,255,0.04)" stroke="rgba(255,255,255,0.1)" stroke-width="1"/>
  <!-- Brain icon -->
  <g transform="translate(360, 50)">
    <path d="M9,2 C6,2 4,4 4,6.5 C2.5,7 1.5,8.5 1.5,10 C1.5,12 3,13.5 5,13.5 L5,18 L13,18 L13,13.5 C15,13.5 16.5,12 16.5,10 C16.5,8.5 15.5,7 14,6.5 C14,4 12,2 9,2Z" fill="none" stroke="#94a3b8" stroke-width="1.5"/>
    <line x1="9" y1="7" x2="9" y2="14" stroke="#94a3b8" stroke-width="1.2"/>
    <line x1="6" y1="9.5" x2="12" y2="9.5" stroke="#94a3b8" stroke-width="1.2"/>
  </g>
  <text x="386" y="69" fill="#f7f8f8" font-family="'Inter', sans-serif" font-size="13" font-weight="500" text-anchor="start">AI Agent</text>

  <!-- App card 3: LLM App -->
  <rect x="575" y="35.5" width="130" height="55" rx="8" fill="rgba(255,255,255,0.04)" stroke="rgba(255,255,255,0.1)" stroke-width="1"/>
  <!-- Sparkle icon -->
  <g transform="translate(600, 49)">
    <path d="M10,1 L11.5,7 L18,8.5 L11.5,10 L10,16 L8.5,10 L2,8.5 L8.5,7 Z" fill="none" stroke="#94a3b8" stroke-width="1.5" stroke-linejoin="round"/>
    <circle cx="16" cy="3" r="1.5" fill="none" stroke="#94a3b8" stroke-width="1"/>
    <circle cx="3" cy="14" r="1" fill="none" stroke="#94a3b8" stroke-width="1"/>
  </g>
  <text x="626" y="69" fill="#f7f8f8" font-family="'Inter', sans-serif" font-size="13" font-weight="500" text-anchor="start">LLM App</text>

  <!-- App card 4: Custom AI -->
  <rect x="815" y="35.5" width="130" height="55" rx="8" fill="rgba(255,255,255,0.04)" stroke="rgba(255,255,255,0.1)" stroke-width="1"/>
  <!-- Code icon -->
  <g transform="translate(840, 50)">
    <polyline points="6,3 1,9 6,15" fill="none" stroke="#94a3b8" stroke-width="1.5" stroke-linecap="round" stroke-linejoin="round"/>
    <polyline points="14,3 19,9 14,15" fill="none" stroke="#94a3b8" stroke-width="1.5" stroke-linecap="round" stroke-linejoin="round"/>
    <line x1="12" y1="1" x2="8" y2="17" stroke="#94a3b8" stroke-width="1.3" stroke-linecap="round"/>
  </g>
  <text x="866" y="69" fill="#f7f8f8" font-family="'Inter', sans-serif" font-size="13" font-weight="500" text-anchor="start">Custom AI</text>

  <!-- ============================================ -->
  <!-- ARROWS: Top layer to MCP layer              -->
  <!-- ============================================ -->

  <!-- Arrow from Chatbot -->
  <line x1="160" y1="91" x2="160" y2="130" stroke="#1ab759" stroke-width="1.5" opacity="0.5" marker-start="url(#arrowUp)" marker-end="url(#arrowDown)"/>
  <!-- Arrow from AI Agent -->
  <line x1="400" y1="91" x2="400" y2="130" stroke="#1ab759" stroke-width="1.5" opacity="0.5" marker-start="url(#arrowUp)" marker-end="url(#arrowDown)"/>
  <!-- Arrow from LLM App -->
  <line x1="640" y1="91" x2="640" y2="130" stroke="#1ab759" stroke-width="1.5" opacity="0.5" marker-start="url(#arrowUp)" marker-end="url(#arrowDown)"/>
  <!-- Arrow from Custom AI -->
  <line x1="880" y1="91" x2="880" y2="130" stroke="#1ab759" stroke-width="1.5" opacity="0.5" marker-start="url(#arrowUp)" marker-end="url(#arrowDown)"/>

  <!-- ============================================ -->
  <!-- MIDDLE LAYER: MCP PROTOCOL (Visual star)     -->
  <!-- ============================================ -->

  <g filter="url(#greenGlow)">
    <rect x="40" y="132" width="1040" height="86" rx="12" fill="rgba(26,183,89,0.06)" stroke="#1ab759" stroke-width="2"/>
  </g>

  <!-- MCP Protocol label -->
  <text x="72" y="183" fill="#1ab759" font-family="'Inter', sans-serif" font-size="18" font-weight="700" letter-spacing="0.5">MCP Protocol</text>

  <!-- Vertical separator line -->
  <line x1="240" y1="148" x2="240" y2="202" stroke="rgba(26,183,89,0.25)" stroke-width="1"/>

  <!-- Capability 1: Discover Tools -->
  <g transform="translate(310, 160)">
    <!-- Search/magnifier icon -->
    <circle cx="9" cy="9" r="7" fill="none" stroke="#1ab759" stroke-width="1.8"/>
    <line x1="14" y1="14" x2="19" y2="19" stroke="#1ab759" stroke-width="1.8" stroke-linecap="round"/>
  </g>
  <text x="340" y="177" fill="#f7f8f8" font-family="'Inter', sans-serif" font-size="14" font-weight="500">Discover Tools</text>

  <!-- Capability 2: Understand Capabilities -->
  <g transform="translate(550, 158)">
    <!-- Lightbulb icon -->
    <path d="M10,2 C5.5,2 2,5.5 2,9.5 C2,12 3.5,14 5.5,15.5 L5.5,19 C5.5,19.8 6.2,20.5 7,20.5 L13,20.5 C13.8,20.5 14.5,19.8 14.5,19 L14.5,15.5 C16.5,14 18,12 18,9.5 C18,5.5 14.5,2 10,2Z" fill="none" stroke="#1ab759" stroke-width="1.8"/>
    <line x1="7" y1="17" x2="13" y2="17" stroke="#1ab759" stroke-width="1.2"/>
    <path d="M8,9.5 L10,7 L12,9.5" fill="none" stroke="#1ab759" stroke-width="1.2" stroke-linecap="round" stroke-linejoin="round"/>
    <line x1="10" y1="7" x2="10" y2="13" stroke="#1ab759" stroke-width="1.2" stroke-linecap="round"/>
  </g>
  <text x="578" y="177" fill="#f7f8f8" font-family="'Inter', sans-serif" font-size="14" font-weight="500">Understand Capabilities</text>

  <!-- Capability 3: Execute Operations -->
  <g transform="translate(810, 160)">
    <!-- Play/execute icon -->
    <circle cx="10" cy="10" r="10" fill="none" stroke="#1ab759" stroke-width="1.8"/>
    <polygon points="8,5 17,10 8,15" fill="#1ab759" opacity="0.8"/>
  </g>
  <text x="840" y="177" fill="#f7f8f8" font-family="'Inter', sans-serif" font-size="14" font-weight="500">Execute Operations</text>

  <!-- ============================================ -->
  <!-- ARROWS: MCP layer to Bottom layer           -->
  <!-- ============================================ -->

  <!-- Arrow to 500+ Connectors -->
  <line x1="280" y1="219" x2="280" y2="258" stroke="#1ab759" stroke-width="1.5" opacity="0.5" marker-start="url(#arrowUp)" marker-end="url(#arrowDown)"/>
  <!-- Arrow to Automations -->
  <line x1="560" y1="219" x2="560" y2="258" stroke="#1ab759" stroke-width="1.5" opacity="0.5" marker-start="url(#arrowUp)" marker-end="url(#arrowDown)"/>
  <!-- Arrow to Business Logic -->
  <line x1="840" y1="219" x2="840" y2="258" stroke="#1ab759" stroke-width="1.5" opacity="0.5" marker-start="url(#arrowUp)" marker-end="url(#arrowDown)"/>

  <!-- ============================================ -->
  <!-- BOTTOM LAYER: APIANT PLATFORM               -->
  <!-- ============================================ -->

  <!-- Layer label -->
  <text x="40" y="253" fill="#1ab759" font-family="'Inter', sans-serif" font-size="11" font-weight="600" letter-spacing="1.5" text-anchor="start">APIANT PLATFORM</text>

  <!-- Background band -->
  <rect x="40" y="260" width="1040" height="70" rx="10" fill="rgba(26,183,89,0.03)" stroke="rgba(26,183,89,0.15)" stroke-width="1"/>

  <!-- Card 1: 500+ Connectors -->
  <rect x="155" y="267.5" width="150" height="55" rx="8" fill="rgba(26,183,89,0.06)" stroke="rgba(26,183,89,0.2)" stroke-width="1"/>
  <!-- Connector/plug icon -->
  <g transform="translate(175, 283)">
    <circle cx="4" cy="8" r="3" fill="none" stroke="#1ab759" stroke-width="1.4"/>
    <line x1="7" y1="8" x2="11" y2="8" stroke="#1ab759" stroke-width="1.4"/>
    <circle cx="14" cy="8" r="3" fill="none" stroke="#1ab759" stroke-width="1.4"/>
    <line x1="4" y1="5" x2="4" y2="2" stroke="#1ab759" stroke-width="1.2" stroke-linecap="round"/>
    <line x1="14" y1="5" x2="14" y2="2" stroke="#1ab759" stroke-width="1.2" stroke-linecap="round"/>
  </g>
  <text x="198" y="302" fill="#f7f8f8" font-family="'Inter', sans-serif" font-size="13" font-weight="500" text-anchor="start">500+ Connectors</text>

  <!-- Card 2: Automations -->
  <rect x="435" y="267.5" width="150" height="55" rx="8" fill="rgba(26,183,89,0.06)" stroke="rgba(26,183,89,0.2)" stroke-width="1"/>
  <!-- Automation/gear+flow icon -->
  <g transform="translate(460, 282)">
    <circle cx="6" cy="9" r="5" fill="none" stroke="#1ab759" stroke-width="1.4"/>
    <path d="M6,5 L6,3 M6,13 L6,15 M2,9 L0,9 M12,9 L10,9 M3.2,6.2 L1.8,4.8 M8.8,11.8 L10.2,13.2 M3.2,11.8 L1.8,13.2 M8.8,6.2 L10.2,4.8" stroke="#1ab759" stroke-width="1" stroke-linecap="round"/>
    <line x1="13" y1="9" x2="20" y2="9" stroke="#1ab759" stroke-width="1.4" stroke-linecap="round"/>
    <polyline points="17,6 20,9 17,12" fill="none" stroke="#1ab759" stroke-width="1.4" stroke-linecap="round" stroke-linejoin="round"/>
  </g>
  <text x="487" y="302" fill="#f7f8f8" font-family="'Inter', sans-serif" font-size="13" font-weight="500" text-anchor="start">Automations</text>

  <!-- Card 3: Business Logic -->
  <rect x="715" y="267.5" width="150" height="55" rx="8" fill="rgba(26,183,89,0.06)" stroke="rgba(26,183,89,0.2)" stroke-width="1"/>
  <!-- Logic/branch icon -->
  <g transform="translate(740, 282)">
    <circle cx="3" cy="4" r="2.5" fill="none" stroke="#1ab759" stroke-width="1.4"/>
    <circle cx="17" cy="4" r="2.5" fill="none" stroke="#1ab759" stroke-width="1.4"/>
    <circle cx="10" cy="14" r="2.5" fill="none" stroke="#1ab759" stroke-width="1.4"/>
    <line x1="5" y1="5.5" x2="8.5" y2="12" stroke="#1ab759" stroke-width="1.3"/>
    <line x1="15" y1="5.5" x2="11.5" y2="12" stroke="#1ab759" stroke-width="1.3"/>
  </g>
  <text x="764" y="302" fill="#f7f8f8" font-family="'Inter', sans-serif" font-size="13" font-weight="500" text-anchor="start">Business Logic</text>

</svg>