<?xml version="1.0" encoding="UTF-8"?>
<svg width="81px" height="17px" viewBox="0 0 81 17" version="1.1" xmlns="http://www.w3.org/2000/svg" xmlns:xlink="http://www.w3.org/1999/xlink">
    <title>Shape</title>
    <g id="Page-1" stroke="none" stroke-width="1" fill="none" fill-rule="evenodd">
        <g id="mindbody-wordmark-white" fill="#949494" fill-rule="nonzero">
            <path d="M14.352228,7.69135632 L14.352228,13.332931 L12.248172,13.332931 L12.248172,8.48112282 C12.248172,6.63829369 11.609487,5.96132195 10.294533,5.96132195 C8.941914,5.96132195 8.228142,6.92040654 8.228142,8.65044091 L8.228142,13.332931 L6.1240941,13.332931 L6.1240941,8.48112282 C6.1240941,6.63829369 5.5041363,5.96132195 4.2079257,5.96132195 C2.7802683,5.96132195 2.1040074,6.92040654 2.1040074,8.65044091 L2.1040074,13.332931 L0,13.332931 L0,4.15597191 L2.1040074,4.15597191 L2.1040074,5.51000475 L2.1415833,5.51000475 C2.8929798,4.49446184 3.9074562,4.02438479 5.0345631,4.02438479 C6.4246527,4.02438479 7.3827288,4.64498757 7.8711426,5.75442728 C8.772786,4.60728911 9.88119,4.02438479 11.121057,4.02438479 C13.225032,4.02438479 14.352228,5.41593735 14.352228,7.69135632 Z M16.056549,13.332931 L18.160443,13.332931 L18.160443,4.15598004 L16.056549,4.15598004 L16.056549,13.332931 Z M17.108496,0 C16.319556,0 15.699582,0.639359558 15.699582,1.39163478 C15.699582,2.16259268 16.319556,2.80204469 17.108496,2.80204469 C17.897598,2.80204469 18.536283,2.16259268 18.536283,1.39163478 C18.536283,0.639359558 17.897598,0 17.108496,0 Z M25.227207,4.02438479 C24.025005,4.02438479 22.935393,4.47570198 22.165245,5.51000475 L22.127661,5.51000475 L22.127661,4.15597191 L20.023686,4.15597191 L20.023686,13.332931 L22.127661,13.332931 L22.127661,8.65044091 C22.127661,6.92040654 22.860225,5.96132195 24.400683,5.96132195 C25.809597,5.96132195 26.485866,6.63829369 26.485866,8.48112282 L26.485866,13.332931 L28.589922,13.332931 L28.589922,7.69135632 C28.589922,5.41593735 27.425142,4.02438479 25.227207,4.02438479 Z M37.030446,0.188030173 L39.11571,0.188030173 L39.11571,13.332931 L37.105614,13.332931 L37.105614,12.0165722 L37.068111,12.0165722 C36.410634,12.9944573 35.414982,13.4833998 34.100028,13.4833998 C31.563918,13.4833998 29.647782,11.6216321 29.647782,8.78206053 C29.647782,6.01768278 31.563918,4.02437666 34.081155,4.02437666 C35.283438,4.02437666 36.316674,4.41931679 36.993024,5.28433397 L37.030446,5.28433397 L37.030446,0.188030173 L37.030446,0.188030173 Z M37.105614,8.74452457 C37.105614,6.95800751 36.110043,5.92369661 34.438041,5.92369661 C32.972832,5.92369661 31.789422,7.01437646 31.789422,8.74452457 C31.789422,10.3994382 32.878953,11.5653281 34.41933,11.5653281 C36.016083,11.5653281 37.105614,10.624979 37.105614,8.74452457 Z M50.329755,8.78206053 C50.329755,11.6216321 48.4137,13.4833998 45.87759,13.4833998 C44.562636,13.4833998 43.566984,12.9944573 42.909426,12.0165722 L42.871842,12.0165722 L42.871842,13.332931 L40.861827,13.332931 L40.861827,0.188030173 L42.947091,0.188030173 L42.947091,5.28433397 L42.984594,5.28433397 C43.660863,4.41931679 44.69418,4.02437666 45.896382,4.02437666 C48.4137,4.02437666 50.329755,6.01768278 50.329755,8.78206053 Z M48.188277,8.74452457 C48.188277,7.01437646 47.004786,5.92369661 45.539496,5.92369661 C43.867575,5.92369661 42.871842,6.95800751 42.871842,8.74452457 C42.871842,10.624979 43.961535,11.5653281 45.558288,11.5653281 C47.098665,11.5653281 48.188277,10.3994382 48.188277,8.74452457 Z M60.7687121,8.7670299 C60.766929,11.5481851 58.776273,13.4833998 55.95966,13.4833998 C53.066664,13.4833998 51.150528,11.4523953 51.150528,8.7632113 C51.150528,6.06459461 53.053542,4.03834297 55.929933,4.0243828 C58.588839,4.01158843 60.770493,6.1052992 60.7687121,8.7670299 Z M58.627233,8.7632113 C58.627233,7.01436833 57.462615,5.82962108 55.95966,5.82962108 C54.362826,5.82962108 53.292168,7.10843574 53.292168,8.7632113 C53.292168,10.3805078 54.381699,11.6592493 55.95966,11.6592493 C57.443742,11.6592493 58.627233,10.4745914 58.627233,8.7632113 Z M68.973039,0.188030173 L71.058303,0.188030173 L71.058303,13.332931 L69.048207,13.332931 L69.048207,12.0165722 L69.010704,12.0165722 C68.353146,12.9944573 67.357656,13.4833998 66.042621,13.4833998 C63.506511,13.4833998 61.590294,11.6216321 61.590294,8.78206053 C61.590294,6.01768278 63.506511,4.02437666 66.023748,4.02437666 C67.226031,4.02437666 68.259186,4.41931679 68.935536,5.28433397 L68.973039,5.28433397 L68.973039,0.188030173 L68.973039,0.188030173 Z M69.048207,8.74452457 C69.048207,6.95800751 68.052636,5.92369661 66.380715,5.92369661 C64.915425,5.92369661 63.731934,7.01437646 63.731934,8.74452457 C63.731934,10.3994382 64.821546,11.5653281 66.361923,11.5653281 C67.958676,11.5653281 69.048207,10.624979 69.048207,8.74452457 Z M78.896106,4.15594754 L78.896106,8.53767051 C78.896106,10.2677374 78.182253,11.2267732 76.679379,11.2267732 C75.308049,11.2267732 74.650491,10.5497446 74.650491,8.70690735 L74.650491,4.15594754 L72.546597,4.15594754 L72.546597,9.53432357 C72.546597,11.8097182 73.692423,13.2013113 75.852774,13.2013113 C77.036265,13.2013113 78.182253,12.7124501 78.858441,11.753333 L78.896106,11.753333 L78.896106,12.5055148 C78.896106,14.12273 77.975541,15.1006963 76.172076,15.1006963 C74.857122,15.1006963 74.04939,14.7246054 73.053819,14.1980457 L72.546597,16.0409642 C73.579752,16.6615263 74.913498,17 76.284909,17 C79.703838,17 81,14.9126102 81,12.0353402 L81,4.15594754 L78.896106,4.15594754 L78.896106,4.15594754 Z" id="Shape"></path>
        </g>
    </g>
</svg>