<svg xmlns="http://www.w3.org/2000/svg" viewBox="0 0 1052 300" width="1052" height="300">
  <defs>
    <!-- Green glow behind master block -->
    <radialGradient id="greenGlow" cx="50%" cy="50%" r="60%" fx="50%" fy="50%">
      <stop offset="0%" stop-color="#1ab759" stop-opacity="0.15"/>
      <stop offset="60%" stop-color="#1ab759" stop-opacity="0.05"/>
      <stop offset="100%" stop-color="#1ab759" stop-opacity="0"/>
    </radialGradient>

    <!-- Arrowhead marker -->
    <marker id="arrowGreen" markerWidth="8" markerHeight="6" refX="7" refY="3" orient="auto" markerUnits="strokeWidth">
      <path d="M0,0 L8,3 L0,6 Z" fill="#1ab759"/>
    </marker>

    <!-- Card gradient fill -->
    <linearGradient id="cardFill" x1="0" y1="0" x2="1" y2="1">
      <stop offset="0%" stop-color="rgba(255,255,255,0.05)"/>
      <stop offset="100%" stop-color="rgba(255,255,255,0.02)"/>
    </linearGradient>
  </defs>

  <!-- Background -->
  <rect width="1052" height="300" rx="0" ry="0" fill="#0c0c0c"/>

  <!-- ============ LEFT SIDE: Master Codebase ============ -->

  <!-- Green glow behind master block -->
  <ellipse cx="165" cy="115" rx="160" ry="110" fill="url(#greenGlow)"/>

  <!-- Master codebase rounded rect -->
  <rect x="45" y="30" width="240" height="160" rx="12" ry="12"
        fill="rgba(255,255,255,0.03)" stroke="rgba(255,255,255,0.12)" stroke-width="1.5"/>

  <!-- Master block subtle inner border highlight -->
  <rect x="45" y="30" width="240" height="160" rx="12" ry="12"
        fill="none" stroke="#1ab759" stroke-width="0.5" stroke-opacity="0.3"/>

  <!-- "Master Codebase" label -->
  <text x="165" y="62" text-anchor="middle" fill="#f7f8f8" font-family="'Inter', sans-serif" font-size="15" font-weight="600">Master Codebase</text>

  <!-- Divider line under title -->
  <line x1="70" y1="74" x2="260" y2="74" stroke="rgba(255,255,255,0.08)" stroke-width="1"/>

  <!-- === Icon 1: Branch/Conditional (lines forking) === -->
  <g transform="translate(90, 95)">
    <!-- Background circle -->
    <circle cx="20" cy="20" r="20" fill="rgba(26,183,89,0.08)" stroke="rgba(26,183,89,0.25)" stroke-width="1"/>
    <!-- Fork icon -->
    <circle cx="14" cy="12" r="2.5" fill="none" stroke="#1ab759" stroke-width="1.5"/>
    <circle cx="26" cy="12" r="2.5" fill="none" stroke="#1ab759" stroke-width="1.5"/>
    <circle cx="20" cy="28" r="2.5" fill="none" stroke="#1ab759" stroke-width="1.5"/>
    <line x1="14" y1="14.5" x2="14" y2="20" stroke="#1ab759" stroke-width="1.5"/>
    <line x1="26" y1="14.5" x2="26" y2="20" stroke="#1ab759" stroke-width="1.5"/>
    <path d="M14,20 Q14,25.5 20,25.5" fill="none" stroke="#1ab759" stroke-width="1.5"/>
    <path d="M26,20 Q26,25.5 20,25.5" fill="none" stroke="#1ab759" stroke-width="1.5"/>
  </g>
  <text x="110" y="142" text-anchor="middle" fill="rgba(255,255,255,0.5)" font-family="'Inter', sans-serif" font-size="9.5">Branching</text>

  <!-- === Icon 2: Loop/Cycle (circular arrow) === -->
  <g transform="translate(145, 95)">
    <circle cx="20" cy="20" r="20" fill="rgba(26,183,89,0.08)" stroke="rgba(26,183,89,0.25)" stroke-width="1"/>
    <!-- Circular arrow -->
    <path d="M20,10 A10,10 0 1,1 11,16" fill="none" stroke="#1ab759" stroke-width="1.5" stroke-linecap="round"/>
    <!-- Arrow tip -->
    <polygon points="11,12 8,17 14,17" fill="#1ab759"/>
  </g>
  <text x="165" y="142" text-anchor="middle" fill="rgba(255,255,255,0.5)" font-family="'Inter', sans-serif" font-size="9.5">Loops</text>

  <!-- === Icon 3: API (two connected nodes) === -->
  <g transform="translate(200, 95)">
    <circle cx="20" cy="20" r="20" fill="rgba(26,183,89,0.08)" stroke="rgba(26,183,89,0.25)" stroke-width="1"/>
    <!-- Two nodes with connection -->
    <circle cx="12" cy="20" r="4" fill="none" stroke="#1ab759" stroke-width="1.5"/>
    <circle cx="28" cy="20" r="4" fill="none" stroke="#1ab759" stroke-width="1.5"/>
    <line x1="16" y1="20" x2="24" y2="20" stroke="#1ab759" stroke-width="1.5"/>
    <!-- Small dots at connection points -->
    <circle cx="12" cy="20" r="1.5" fill="#1ab759"/>
    <circle cx="28" cy="20" r="1.5" fill="#1ab759"/>
  </g>
  <text x="220" y="142" text-anchor="middle" fill="rgba(255,255,255,0.5)" font-family="'Inter', sans-serif" font-size="9.5">API Calls</text>

  <!-- === "Deploy to All" button === -->
  <rect x="82" y="210" width="166" height="40" rx="8" ry="8" fill="#1ab759"/>
  <!-- Slight highlight on top -->
  <rect x="82" y="210" width="166" height="20" rx="8" ry="8" fill="rgba(255,255,255,0.08)"/>
  <rect x="82" y="220" width="166" height="10" fill="rgba(255,255,255,0.08)"/>

  <!-- Button text -->
  <text x="152" y="235" text-anchor="middle" fill="#0c0c0c" font-family="'Inter', sans-serif" font-size="13.5" font-weight="700">Deploy to All</text>

  <!-- Rocket/arrow icon on button -->
  <g transform="translate(222, 221)">
    <path d="M2,14 L6,10 L4,8 L8,4 L12,2 L10,6 L8,4 L4,8 Z" fill="#0c0c0c" opacity="0.7"/>
    <path d="M2,12 L5,15" stroke="#0c0c0c" stroke-width="1.2" stroke-linecap="round" opacity="0.5"/>
    <path d="M5,13 L7,15" stroke="#0c0c0c" stroke-width="1.2" stroke-linecap="round" opacity="0.5"/>
  </g>

  <!-- Upward arrow icon (cleaner) -->
  <g transform="translate(228, 222)">
    <path d="M0,12 L5,4 L10,12" fill="none" stroke="#0c0c0c" stroke-width="2" stroke-linecap="round" stroke-linejoin="round"/>
    <line x1="5" y1="4" x2="5" y2="16" stroke="#0c0c0c" stroke-width="2" stroke-linecap="round"/>
  </g>


  <!-- ============ CONNECTIONS: Bezier curves from master to deployments ============ -->

  <!-- Connection point on master block: right edge center = (285, 110) -->
  <!-- Deployment cards start at x=620, centers at y = 28, 85, 142, 199, 256 -->

  <path d="M285,100 Q420,50 615,28" fill="none" stroke="#1ab759" stroke-width="1.5" stroke-opacity="0.7" marker-end="url(#arrowGreen)"/>
  <path d="M285,105 Q440,75 615,85" fill="none" stroke="#1ab759" stroke-width="1.5" stroke-opacity="0.7" marker-end="url(#arrowGreen)"/>
  <path d="M285,110 Q450,110 615,142" fill="none" stroke="#1ab759" stroke-width="1.5" stroke-opacity="0.7" marker-end="url(#arrowGreen)"/>
  <path d="M285,115 Q440,145 615,199" fill="none" stroke="#1ab759" stroke-width="1.5" stroke-opacity="0.7" marker-end="url(#arrowGreen)"/>
  <path d="M285,120 Q420,170 615,256" fill="none" stroke="#1ab759" stroke-width="1.5" stroke-opacity="0.7" marker-end="url(#arrowGreen)"/>

  <!-- Small glowing dots at the origin point on master block -->
  <circle cx="285" cy="100" r="2.5" fill="#1ab759" opacity="0.6"/>
  <circle cx="285" cy="105" r="2.5" fill="#1ab759" opacity="0.6"/>
  <circle cx="285" cy="110" r="2.5" fill="#1ab759" opacity="0.6"/>
  <circle cx="285" cy="115" r="2.5" fill="#1ab759" opacity="0.6"/>
  <circle cx="285" cy="120" r="2.5" fill="#1ab759" opacity="0.6"/>


  <!-- ============ RIGHT SIDE: Deployment Cards ============ -->

  <!-- Card 1: Location A -->
  <g transform="translate(620, 6)">
    <rect width="390" height="45" rx="8" ry="8" fill="rgba(255,255,255,0.03)" stroke="rgba(255,255,255,0.07)" stroke-width="1"/>
    <!-- Green status dot -->
    <circle cx="18" cy="22.5" r="4" fill="#1ab759"/>
    <circle cx="18" cy="22.5" r="6" fill="#1ab759" opacity="0.2"/>
    <!-- Location label -->
    <text x="34" y="19" fill="#f7f8f8" font-family="'Inter', sans-serif" font-size="13" font-weight="600">Location A</text>
    <text x="34" y="34" fill="rgba(255,255,255,0.45)" font-family="'Inter', sans-serif" font-size="10.5">EST, Custom Objects ON</text>
    <!-- Gear icon -->
    <g transform="translate(354, 11)">
      <circle cx="12" cy="12" r="4.5" fill="none" stroke="rgba(255,255,255,0.3)" stroke-width="1.2"/>
      <circle cx="12" cy="12" r="1.5" fill="rgba(255,255,255,0.3)"/>
      <!-- Gear teeth -->
      <line x1="12" y1="5" x2="12" y2="7" stroke="rgba(255,255,255,0.3)" stroke-width="1.5" stroke-linecap="round"/>
      <line x1="12" y1="17" x2="12" y2="19" stroke="rgba(255,255,255,0.3)" stroke-width="1.5" stroke-linecap="round"/>
      <line x1="5" y1="12" x2="7" y2="12" stroke="rgba(255,255,255,0.3)" stroke-width="1.5" stroke-linecap="round"/>
      <line x1="17" y1="12" x2="19" y2="12" stroke="rgba(255,255,255,0.3)" stroke-width="1.5" stroke-linecap="round"/>
      <line x1="7" y1="7" x2="8.5" y2="8.5" stroke="rgba(255,255,255,0.3)" stroke-width="1.5" stroke-linecap="round"/>
      <line x1="15.5" y1="15.5" x2="17" y2="17" stroke="rgba(255,255,255,0.3)" stroke-width="1.5" stroke-linecap="round"/>
      <line x1="7" y1="17" x2="8.5" y2="15.5" stroke="rgba(255,255,255,0.3)" stroke-width="1.5" stroke-linecap="round"/>
      <line x1="15.5" y1="8.5" x2="17" y2="7" stroke="rgba(255,255,255,0.3)" stroke-width="1.5" stroke-linecap="round"/>
    </g>
  </g>

  <!-- Card 2: Location B -->
  <g transform="translate(620, 63)">
    <rect width="390" height="45" rx="8" ry="8" fill="rgba(255,255,255,0.03)" stroke="rgba(255,255,255,0.07)" stroke-width="1"/>
    <circle cx="18" cy="22.5" r="4" fill="#1ab759"/>
    <circle cx="18" cy="22.5" r="6" fill="#1ab759" opacity="0.2"/>
    <text x="34" y="19" fill="#f7f8f8" font-family="'Inter', sans-serif" font-size="13" font-weight="600">Location B</text>
    <text x="34" y="34" fill="rgba(255,255,255,0.45)" font-family="'Inter', sans-serif" font-size="10.5">PST, Custom Objects OFF</text>
    <g transform="translate(354, 11)">
      <circle cx="12" cy="12" r="4.5" fill="none" stroke="rgba(255,255,255,0.3)" stroke-width="1.2"/>
      <circle cx="12" cy="12" r="1.5" fill="rgba(255,255,255,0.3)"/>
      <line x1="12" y1="5" x2="12" y2="7" stroke="rgba(255,255,255,0.3)" stroke-width="1.5" stroke-linecap="round"/>
      <line x1="12" y1="17" x2="12" y2="19" stroke="rgba(255,255,255,0.3)" stroke-width="1.5" stroke-linecap="round"/>
      <line x1="5" y1="12" x2="7" y2="12" stroke="rgba(255,255,255,0.3)" stroke-width="1.5" stroke-linecap="round"/>
      <line x1="17" y1="12" x2="19" y2="12" stroke="rgba(255,255,255,0.3)" stroke-width="1.5" stroke-linecap="round"/>
      <line x1="7" y1="7" x2="8.5" y2="8.5" stroke="rgba(255,255,255,0.3)" stroke-width="1.5" stroke-linecap="round"/>
      <line x1="15.5" y1="15.5" x2="17" y2="17" stroke="rgba(255,255,255,0.3)" stroke-width="1.5" stroke-linecap="round"/>
      <line x1="7" y1="17" x2="8.5" y2="15.5" stroke="rgba(255,255,255,0.3)" stroke-width="1.5" stroke-linecap="round"/>
      <line x1="15.5" y1="8.5" x2="17" y2="7" stroke="rgba(255,255,255,0.3)" stroke-width="1.5" stroke-linecap="round"/>
    </g>
  </g>

  <!-- Card 3: Location C -->
  <g transform="translate(620, 120)">
    <rect width="390" height="45" rx="8" ry="8" fill="rgba(255,255,255,0.03)" stroke="rgba(255,255,255,0.07)" stroke-width="1"/>
    <circle cx="18" cy="22.5" r="4" fill="#1ab759"/>
    <circle cx="18" cy="22.5" r="6" fill="#1ab759" opacity="0.2"/>
    <text x="34" y="19" fill="#f7f8f8" font-family="'Inter', sans-serif" font-size="13" font-weight="600">Location C</text>
    <text x="34" y="34" fill="rgba(255,255,255,0.45)" font-family="'Inter', sans-serif" font-size="10.5">CST, Premium Tier</text>
    <g transform="translate(354, 11)">
      <circle cx="12" cy="12" r="4.5" fill="none" stroke="rgba(255,255,255,0.3)" stroke-width="1.2"/>
      <circle cx="12" cy="12" r="1.5" fill="rgba(255,255,255,0.3)"/>
      <line x1="12" y1="5" x2="12" y2="7" stroke="rgba(255,255,255,0.3)" stroke-width="1.5" stroke-linecap="round"/>
      <line x1="12" y1="17" x2="12" y2="19" stroke="rgba(255,255,255,0.3)" stroke-width="1.5" stroke-linecap="round"/>
      <line x1="5" y1="12" x2="7" y2="12" stroke="rgba(255,255,255,0.3)" stroke-width="1.5" stroke-linecap="round"/>
      <line x1="17" y1="12" x2="19" y2="12" stroke="rgba(255,255,255,0.3)" stroke-width="1.5" stroke-linecap="round"/>
      <line x1="7" y1="7" x2="8.5" y2="8.5" stroke="rgba(255,255,255,0.3)" stroke-width="1.5" stroke-linecap="round"/>
      <line x1="15.5" y1="15.5" x2="17" y2="17" stroke="rgba(255,255,255,0.3)" stroke-width="1.5" stroke-linecap="round"/>
      <line x1="7" y1="17" x2="8.5" y2="15.5" stroke="rgba(255,255,255,0.3)" stroke-width="1.5" stroke-linecap="round"/>
      <line x1="15.5" y1="8.5" x2="17" y2="7" stroke="rgba(255,255,255,0.3)" stroke-width="1.5" stroke-linecap="round"/>
    </g>
  </g>

  <!-- Card 4: Location D -->
  <g transform="translate(620, 177)">
    <rect width="390" height="45" rx="8" ry="8" fill="rgba(255,255,255,0.03)" stroke="rgba(255,255,255,0.07)" stroke-width="1"/>
    <circle cx="18" cy="22.5" r="4" fill="#1ab759"/>
    <circle cx="18" cy="22.5" r="6" fill="#1ab759" opacity="0.2"/>
    <text x="34" y="19" fill="#f7f8f8" font-family="'Inter', sans-serif" font-size="13" font-weight="600">Location D</text>
    <text x="34" y="34" fill="rgba(255,255,255,0.45)" font-family="'Inter', sans-serif" font-size="10.5">MST, Basic Tier</text>
    <g transform="translate(354, 11)">
      <circle cx="12" cy="12" r="4.5" fill="none" stroke="rgba(255,255,255,0.3)" stroke-width="1.2"/>
      <circle cx="12" cy="12" r="1.5" fill="rgba(255,255,255,0.3)"/>
      <line x1="12" y1="5" x2="12" y2="7" stroke="rgba(255,255,255,0.3)" stroke-width="1.5" stroke-linecap="round"/>
      <line x1="12" y1="17" x2="12" y2="19" stroke="rgba(255,255,255,0.3)" stroke-width="1.5" stroke-linecap="round"/>
      <line x1="5" y1="12" x2="7" y2="12" stroke="rgba(255,255,255,0.3)" stroke-width="1.5" stroke-linecap="round"/>
      <line x1="17" y1="12" x2="19" y2="12" stroke="rgba(255,255,255,0.3)" stroke-width="1.5" stroke-linecap="round"/>
      <line x1="7" y1="7" x2="8.5" y2="8.5" stroke="rgba(255,255,255,0.3)" stroke-width="1.5" stroke-linecap="round"/>
      <line x1="15.5" y1="15.5" x2="17" y2="17" stroke="rgba(255,255,255,0.3)" stroke-width="1.5" stroke-linecap="round"/>
      <line x1="7" y1="17" x2="8.5" y2="15.5" stroke="rgba(255,255,255,0.3)" stroke-width="1.5" stroke-linecap="round"/>
      <line x1="15.5" y1="8.5" x2="17" y2="7" stroke="rgba(255,255,255,0.3)" stroke-width="1.5" stroke-linecap="round"/>
    </g>
  </g>

  <!-- Card 5: Location E -->
  <g transform="translate(620, 234)">
    <rect width="390" height="45" rx="8" ry="8" fill="rgba(255,255,255,0.03)" stroke="rgba(255,255,255,0.07)" stroke-width="1"/>
    <circle cx="18" cy="22.5" r="4" fill="#1ab759"/>
    <circle cx="18" cy="22.5" r="6" fill="#1ab759" opacity="0.2"/>
    <text x="34" y="19" fill="#f7f8f8" font-family="'Inter', sans-serif" font-size="13" font-weight="600">Location E</text>
    <text x="34" y="34" fill="rgba(255,255,255,0.45)" font-family="'Inter', sans-serif" font-size="10.5">HST, Enterprise</text>
    <g transform="translate(354, 11)">
      <circle cx="12" cy="12" r="4.5" fill="none" stroke="rgba(255,255,255,0.3)" stroke-width="1.2"/>
      <circle cx="12" cy="12" r="1.5" fill="rgba(255,255,255,0.3)"/>
      <line x1="12" y1="5" x2="12" y2="7" stroke="rgba(255,255,255,0.3)" stroke-width="1.5" stroke-linecap="round"/>
      <line x1="12" y1="17" x2="12" y2="19" stroke="rgba(255,255,255,0.3)" stroke-width="1.5" stroke-linecap="round"/>
      <line x1="5" y1="12" x2="7" y2="12" stroke="rgba(255,255,255,0.3)" stroke-width="1.5" stroke-linecap="round"/>
      <line x1="17" y1="12" x2="19" y2="12" stroke="rgba(255,255,255,0.3)" stroke-width="1.5" stroke-linecap="round"/>
      <line x1="7" y1="7" x2="8.5" y2="8.5" stroke="rgba(255,255,255,0.3)" stroke-width="1.5" stroke-linecap="round"/>
      <line x1="15.5" y1="15.5" x2="17" y2="17" stroke="rgba(255,255,255,0.3)" stroke-width="1.5" stroke-linecap="round"/>
      <line x1="7" y1="17" x2="8.5" y2="15.5" stroke="rgba(255,255,255,0.3)" stroke-width="1.5" stroke-linecap="round"/>
      <line x1="15.5" y1="8.5" x2="17" y2="7" stroke="rgba(255,255,255,0.3)" stroke-width="1.5" stroke-linecap="round"/>
    </g>
  </g>

  <!-- Fade hint at bottom-right implying more cards -->
  <g opacity="0.25">
    <rect x="620" y="288" width="390" height="12" rx="6" ry="6" fill="rgba(255,255,255,0.03)" stroke="rgba(255,255,255,0.04)" stroke-width="1"/>
  </g>

</svg>