<svg xmlns="http://www.w3.org/2000/svg" viewBox="0 0 526 395" width="526" height="395">
  <defs>
    <style>
      .font-inter { font-family: 'Inter', 'Segoe UI', sans-serif; }
      .font-mono { font-family: 'Courier New', monospace; }
    </style>
  </defs>

  <!-- Background frame -->
  <rect x="0" y="0" width="526" height="395" rx="12" ry="12" fill="#0c0c0c"/>
  <rect x="0.5" y="0.5" width="525" height="394" rx="12" ry="12" fill="none" stroke="rgba(255,255,255,0.07)" stroke-width="1"/>

  <!-- ============ TOP SECTION: Search Bar ============ -->
  <!-- Search bar background -->
  <rect x="16" y="16" width="414" height="38" rx="8" ry="8" fill="rgba(255,255,255,0.03)" stroke="rgba(255,255,255,0.12)" stroke-width="1"/>

  <!-- Magnifying glass icon -->
  <g transform="translate(30, 29)" stroke="#94a3b8" stroke-width="1.8" fill="none">
    <circle cx="0" cy="0" r="6"/>
    <line x1="4.5" y1="4.5" x2="9" y2="9"/>
  </g>

  <!-- Search text -->
  <text x="48" y="40" class="font-mono" fill="#f7f8f8" font-size="13">client-12847</text>

  <!-- Search button -->
  <rect x="436" y="16" width="74" height="38" rx="8" ry="8" fill="#1ab759"/>
  <text x="473" y="40" class="font-inter" fill="#ffffff" font-size="12" font-weight="600" text-anchor="middle">Search</text>

  <!-- ============ MAIN SECTION: Timeline ============ -->

  <!-- Timeline vertical line -->
  <line x1="40" y1="80" x2="40" y2="320" stroke="#1ab759" stroke-width="2" opacity="0.4"/>

  <!-- Entry 1: Webhook Received -->
  <!-- Card row -->
  <rect x="16" y="74" width="350" height="56" rx="6" ry="6" fill="rgba(255,255,255,0.03)" stroke="rgba(255,255,255,0.07)" stroke-width="0.5"/>
  <!-- Green dot -->
  <circle cx="40" cy="94" r="5" fill="#1ab759"/>
  <circle cx="40" cy="94" r="8" fill="#1ab759" opacity="0.15"/>
  <!-- Timestamp -->
  <text x="60" y="90" class="font-mono" fill="#94a3b8" font-size="11">14:32:05</text>
  <!-- Title -->
  <text x="138" y="90" class="font-inter" fill="#f7f8f8" font-size="13" font-weight="600">Webhook Received</text>
  <!-- Detail -->
  <text x="138" y="108" class="font-mono" fill="#94a3b8" font-size="11">POST /api/webhook</text>
  <!-- Connector line from dot -->
  <line x1="48" y1="94" x2="56" y2="94" stroke="#1ab759" stroke-width="1" opacity="0.3"/>

  <!-- Entry 2: Contact Matched -->
  <rect x="16" y="138" width="350" height="56" rx="6" ry="6" fill="rgba(255,255,255,0.03)" stroke="rgba(255,255,255,0.07)" stroke-width="0.5"/>
  <circle cx="40" cy="158" r="5" fill="#1ab759"/>
  <circle cx="40" cy="158" r="8" fill="#1ab759" opacity="0.15"/>
  <text x="60" y="154" class="font-mono" fill="#94a3b8" font-size="11">14:32:05</text>
  <text x="138" y="154" class="font-inter" fill="#f7f8f8" font-size="13" font-weight="600">Contact Matched</text>
  <text x="138" y="172" class="font-mono" fill="#94a3b8" font-size="11">John D. (ID: 12847)</text>
  <line x1="48" y1="158" x2="56" y2="158" stroke="#1ab759" stroke-width="1" opacity="0.3"/>

  <!-- Entry 3: Membership Updated -->
  <rect x="16" y="202" width="350" height="56" rx="6" ry="6" fill="rgba(255,255,255,0.03)" stroke="rgba(255,255,255,0.07)" stroke-width="0.5"/>
  <circle cx="40" cy="222" r="5" fill="#1ab759"/>
  <circle cx="40" cy="222" r="8" fill="#1ab759" opacity="0.15"/>
  <text x="60" y="218" class="font-mono" fill="#94a3b8" font-size="11">14:32:06</text>
  <text x="138" y="218" class="font-inter" fill="#f7f8f8" font-size="13" font-weight="600">Membership Updated</text>
  <text x="138" y="236" class="font-mono" fill="#94a3b8" font-size="11">Status: Active → Premium</text>
  <line x1="48" y1="222" x2="56" y2="222" stroke="#1ab759" stroke-width="1" opacity="0.3"/>

  <!-- Entry 4: HubSpot Synced -->
  <rect x="16" y="266" width="350" height="56" rx="6" ry="6" fill="rgba(255,255,255,0.03)" stroke="rgba(255,255,255,0.07)" stroke-width="0.5"/>
  <circle cx="40" cy="286" r="5" fill="#1ab759"/>
  <circle cx="40" cy="286" r="8" fill="#1ab759" opacity="0.15"/>
  <text x="60" y="282" class="font-mono" fill="#94a3b8" font-size="11">14:32:06</text>
  <text x="138" y="282" class="font-inter" fill="#f7f8f8" font-size="13" font-weight="600">HubSpot Synced</text>
  <text x="138" y="300" class="font-mono" fill="#94a3b8" font-size="11">API Response: 200 OK</text>
  <line x1="48" y1="286" x2="56" y2="286" stroke="#1ab759" stroke-width="1" opacity="0.3"/>

  <!-- ============ RIGHT SIDEBAR: Summary Card ============ -->
  <rect x="376" y="74" width="134" height="248" rx="8" ry="8" fill="rgba(255,255,255,0.03)" stroke="rgba(255,255,255,0.07)" stroke-width="1"/>

  <!-- Summary header -->
  <text x="443" y="100" class="font-inter" fill="#f7f8f8" font-size="14" font-weight="700" text-anchor="middle">Summary</text>
  <!-- Divider -->
  <line x1="390" y1="112" x2="496" y2="112" stroke="rgba(255,255,255,0.1)" stroke-width="1"/>

  <!-- Steps -->
  <text x="396" y="140" class="font-inter" fill="#94a3b8" font-size="12">Steps</text>
  <text x="496" y="140" class="font-inter" fill="#f7f8f8" font-size="13" font-weight="600" text-anchor="end">4</text>

  <!-- Duration -->
  <text x="396" y="170" class="font-inter" fill="#94a3b8" font-size="12">Duration</text>
  <text x="496" y="170" class="font-inter" fill="#f7f8f8" font-size="13" font-weight="600" text-anchor="end">1.2s</text>

  <!-- Errors -->
  <text x="396" y="200" class="font-inter" fill="#94a3b8" font-size="12">Errors</text>
  <text x="496" y="200" class="font-inter" fill="#1ab759" font-size="13" font-weight="600" text-anchor="end">0</text>

  <!-- Divider -->
  <line x1="390" y1="220" x2="496" y2="220" stroke="rgba(255,255,255,0.07)" stroke-width="1"/>

  <!-- Status -->
  <text x="396" y="248" class="font-inter" fill="#94a3b8" font-size="12">Status</text>
  <!-- Status value with green dot -->
  <circle cx="452" cy="244" r="4" fill="#1ab759"/>
  <text x="496" y="248" class="font-inter" fill="#1ab759" font-size="12" font-weight="600" text-anchor="end">Complete</text>

  <!-- Success badge -->
  <rect x="406" y="270" width="74" height="28" rx="6" ry="6" fill="rgba(26,183,89,0.12)" stroke="#1ab759" stroke-width="0.5"/>
  <text x="443" y="289" class="font-inter" fill="#1ab759" font-size="11" font-weight="600" text-anchor="middle">SUCCESS</text>

  <!-- ============ BOTTOM BAR ============ -->
  <!-- Divider line -->
  <line x1="16" y1="340" x2="510" y2="340" stroke="rgba(255,255,255,0.07)" stroke-width="1"/>

  <!-- Results text -->
  <text x="16" y="365" class="font-inter" fill="#94a3b8" font-size="11">Showing 1 of 1 results</text>

  <!-- Pagination hint -->
  <text x="510" y="365" class="font-inter" fill="rgba(255,255,255,0.25)" font-size="11" text-anchor="end">Data Search / Support Monitoring</text>

  <!-- Subtle top-left window controls for dashboard feel -->
  <circle cx="28" y="0" r="0" fill="none"/>

</svg>