<svg xmlns="http://www.w3.org/2000/svg" viewBox="0 0 526 395" width="526" height="395">
  <defs>
    <clipPath id="frame-clip">
      <rect x="0" y="0" width="526" height="395" rx="12" ry="12"/>
    </clipPath>
    <style>
      text { font-family: 'Inter', sans-serif; }
    </style>
  </defs>

  <!-- Outer frame -->
  <rect x="0" y="0" width="526" height="395" rx="12" ry="12" fill="#0c0c0c" stroke="rgba(255,255,255,0.07)" stroke-width="1"/>

  <!-- Title bar -->
  <rect x="0" y="0" width="526" height="32" rx="12" ry="12" fill="#111111" clip-path="url(#frame-clip)"/>
  <rect x="0" y="20" width="526" height="12" fill="#111111"/>
  <!-- Window dots -->
  <circle cx="18" cy="16" r="5" fill="#ff5f57"/>
  <circle cx="36" cy="16" r="5" fill="#febc2e"/>
  <circle cx="54" cy="16" r="5" fill="#28c840"/>
  <text x="263" y="20" fill="#94a3b8" font-size="10" text-anchor="middle" font-weight="500">Admin Console</text>
  <!-- Title bar bottom border -->
  <line x1="0" y1="32" x2="526" y2="32" stroke="rgba(255,255,255,0.07)" stroke-width="1"/>

  <!-- LEFT SIDEBAR -->
  <rect x="0" y="32" width="110" height="363" fill="#141414" clip-path="url(#frame-clip)"/>
  <line x1="110" y1="32" x2="110" y2="395" stroke="rgba(255,255,255,0.07)" stroke-width="1"/>

  <!-- Sidebar header -->
  <text x="16" y="56" fill="#f7f8f8" font-size="10" font-weight="700" letter-spacing="0.5">NAVIGATION</text>

  <!-- Active item: Accounts -->
  <rect x="0" y="65" width="110" height="30" fill="rgba(26,183,89,0.08)"/>
  <rect x="0" y="65" width="3" height="30" fill="#1ab759" rx="0"/>
  <text x="18" y="84" fill="#f7f8f8" font-size="11" font-weight="600">Accounts</text>

  <!-- Connections -->
  <rect x="0" y="95" width="110" height="30" fill="transparent"/>
  <text x="18" y="114" fill="#94a3b8" font-size="11" font-weight="400">Connections</text>

  <!-- Rate Limits -->
  <rect x="0" y="125" width="110" height="30" fill="transparent"/>
  <text x="18" y="144" fill="#94a3b8" font-size="11" font-weight="400">Rate Limits</text>

  <!-- Monitoring -->
  <rect x="0" y="155" width="110" height="30" fill="transparent"/>
  <text x="18" y="174" fill="#94a3b8" font-size="11" font-weight="400">Monitoring</text>

  <!-- Settings -->
  <rect x="0" y="185" width="110" height="30" fill="transparent"/>
  <text x="18" y="204" fill="#94a3b8" font-size="11" font-weight="400">Settings</text>

  <!-- Sidebar bottom branding -->
  <text x="16" y="370" fill="#475569" font-size="8" font-weight="400">APIANT v4.2</text>


  <!-- MAIN CONTENT AREA -->
  <!-- Header row -->
  <text x="126" y="56" fill="#f7f8f8" font-size="14" font-weight="700">Account Network</text>
  <!-- Badge -->
  <rect x="255" y="44" width="72" height="18" rx="9" fill="rgba(26,183,89,0.15)"/>
  <text x="291" y="56" fill="#1ab759" font-size="9" font-weight="600" text-anchor="middle">228 accounts</text>

  <!-- Search bar -->
  <rect x="126" y="66" width="254" height="26" rx="6" fill="#1a1a1a" stroke="rgba(255,255,255,0.1)" stroke-width="1"/>
  <!-- Search icon -->
  <circle cx="140" cy="79" r="5" fill="none" stroke="#475569" stroke-width="1.5"/>
  <line x1="144" y1="83" x2="147" y2="86" stroke="#475569" stroke-width="1.5" stroke-linecap="round"/>
  <text x="154" y="83" fill="#475569" font-size="10">Search accounts...</text>

  <!-- TREE VIEW -->

  <!-- Master Account card -->
  <rect x="126" y="102" width="240" height="36" rx="6" fill="#1a1a1a" stroke="rgba(255,255,255,0.1)" stroke-width="1"/>
  <rect x="126" y="102" width="3" height="36" rx="1.5" fill="#1ab759"/>
  <circle cx="142" cy="120" r="4" fill="#1ab759"/>
  <text x="154" y="117" fill="#f7f8f8" font-size="11" font-weight="600">Master Account</text>
  <text x="154" y="129" fill="#64748b" font-size="8" font-weight="400">Organization root</text>
  <!-- Chevron indicator -->
  <path d="M352 116 L356 120 L352 124" fill="none" stroke="#475569" stroke-width="1.5" stroke-linecap="round" stroke-linejoin="round"/>

  <!-- Tree connector: vertical line from master to children -->
  <line x1="146" y1="138" x2="146" y2="287" stroke="#2a2a2a" stroke-width="1.5"/>

  <!-- Location 1 card -->
  <line x1="146" y1="162" x2="162" y2="162" stroke="#2a2a2a" stroke-width="1.5"/>
  <rect x="162" y="146" width="204" height="32" rx="5" fill="#1a1a1a" stroke="rgba(255,255,255,0.1)" stroke-width="1"/>
  <circle cx="176" cy="162" r="3.5" fill="#1ab759"/>
  <text x="186" y="159" fill="#f7f8f8" font-size="10" font-weight="500">Location 1</text>
  <text x="248" y="159" fill="#64748b" font-size="9">Portland</text>
  <text x="186" y="171" fill="#475569" font-size="8">HubSpot, Mindbody</text>

  <!-- Location 2 card -->
  <line x1="146" y1="198" x2="162" y2="198" stroke="#2a2a2a" stroke-width="1.5"/>
  <rect x="162" y="182" width="204" height="32" rx="5" fill="#1a1a1a" stroke="rgba(255,255,255,0.1)" stroke-width="1"/>
  <circle cx="176" cy="198" r="3.5" fill="#1ab759"/>
  <text x="186" y="195" fill="#f7f8f8" font-size="10" font-weight="500">Location 2</text>
  <text x="248" y="195" fill="#64748b" font-size="9">Austin</text>
  <text x="186" y="207" fill="#475569" font-size="8">Salesforce, Mindbody</text>

  <!-- Location 3 card -->
  <line x1="146" y1="234" x2="162" y2="234" stroke="#2a2a2a" stroke-width="1.5"/>
  <rect x="162" y="218" width="204" height="32" rx="5" fill="#1a1a1a" stroke="rgba(255,255,255,0.1)" stroke-width="1"/>
  <circle cx="176" cy="234" r="3.5" fill="#1ab759"/>
  <text x="186" y="231" fill="#f7f8f8" font-size="10" font-weight="500">Location 3</text>
  <text x="248" y="231" fill="#64748b" font-size="9">Denver</text>
  <text x="186" y="243" fill="#475569" font-size="8">ActiveCampaign, Mindbody</text>

  <!-- More locations indicator -->
  <line x1="146" y1="268" x2="162" y2="268" stroke="#2a2a2a" stroke-width="1.5" stroke-dasharray="3,2"/>
  <text x="170" y="264" fill="#64748b" font-size="9" font-style="italic">...</text>
  <text x="170" y="276" fill="#64748b" font-size="9" font-style="italic">225 more locations</text>

  <!-- Trim vertical connector line end -->
  <line x1="146" y1="280" x2="146" y2="287" stroke="#2a2a2a" stroke-width="1.5" stroke-dasharray="3,2"/>


  <!-- RIGHT DETAIL PANEL -->
  <line x1="390" y1="32" x2="390" y2="350" stroke="rgba(255,255,255,0.07)" stroke-width="1"/>
  <rect x="390" y="32" width="136" height="318" fill="rgba(20,20,20,0.5)" clip-path="url(#frame-clip)"/>

  <!-- Panel header -->
  <rect x="390" y="32" width="136" height="36" fill="rgba(26,183,89,0.06)"/>
  <line x1="390" y1="68" x2="526" y2="68" stroke="rgba(255,255,255,0.07)" stroke-width="1"/>
  <text x="406" y="55" fill="#f7f8f8" font-size="12" font-weight="700">Location 1</text>

  <!-- Status row -->
  <text x="406" y="88" fill="#64748b" font-size="9" font-weight="500">STATUS</text>
  <circle cx="410" cy="100" r="3.5" fill="#1ab759"/>
  <text x="420" y="104" fill="#1ab759" font-size="10" font-weight="600">Active</text>

  <!-- Divider -->
  <line x1="406" y1="114" x2="510" y2="114" stroke="rgba(255,255,255,0.05)" stroke-width="1"/>

  <!-- Connections row -->
  <text x="406" y="130" fill="#64748b" font-size="9" font-weight="500">CONNECTIONS</text>
  <!-- Connection pills -->
  <rect x="406" y="136" width="52" height="18" rx="4" fill="rgba(255,255,255,0.05)" stroke="rgba(255,255,255,0.08)" stroke-width="0.5"/>
  <text x="432" y="148" fill="#94a3b8" font-size="8" font-weight="500" text-anchor="middle">HubSpot</text>
  <rect x="464" y="136" width="52" height="18" rx="4" fill="rgba(255,255,255,0.05)" stroke="rgba(255,255,255,0.08)" stroke-width="0.5"/>
  <text x="490" y="148" fill="#94a3b8" font-size="8" font-weight="500" text-anchor="middle">Mindbody</text>

  <!-- Divider -->
  <line x1="406" y1="164" x2="510" y2="164" stroke="rgba(255,255,255,0.05)" stroke-width="1"/>

  <!-- Last Sync row -->
  <text x="406" y="180" fill="#64748b" font-size="9" font-weight="500">LAST SYNC</text>
  <text x="406" y="196" fill="#94a3b8" font-size="10">2 min ago</text>
  <!-- Sync indicator -->
  <circle cx="456" cy="192" r="3" fill="none" stroke="#1ab759" stroke-width="1"/>
  <path d="M454 192 L456 190 L458 192" fill="none" stroke="#1ab759" stroke-width="0.8" stroke-linecap="round"/>

  <!-- Divider -->
  <line x1="406" y1="206" x2="510" y2="206" stroke="rgba(255,255,255,0.05)" stroke-width="1"/>

  <!-- Features row -->
  <text x="406" y="222" fill="#64748b" font-size="9" font-weight="500">FEATURES</text>
  <!-- Feature toggle -->
  <rect x="406" y="228" width="100" height="20" rx="4" fill="rgba(26,183,89,0.08)" stroke="rgba(26,183,89,0.2)" stroke-width="0.5"/>
  <text x="416" y="241" fill="#1ab759" font-size="9" font-weight="500">Custom Objects</text>
  <!-- Toggle switch -->
  <rect x="488" y="232" width="14" height="8" rx="4" fill="#1ab759"/>
  <circle cx="498" cy="236" r="3" fill="#fff"/>

  <!-- Divider -->
  <line x1="406" y1="258" x2="510" y2="258" stroke="rgba(255,255,255,0.05)" stroke-width="1"/>

  <!-- API calls stat -->
  <text x="406" y="274" fill="#64748b" font-size="9" font-weight="500">API CALLS (24H)</text>
  <text x="406" y="292" fill="#f7f8f8" font-size="14" font-weight="700">12,847</text>
  <text x="460" y="292" fill="#1ab759" font-size="8" font-weight="500">+4.2%</text>


  <!-- BOTTOM BAR -->
  <line x1="0" y1="350" x2="526" y2="350" stroke="rgba(255,255,255,0.07)" stroke-width="1"/>
  <rect x="0" y="350" width="526" height="45" rx="0" fill="#111111" clip-path="url(#frame-clip)"/>
  <!-- Re-draw bottom rounded corners -->
  <rect x="0" y="383" width="526" height="12" rx="12" ry="12" fill="#111111" clip-path="url(#frame-clip)"/>

  <!-- Rate limit label -->
  <text x="16" y="369" fill="#94a3b8" font-size="9" font-weight="500">RATE LIMIT</text>

  <!-- Rate limit bar background -->
  <rect x="16" y="374" width="340" height="10" rx="5" fill="#1a1a1a" stroke="rgba(255,255,255,0.05)" stroke-width="0.5"/>
  <!-- Rate limit bar fill (62%) -->
  <rect x="16" y="374" width="211" height="10" rx="5" fill="#1ab759"/>
  <!-- Gradient overlay on fill for depth -->
  <rect x="16" y="374" width="211" height="5" rx="5" fill="rgba(255,255,255,0.08)"/>

  <!-- Rate limit text -->
  <text x="366" y="383" fill="#f7f8f8" font-size="9" font-weight="600">185 / 10s</text>
  <text x="420" y="383" fill="#64748b" font-size="9">62% utilized</text>

  <!-- Status indicators in bottom bar -->
  <circle cx="490" cy="368" r="3" fill="#1ab759"/>
  <text x="497" y="371" fill="#94a3b8" font-size="8">All systems OK</text>

</svg>