<?xml version="1.0" encoding="UTF-8"?>
<svg width="172px" height="49px" viewBox="0 0 172 49" version="1.1" xmlns="http://www.w3.org/2000/svg" xmlns:xlink="http://www.w3.org/1999/xlink">
    <title>Shopify_logo_2018</title>
    <g id="Page-1" stroke="none" stroke-width="1" fill="none" fill-rule="evenodd">
        <g id="Shopify_logo_2018" fill-rule="nonzero">
            <path d="M36.8232536,9.33567663 C36.7952724,9.08260105 36.5714229,8.97012302 36.4035357,8.97012302 C36.2356485,8.97012302 32.5701119,8.68892794 32.5701119,8.68892794 C32.5701119,8.68892794 30.0238231,6.13005272 29.7160299,5.87697715 C29.436218,5.59578207 28.9045752,5.6801406 28.6807257,5.73637961 C28.6527445,5.73637961 28.1211017,5.90509666 27.2536847,6.18629174 C26.3862676,3.68365554 24.9032642,1.4059754 22.2450506,1.4059754 L21.9932199,1.4059754 C21.2657088,0.449912127 20.3143481,0 19.5308746,0 C13.3750116,0 10.4090048,7.73286467 9.48562537,11.6695958 C7.07924253,12.4288225 5.37238959,12.9349736 5.17652122,13.0193322 C3.83342382,13.4411248 3.80544262,13.4692443 3.63755545,14.7346221 C3.49764947,15.6906854 0,42.8822496 0,42.8822496 L27.2257035,48 L41.9998879,44.7943761 C42.027756,44.7381371 36.8512348,9.5887522 36.8232536,9.33567663 Z M25.7427001,6.57996485 C25.0711514,6.77680141 24.2596967,7.02987698 23.4482421,7.31107206 L23.4482421,6.80492091 C23.4482421,5.28646749 23.2523737,4.04920914 22.8886181,3.06502636 C24.2876779,3.23374341 25.155095,4.78031634 25.7427001,6.57996485 Z M21.1817652,3.37434095 C21.5455207,4.33040422 21.7973515,5.6801406 21.7973515,7.53602812 L21.7973515,7.8172232 C20.2863669,8.29525483 18.6914388,8.77328647 17.0405482,9.30755712 C17.9639277,5.76449912 19.726743,4.02108963 21.1817652,3.37434095 Z M19.3909687,1.63093146 C19.6707806,1.63093146 19.9505926,1.74340949 20.1744422,1.91212654 C18.1877773,2.8400703 16.0891876,5.17398946 15.2217705,9.89806678 C13.9066543,10.3198594 12.6475005,10.685413 11.4443091,11.0790861 C12.4516321,7.4797891 14.9699397,1.63093146 19.3909687,1.63093146 L19.3909687,1.63093146 Z" id="Shape" fill="#95BF47"></path>
            <path d="M36.2329545,9.23505976 C36.0625,9.23505976 32.3409091,8.9561753 32.3409091,8.9561753 C32.3409091,8.9561753 29.7556818,6.41832669 29.4431818,6.16733068 C29.3295455,6.05577689 29.1875,6 29.0738636,6 L27,48 L42,44.8207171 C42,44.8207171 36.7443182,9.90438247 36.7159091,9.65338645 C36.6022727,9.40239044 36.4034091,9.29083665 36.2329545,9.23505976 L36.2329545,9.23505976 Z" id="Path" fill="#5E8E3E"></path>
            <path d="M22,17.6943994 L20.1811723,23.0491386 C20.1811723,23.0491386 18.5328597,22.1890509 16.5719361,22.1890509 C13.6447602,22.1890509 13.5026643,23.9924605 13.5026643,24.4363767 C13.5026643,26.8779158 20.0390764,27.8212377 20.0390764,33.5644036 C20.0390764,38.0867999 17.1119005,41 13.1616341,41 C8.38721137,41 6,38.1145447 6,38.1145447 L7.27886323,34.0083198 C7.27886323,34.0083198 9.77975133,36.1169218 11.8827709,36.1169218 C13.2753108,36.1169218 13.8436945,35.0626208 13.8436945,34.2857674 C13.8436945,31.0951197 8.5008881,30.9563959 8.5008881,25.684891 C8.5008881,21.2734737 11.740675,17.0007803 18.3055062,17.0007803 C20.749556,16.9730355 22,17.6943994 22,17.6943994 L22,17.6943994 Z" id="Path" fill="#949494"></path>
            <path d="M59.5332268,27.5305832 C58.0445307,26.7539118 57.2861384,26.0604552 57.2861384,25.1450925 C57.2861384,23.9800853 58.3535054,23.2311522 60.010733,23.2311522 C61.9488468,23.2311522 63.6622517,24.0078236 63.6622517,24.0078236 L65.0105047,19.9302987 C65.0105047,19.9302987 63.7746061,18.9871977 60.1230875,18.9871977 C55.03905,18.9871977 51.4998858,21.8719772 51.4998858,25.9217639 C51.4998858,28.2240398 53.1571135,29.9715505 55.3480247,31.2197724 C57.1456954,32.1906117 57.7636447,32.9118065 57.7636447,33.9658606 C57.7636447,35.0476529 56.8648093,35.9352774 55.2075816,35.9352774 C52.763873,35.9352774 50.4325188,34.6870555 50.4325188,34.6870555 L49,38.7645804 C49,38.7645804 51.134734,40.1792319 54.7300754,40.1792319 C59.9545558,40.1792319 63.7465175,37.6273115 63.7465175,33.0504979 C63.6903403,30.5540541 61.8084037,28.8342817 59.5332268,27.5305832 L59.5332268,27.5305832 Z M80.3749715,18.9317212 C77.7908198,18.9317212 75.7684403,20.1522048 74.223567,21.9829303 L74.1673898,21.955192 L76.4144782,10.416074 L70.600137,10.416074 L64.9262389,39.8186344 L70.74058,39.8186344 L72.6786938,29.7773826 C73.4370861,25.9772404 75.431377,23.6194879 77.2852249,23.6194879 C78.6053894,23.6194879 79.1109842,24.5071124 79.1109842,25.7553343 C79.1109842,26.5320057 79.054807,27.5305832 78.8581868,28.3072546 L76.6672756,39.8186344 L82.4816168,39.8186344 L84.7567938,27.9466572 C85.0095912,26.6984353 85.1781229,25.200569 85.1781229,24.1742532 C85.1500343,20.8733997 83.4366294,18.9317212 80.3749715,18.9317212 L80.3749715,18.9317212 Z M98.3235899,18.9317212 C91.3014387,18.9317212 86.6668189,25.1728307 86.6668189,32.1351351 C86.6668189,36.5732575 89.4475908,40.1792319 94.6720712,40.1792319 C101.553779,40.1792319 106.188399,34.1045519 106.188399,26.9758179 C106.216488,22.8428165 103.800868,18.9317212 98.3235899,18.9317212 Z M95.4585522,35.7965861 C93.4642612,35.7965861 92.6496917,34.1322902 92.6496917,32.0241821 C92.6496917,28.7233286 94.3630966,23.3698435 97.5371089,23.3698435 C99.5875771,23.3698435 100.289792,25.1450925 100.289792,26.8371266 C100.289792,30.3598862 98.5202101,35.7965861 95.4585522,35.7965861 Z M121.103448,18.9317212 C117.171044,18.9317212 114.952044,22.371266 114.952044,22.371266 L114.895867,22.371266 L115.23293,19.2923186 L110.064627,19.2923186 C109.811829,21.3726885 109.334323,24.5625889 108.884905,26.9203414 L104.868235,47.9736842 L110.682576,47.9736842 L112.311715,39.458037 L112.452158,39.458037 C112.452158,39.458037 113.659968,40.2069701 115.850879,40.2069701 C122.704499,40.2069701 127.170587,33.272404 127.170587,26.2823613 C127.142498,22.3990043 125.372916,18.9317212 121.103448,18.9317212 L121.103448,18.9317212 Z M115.541905,35.8520626 C114.02512,35.8520626 113.126285,34.9921764 113.126285,34.9921764 L114.081297,29.6386913 C114.755424,26.0327169 116.665449,23.6749644 118.687828,23.6749644 C120.485499,23.6749644 121.019182,25.311522 121.019182,26.8371266 C121.047271,30.5540541 118.800183,35.8520626 115.541905,35.8520626 L115.541905,35.8520626 Z M135.456725,10.6934566 C133.602877,10.6934566 132.114181,12.1635846 132.114181,14.0220484 C132.114181,15.7140825 133.209637,16.9068279 134.866865,16.9068279 L134.923042,16.9068279 C136.748801,16.9068279 138.293674,15.6863442 138.321763,13.5782361 C138.349852,11.886202 137.198219,10.6934566 135.456725,10.6934566 L135.456725,10.6934566 Z M127.31103,39.7908962 L133.125371,39.7908962 L137.057776,19.3755334 L131.215346,19.3755334 M151.888559,19.3477952 L147.8438,19.3477952 L148.04042,18.4046942 C148.377483,16.4352774 149.557205,14.715505 151.523407,14.715505 C152.562686,14.715505 153.377255,15.0206259 153.377255,15.0206259 L154.500799,10.4992888 C154.500799,10.4992888 153.517698,10 151.326787,10 C149.276319,10 147.197762,10.5825036 145.6248,11.9139403 C143.630509,13.5782361 142.703585,15.9914651 142.254168,18.4324324 L142.085636,19.3755334 L139.361041,19.3755334 L138.490295,23.730441 L141.214889,23.730441 L138.125143,39.8186344 L143.939484,39.8186344 L147.02923,23.730441 L151.045901,23.730441 L151.888559,19.3477952 L151.888559,19.3477952 Z M165.904773,19.3755334 C165.904773,19.3755334 162.253254,28.4459459 160.652204,33.4110953 L160.596026,33.4110953 C160.483672,31.802276 159.163508,19.3755334 159.163508,19.3755334 L153.040192,19.3755334 L156.551267,38.0711238 C156.607445,38.4871977 156.579356,38.7368421 156.410824,39.0142248 C155.736698,40.3179232 154.585065,41.5661451 153.236812,42.4815078 C152.141356,43.2581792 150.905458,43.7852063 149.922357,44.1180654 L151.551496,49 C152.731217,48.7503556 155.203014,47.7795164 157.253483,45.8655761 C159.893811,43.4246088 162.365609,39.6244666 164.893583,34.4651494 L172,19.3477952 L165.904773,19.3477952 L165.904773,19.3755334 Z" id="Shape" fill="#949494"></path>
        </g>
    </g>
</svg>