<svg width="56" height="54" viewBox="0 0 56 54" fill="none" xmlns="http://www.w3.org/2000/svg">
<path d="M56 4.03695V17.8151C56 18.4241 55.7542 19.0082 55.3166 19.4389C54.879 19.8695 54.2855 20.1114 53.6667 20.1114H39.6667C39.2049 20.1118 38.7534 19.9773 38.3694 19.725C37.9853 19.4727 37.686 19.1139 37.5092 18.6941C37.3325 18.2743 37.2862 17.8123 37.3764 17.3666C37.4666 16.9209 37.6891 16.5116 38.0158 16.1904L43.3562 10.926C39.0602 6.87507 33.3459 4.60484 27.3962 4.58521H27.265C21.1684 4.57344 15.3123 6.92456 10.9637 11.1298C10.5181 11.5392 9.92744 11.7607 9.318 11.747C8.70857 11.7332 8.12881 11.4853 7.70274 11.0562C7.27668 10.6271 7.03815 10.051 7.03818 9.45108C7.03821 8.85115 7.27681 8.27505 7.70292 7.84603C12.9044 2.84451 19.8791 0.0307876 27.1511 0.000251159C34.4231 -0.0302853 41.422 2.72476 46.6667 7.68242L52.0217 2.41228C52.3483 2.09273 52.7637 1.87546 53.2156 1.78783C53.6675 1.70021 54.1356 1.74615 54.561 1.91987C54.9864 2.09359 55.35 2.38732 55.6061 2.76406C55.8621 3.1408 55.9992 3.58369 56 4.03695ZM45.0363 42.8712C40.7142 47.0257 34.9232 49.3684 28.8818 49.4064C22.8403 49.4444 17.0194 47.1748 12.6438 43.075L17.9842 37.8192C18.3139 37.4985 18.5391 37.0884 18.631 36.6413C18.7229 36.1941 18.6774 35.7301 18.5003 35.3085C18.3232 34.8869 18.0225 34.5268 17.6365 34.2741C17.2506 34.0213 16.7969 33.8875 16.3333 33.8896H2.33333C1.7145 33.8896 1.121 34.1315 0.683419 34.5622C0.245834 34.9928 7.22868e-07 35.5769 7.22868e-07 36.1859V49.9641C-0.000362664 50.4185 0.136288 50.8628 0.392653 51.2408C0.649018 51.6188 1.01357 51.9134 1.44016 52.0873C1.86674 52.2613 2.33619 52.3068 2.78905 52.218C3.24191 52.1292 3.65784 51.9103 3.98417 51.5887L9.33333 46.3186C14.5022 51.2281 21.3998 53.9804 28.5833 53.9999H28.7379C36.0532 54.0185 43.0813 51.2 48.3 46.155C48.7261 45.726 48.9647 45.1499 48.9647 44.5499C48.9648 43.95 48.7262 43.3739 48.3002 42.9448C47.8741 42.5157 47.2943 42.2678 46.6849 42.2541C46.0755 42.2403 45.4848 42.4618 45.0392 42.8712H45.0363Z" fill="#B8B8B8"/>
</svg>
