<svg width="70" height="56" viewBox="0 0 70 56" fill="none" xmlns="http://www.w3.org/2000/svg">
<path d="M67.1737 50.7144H62.5631V18.4397C63.1745 18.4397 63.7608 18.1968 64.1932 17.7645C64.6255 17.3322 64.8684 16.7458 64.8684 16.1344C64.8684 15.523 64.6255 14.9366 64.1932 14.5043C63.7608 14.0719 63.1745 13.8291 62.5631 13.8291H48.7311V4.60773C49.3425 4.60773 49.9289 4.36485 50.3612 3.93252C50.7935 3.50018 51.0364 2.91381 51.0364 2.3024C51.0364 1.69099 50.7935 1.10462 50.3612 0.672287C49.9289 0.239953 49.3425 -0.00292969 48.7311 -0.00292969H7.23509C6.62368 -0.00292969 6.03731 0.239953 5.60497 0.672287C5.17264 1.10462 4.92976 1.69099 4.92976 2.3024C4.92976 2.91381 5.17264 3.50018 5.60497 3.93252C6.03731 4.36485 6.62368 4.60773 7.23509 4.60773V50.7144H2.62442C2.01301 50.7144 1.42664 50.9573 0.994308 51.3896C0.561974 51.8219 0.319092 52.4083 0.319092 53.0197C0.319092 53.6311 0.561974 54.2175 0.994308 54.6498C1.42664 55.0822 2.01301 55.325 2.62442 55.325H67.1737C67.7851 55.325 68.3715 55.0822 68.8038 54.6498C69.2362 54.2175 69.4791 53.6311 69.4791 53.0197C69.4791 52.4083 69.2362 51.8219 68.8038 51.3896C68.3715 50.9573 67.7851 50.7144 67.1737 50.7144ZM18.7617 11.5237H23.3724C23.9838 11.5237 24.5702 11.7666 25.0025 12.1989C25.4349 12.6313 25.6777 13.2177 25.6777 13.8291C25.6777 14.4405 25.4349 15.0268 25.0025 15.4592C24.5702 15.8915 23.9838 16.1344 23.3724 16.1344H18.7617C18.1503 16.1344 17.564 15.8915 17.1316 15.4592C16.6993 15.0268 16.4564 14.4405 16.4564 13.8291C16.4564 13.2177 16.6993 12.6313 17.1316 12.1989C17.564 11.7666 18.1503 11.5237 18.7617 11.5237ZM16.4564 25.3557C16.4564 24.7443 16.6993 24.1579 17.1316 23.7256C17.564 23.2933 18.1503 23.0504 18.7617 23.0504H23.3724C23.9838 23.0504 24.5702 23.2933 25.0025 23.7256C25.4349 24.1579 25.6777 24.7443 25.6777 25.3557C25.6777 25.9671 25.4349 26.5535 25.0025 26.9858C24.5702 27.4182 23.9838 27.6611 23.3724 27.6611H18.7617C18.1503 27.6611 17.564 27.4182 17.1316 26.9858C16.6993 26.5535 16.4564 25.9671 16.4564 25.3557ZM34.8991 50.7144H21.0671V36.8824H34.8991V50.7144ZM37.2044 27.6611H32.5937C31.9823 27.6611 31.396 27.4182 30.9636 26.9858C30.5313 26.5535 30.2884 25.9671 30.2884 25.3557C30.2884 24.7443 30.5313 24.1579 30.9636 23.7256C31.396 23.2933 31.9823 23.0504 32.5937 23.0504H37.2044C37.8158 23.0504 38.4022 23.2933 38.8345 23.7256C39.2669 24.1579 39.5097 24.7443 39.5097 25.3557C39.5097 25.9671 39.2669 26.5535 38.8345 26.9858C38.4022 27.4182 37.8158 27.6611 37.2044 27.6611ZM37.2044 16.1344H32.5937C31.9823 16.1344 31.396 15.8915 30.9636 15.4592C30.5313 15.0268 30.2884 14.4405 30.2884 13.8291C30.2884 13.2177 30.5313 12.6313 30.9636 12.1989C31.396 11.7666 31.9823 11.5237 32.5937 11.5237H37.2044C37.8158 11.5237 38.4022 11.7666 38.8345 12.1989C39.2669 12.6313 39.5097 13.2177 39.5097 13.8291C39.5097 14.4405 39.2669 15.0268 38.8345 15.4592C38.4022 15.8915 37.8158 16.1344 37.2044 16.1344ZM57.9524 50.7144H48.7311V18.4397H57.9524V50.7144Z" fill="white"/>
</svg>
