<svg width="70" height="68" viewBox="0 0 70 68" fill="none" xmlns="http://www.w3.org/2000/svg">
<path d="M69.3699 65.9884C69.1364 66.395 68.8005 66.7326 68.396 66.9673C67.9915 67.2019 67.5326 67.3254 67.0656 67.3253H3.22211C2.75539 67.3249 2.29701 67.201 1.893 66.9661C1.48898 66.7312 1.15356 66.3936 0.920407 65.9872C0.687254 65.5808 0.564578 65.12 0.564697 64.6508C0.564817 64.1817 0.687728 63.7209 0.92109 63.3146C5.98534 54.5144 13.7895 48.2042 22.8972 45.2128C18.3921 42.5171 14.892 38.4096 12.9343 33.5209C10.9765 28.6322 10.6695 23.2327 12.0602 18.1516C13.451 13.0705 16.4627 8.58881 20.6328 5.3947C24.803 2.20059 29.9009 0.470703 35.1438 0.470703C40.3868 0.470703 45.4847 2.20059 49.6549 5.3947C53.825 8.58881 56.8367 13.0705 58.2275 18.1516C59.6182 23.2327 59.3112 28.6322 57.3534 33.5209C55.3957 38.4096 51.8956 42.5171 47.3905 45.2128C56.4982 48.2042 64.3024 54.5144 69.3666 63.3146C69.6006 63.7208 69.7241 64.1817 69.7247 64.6511C69.7253 65.1204 69.6029 65.5817 69.3699 65.9884Z" fill="white"/>
</svg>
